<?xml version="1.0" encoding="UTF-8" standalone="no"?>
<svg
   xmlns:dc="http://purl.org/dc/elements/1.1/"
   xmlns:cc="http://creativecommons.org/ns#"
   xmlns:rdf="http://www.w3.org/1999/02/22-rdf-syntax-ns#"
   xmlns:svg="http://www.w3.org/2000/svg"
   xmlns="http://www.w3.org/2000/svg"
   viewBox="0 0 847.51849 626.14679"
   height="626.14679"
   width="847.51849"
   xml:space="preserve"
   id="svg2"
   version="1.1"><metadata
     id="metadata8"><rdf:RDF><cc:Work
         rdf:about=""><dc:format>image/svg+xml</dc:format><dc:type
           rdf:resource="http://purl.org/dc/dcmitype/StillImage" /></cc:Work></rdf:RDF></metadata><defs
     id="defs6"><clipPath
       id="clipPath26"
       clipPathUnits="userSpaceOnUse"><path
         id="path24"
         d="M 0,0 H 636 V 470 H 0 Z" /></clipPath><clipPath
       id="clipPath152"
       clipPathUnits="userSpaceOnUse"><path
         id="path150"
         d="M 0,0 H 636 V 470 H 0 Z" /></clipPath><clipPath
       id="clipPath170"
       clipPathUnits="userSpaceOnUse"><path
         id="path168"
         d="M 0,0 H 636 V 470 H 0 Z" /></clipPath><clipPath
       id="clipPath190"
       clipPathUnits="userSpaceOnUse"><path
         id="path188"
         d="M 0,0 H 636 V 470 H 0 Z" /></clipPath><clipPath
       id="clipPath216"
       clipPathUnits="userSpaceOnUse"><path
         id="path214"
         d="M 0,0 H 636 V 470 H 0 Z" /></clipPath><clipPath
       id="clipPath612"
       clipPathUnits="userSpaceOnUse"><path
         id="path610"
         d="M 0,0 H 636 V 470 H 0 Z" /></clipPath></defs><g
     transform="matrix(1.3333333,0,0,1.3333333,0,1.6320336e-5)"
     id="g10"><g
       id="g12"><path
         id="path14"
         style="fill:#df9775;fill-opacity:0.51865701;fill-rule:nonzero;stroke:none"
         d="m 377.168,335.949 h 73.109 c 0.125,0 0.227,0.102 0.227,0.227 v 27.554 c 0,0.125 -0.102,0.227 -0.227,0.227 h -73.109 c -0.125,0 -0.23,-0.102 -0.23,-0.227 v -27.554 c 0,-0.125 0.105,-0.227 0.23,-0.227 z" /><g
         id="g16"><path
           id="path18"
           style="fill:none;stroke:#fcffff;stroke-width:2.21391106;stroke-linecap:butt;stroke-linejoin:miter;stroke-miterlimit:4;stroke-dasharray:none;stroke-opacity:1"
           d="m 377.168,335.949 h 73.109 c 0.125,0 0.227,0.102 0.227,0.227 v 27.554 c 0,0.125 -0.102,0.227 -0.227,0.227 h -73.109 c -0.125,0 -0.23,-0.102 -0.23,-0.227 v -27.554 c 0,-0.125 0.105,-0.227 0.23,-0.227 z" /></g><g
         id="g20"><g
           id="g22" /><g
           id="g34"><g
             style="opacity:0.58300003"
             id="g32"
             clip-path="url(#clipPath26)"><g
               id="g30"><path
                 id="path28"
                 style="fill:#5e9ebe;fill-opacity:0.61568598;fill-rule:nonzero;stroke:none"
                 d="m 165.789,33.07 h 367.27 c 23.519,0 42.457,18.938 42.457,42.457 0,23.524 -18.938,42.457 -42.457,42.457 h -367.27 c -23.519,0 -42.457,-18.933 -42.457,-42.457 0,-23.519 18.938,-42.457 42.457,-42.457 z" /></g></g></g></g><path
         id="path36"
         style="fill:#0d4972;fill-opacity:1;fill-rule:nonzero;stroke:none"
         d="m 372,64.734 c 0,3.739 0.168,6.543 -3.57,6.543 h -29.492 c -3.739,0 -3.485,-2.804 -3.485,-6.543 v -9.519 c 0,-3.738 3.145,-4.332 6.887,-4.332 h 22.691 c 3.739,0 6.969,0.594 6.969,4.332 z" /><path
         id="path38"
         style="fill:#00233f;fill-opacity:1;fill-rule:nonzero;stroke:none"
         d="m 335.539,55.047 c 0,-3.738 3.059,-4.164 6.801,-4.164 h 22.691 c 3.739,0 6.969,0.594 6.969,4.332 v 9.519 c 0,3.739 0.254,6.715 -3.484,6.715" /><path
         id="path40"
         style="fill:#04445b;fill-opacity:1;fill-rule:nonzero;stroke:none"
         d="m 347.352,94.227 h -9.942 c -2.976,0 -5.269,-2.211 -5.269,-5.102 0,-2.887 2.293,-5.098 5.269,-5.098 h 9.942 c 0.511,0 0.851,0.34 0.851,0.848 0,0.512 -0.34,0.852 -0.851,0.852 h -9.942 c -2.039,0 -3.57,1.445 -3.57,3.398 0,1.957 1.531,3.402 3.57,3.402 h 9.942 c 0.511,0 0.851,0.34 0.851,0.848 0,0.512 -0.34,0.852 -0.851,0.852 z" /><path
         id="path42"
         style="fill:#055072;fill-opacity:1;fill-rule:nonzero;stroke:none"
         d="m 361.121,84.027 c 0,1.446 -1.191,2.551 -2.637,2.551 h -10.453 c -1.445,0 -2.633,-1.105 -2.633,-2.551 0,-1.445 1.188,-2.55 2.633,-2.55 h 10.371 c 1.528,0 2.719,1.105 2.719,2.55 z" /><path
         id="path44"
         style="fill:#03445b;fill-opacity:1;fill-rule:nonzero;stroke:none"
         d="m 361.121,84.027 c 0,1.446 -1.191,2.551 -2.637,2.551 h -10.453 c -1.445,0 -2.633,-1.105 -2.633,-2.637" /><path
         id="path46"
         style="fill:#097d8c;fill-opacity:1;fill-rule:nonzero;stroke:none"
         d="m 356.703,80.969 c 0,1.867 -1.531,3.398 -3.402,3.398 -1.867,0 -3.399,-1.531 -3.399,-3.398 v -0.766 c 0,-1.871 1.532,-3.398 3.399,-3.398 1.871,0 3.402,1.527 3.402,3.398 z" /><path
         id="path48"
         style="fill:#149ca3;fill-opacity:1;fill-rule:nonzero;stroke:none"
         d="m 374.547,72.723 c 0,4.336 0.34,7.906 -3.992,7.906 h -33.743 c -4.332,0 -3.906,-3.656 -3.906,-7.906 V 55.555 c 0,-4.246 3.485,-4.672 7.817,-4.672 h 25.922 c 4.335,0 7.902,0.426 7.902,4.672 z" /><path
         id="path50"
         style="fill:#36c9b4;fill-opacity:1;fill-rule:nonzero;stroke:none"
         d="m 374.547,71.023 c 0,4.336 0.34,7.903 -3.992,7.903 h -33.743 c -4.332,0 -3.906,-3.567 -3.906,-7.903 V 53.941 c 0,-4.336 3.485,-4.757 7.817,-4.757 h 25.922 c 4.335,0 7.902,0.421 7.902,4.757 z" /><path
         id="path52"
         style="fill:#22b2b2;fill-opacity:1;fill-rule:nonzero;stroke:none"
         d="m 340.555,49.184 h 26.09 c 4.335,0 7.902,0.421 7.902,4.757 v 17.168 c 0,4.332 0.34,7.903 -3.992,7.903 h -33.399" /><path
         id="path54"
         style="fill:#149ca3;fill-opacity:1;fill-rule:nonzero;stroke:none"
         d="m 366.73,49.266 c 4.332,0 7.817,0.339 7.817,4.675 v 17.168 c 0,4.332 0.34,7.903 -3.992,7.903" /><path
         id="path56"
         style="fill:#149ca3;fill-opacity:1;fill-rule:nonzero;stroke:none"
         d="m 372,66.348 c 0,3.742 0.168,6.632 -3.57,6.632 h -29.492 c -3.739,0 -3.485,-2.89 -3.485,-6.632 v -9.516 c 0,-3.742 3.145,-4.25 6.887,-4.25 h 22.691 c 3.739,0 6.969,0.508 6.969,4.25 z" /><path
         id="path58"
         style="fill:#0d4972;fill-opacity:1;fill-rule:nonzero;stroke:none"
         d="m 372,64.734 c 0,3.739 0.168,6.543 -3.57,6.543 h -29.492 c -3.739,0 -3.485,-2.804 -3.485,-6.543 v -9.519 c 0,-3.738 3.145,-4.332 6.887,-4.332 h 22.691 c 3.739,0 6.969,0.594 6.969,4.332 z" /><path
         id="path60"
         style="fill:#00233f;fill-opacity:1;fill-rule:nonzero;stroke:none"
         d="m 335.453,55.215 c 0,-3.738 3.145,-4.332 6.887,-4.332 h 22.691 c 3.739,0 6.969,0.594 6.969,4.332 v 9.519 c 0,3.739 0.168,6.543 -3.57,6.543" /><path
         id="path62"
         style="fill:#04445b;fill-opacity:1;fill-rule:nonzero;stroke:none"
         d="m 349.988,75.441 c 0,0.332 -0.265,0.598 -0.597,0.598 -0.329,0 -0.594,-0.266 -0.594,-0.598 0,-0.328 0.265,-0.593 0.594,-0.593 0.332,0 0.597,0.265 0.597,0.593 z" /><path
         id="path64"
         style="fill:#04445b;fill-opacity:1;fill-rule:nonzero;stroke:none"
         d="m 354.238,75.441 c 0,0.332 -0.269,0.598 -0.597,0.598 -0.329,0 -0.594,-0.266 -0.594,-0.598 0,-0.328 0.265,-0.593 0.594,-0.593 0.328,0 0.597,0.265 0.597,0.593 z" /><path
         id="path66"
         style="fill:#04445b;fill-opacity:1;fill-rule:nonzero;stroke:none"
         d="m 358.57,75.441 c 0,0.332 -0.265,0.598 -0.593,0.598 -0.329,0 -0.594,-0.266 -0.594,-0.598 0,-0.328 0.265,-0.593 0.594,-0.593 0.328,0 0.593,0.265 0.593,0.593 z" /><path
         id="path68"
         style="fill:#36c9b4;fill-opacity:1;fill-rule:nonzero;stroke:none"
         d="m 362.648,93.887 c 0,1.613 -1.273,2.886 -2.886,2.886 h -12.071 c -1.613,0 -2.886,-1.273 -2.886,-2.886 v -0.258 c 0,-1.613 1.273,-2.887 2.886,-2.887 h 12.157 c 1.613,0 2.886,1.274 2.886,2.887 v 0.258 z" /><path
         id="path70"
         style="fill:#22b2b2;fill-opacity:1;fill-rule:nonzero;stroke:none"
         d="m 362.648,94.055 v -0.34 c 0,1.613 -1.273,3.058 -2.886,3.058 h -12.071 c -1.613,0 -2.886,-1.273 -2.886,-2.886 l 0.082,0.082" /><path
         id="path72"
         style="fill:#22b2b2;fill-opacity:1;fill-rule:nonzero;stroke:none"
         d="m 368.598,92.527 c 0,-2.804 -2.293,-5.101 -5.098,-5.101 -2.805,0 -5.098,2.297 -5.098,5.101 v 2.547 c 0,2.805 2.293,5.102 5.098,5.102 2.805,0 5.098,-2.297 5.098,-5.102 z" /><path
         id="path74"
         style="fill:#0d4972;fill-opacity:1;fill-rule:nonzero;stroke:none"
         d="m 363.5,100.176 c 2.891,0 5.098,-2.211 5.098,-5.102 v -2.547 c 0,-2.89 -2.207,-5.101 -5.098,-5.101" /><path
         id="path76"
         style="fill:#13628e;fill-opacity:1;fill-rule:nonzero;stroke:none"
         d="m 364.082,88.238 c 0.48,-0.375 1.574,0.219 2.441,1.328 0.868,1.11 1.18,2.313 0.7,2.688 -0.481,0.379 -1.575,-0.219 -2.442,-1.324 -0.867,-1.11 -1.179,-2.317 -0.699,-2.692 z" /><path
         id="path78"
         style="fill:#149ca3;fill-opacity:1;fill-rule:nonzero;stroke:none"
         d="m 348.289,91.504 c 0,0.191 -0.152,0.34 -0.34,0.34 -0.187,0 -0.34,-0.149 -0.34,-0.34 0,-0.188 0.153,-0.34 0.34,-0.34 0.188,0 0.34,0.152 0.34,0.34 z" /><path
         id="path80"
         style="fill:#149ca3;fill-opacity:1;fill-rule:nonzero;stroke:none"
         d="m 350.668,91.504 c 0,0.191 -0.152,0.34 -0.34,0.34 -0.187,0 -0.34,-0.149 -0.34,-0.34 0,-0.188 0.153,-0.34 0.34,-0.34 0.188,0 0.34,0.152 0.34,0.34 z" /><path
         id="path82"
         style="fill:#149ca3;fill-opacity:1;fill-rule:nonzero;stroke:none"
         d="m 353.047,91.504 c 0,0.191 -0.152,0.34 -0.34,0.34 -0.187,0 -0.34,-0.149 -0.34,-0.34 0,-0.188 0.153,-0.34 0.34,-0.34 0.188,0 0.34,0.152 0.34,0.34 z" /><path
         id="path84"
         style="fill:#149ca3;fill-opacity:1;fill-rule:nonzero;stroke:none"
         d="m 348.289,92.781 c 0,0.188 -0.152,0.34 -0.34,0.34 -0.187,0 -0.34,-0.152 -0.34,-0.34 0,-0.187 0.153,-0.34 0.34,-0.34 0.188,0 0.34,0.153 0.34,0.34 z" /><path
         id="path86"
         style="fill:#149ca3;fill-opacity:1;fill-rule:nonzero;stroke:none"
         d="m 350.668,92.781 c 0,0.188 -0.152,0.34 -0.34,0.34 -0.187,0 -0.34,-0.152 -0.34,-0.34 0,-0.187 0.153,-0.34 0.34,-0.34 0.188,0 0.34,0.153 0.34,0.34 z" /><path
         id="path88"
         style="fill:#149ca3;fill-opacity:1;fill-rule:nonzero;stroke:none"
         d="m 353.047,92.781 c 0,0.188 -0.152,0.34 -0.34,0.34 -0.187,0 -0.34,-0.152 -0.34,-0.34 0,-0.187 0.153,-0.34 0.34,-0.34 0.188,0 0.34,0.153 0.34,0.34 z" /><path
         id="path90"
         style="fill:#149ca3;fill-opacity:1;fill-rule:nonzero;stroke:none"
         d="m 348.289,94.055 c 0,0.187 -0.152,0.34 -0.34,0.34 -0.187,0 -0.34,-0.153 -0.34,-0.34 0,-0.188 0.153,-0.34 0.34,-0.34 0.188,0 0.34,0.152 0.34,0.34 z" /><path
         id="path92"
         style="fill:#149ca3;fill-opacity:1;fill-rule:nonzero;stroke:none"
         d="m 350.668,94.055 c 0,0.187 -0.152,0.34 -0.34,0.34 -0.187,0 -0.34,-0.153 -0.34,-0.34 0,-0.188 0.153,-0.34 0.34,-0.34 0.188,0 0.34,0.152 0.34,0.34 z" /><path
         id="path94"
         style="fill:#149ca3;fill-opacity:1;fill-rule:nonzero;stroke:none"
         d="m 353.047,94.055 c 0,0.187 -0.152,0.34 -0.34,0.34 -0.187,0 -0.34,-0.153 -0.34,-0.34 0,-0.188 0.153,-0.34 0.34,-0.34 0.188,0 0.34,0.152 0.34,0.34 z" /><path
         id="path96"
         style="fill:#149ca3;fill-opacity:1;fill-rule:nonzero;stroke:none"
         d="m 348.289,95.328 c 0,0.192 -0.152,0.344 -0.34,0.344 -0.187,0 -0.34,-0.152 -0.34,-0.344 0,-0.187 0.153,-0.34 0.34,-0.34 0.188,0 0.34,0.153 0.34,0.34 z" /><path
         id="path98"
         style="fill:#149ca3;fill-opacity:1;fill-rule:nonzero;stroke:none"
         d="m 350.668,95.328 c 0,0.192 -0.152,0.344 -0.34,0.344 -0.187,0 -0.34,-0.152 -0.34,-0.344 0,-0.187 0.153,-0.34 0.34,-0.34 0.188,0 0.34,0.153 0.34,0.34 z" /><path
         id="path100"
         style="fill:#149ca3;fill-opacity:1;fill-rule:nonzero;stroke:none"
         d="m 353.047,95.328 c 0,0.192 -0.152,0.344 -0.34,0.344 -0.187,0 -0.34,-0.152 -0.34,-0.344 0,-0.187 0.153,-0.34 0.34,-0.34 0.188,0 0.34,0.153 0.34,0.34 z" /><path
         id="path102"
         style="fill:#149ca3;fill-opacity:1;fill-rule:nonzero;stroke:none"
         d="m 370.723,96.094 c -0.082,0 -0.168,0 -0.254,-0.082 -0.168,-0.172 -0.168,-0.426 0,-0.512 1.273,-1.273 1.273,-3.316 0,-4.504 -0.168,-0.172 -0.168,-0.426 0,-0.512 0.172,-0.168 0.426,-0.168 0.511,0 1.528,1.532 1.528,4.082 0,5.61 -0.085,-0.082 -0.171,0 -0.257,0 z" /><path
         id="path104"
         style="fill:#149ca3;fill-opacity:1;fill-rule:nonzero;stroke:none"
         d="m 371.742,98.898 c -0.082,0 -0.168,0 -0.254,-0.082 -0.168,-0.171 -0.168,-0.425 0,-0.511 1.36,-1.36 2.125,-3.231 2.125,-5.184 0,-1.957 -0.765,-3.738 -2.125,-5.101 -0.168,-0.168 -0.168,-0.422 0,-0.508 0.172,-0.172 0.426,-0.172 0.512,0 1.527,1.531 2.379,3.57 2.379,5.695 0,2.121 -0.852,4.164 -2.379,5.691 -0.086,0 -0.172,0 -0.258,0 z" /><path
         id="path106"
         style="fill:#149ca3;fill-opacity:1;fill-rule:nonzero;stroke:none"
         d="m 373.273,101.789 c -0.085,0 -0.168,0 -0.253,-0.086 -0.172,-0.168 -0.172,-0.426 0,-0.508 2.125,-2.125 3.312,-5.015 3.312,-7.988 0,-3.062 -1.187,-5.867 -3.312,-7.992 -0.172,-0.168 -0.172,-0.422 0,-0.508 0.168,-0.172 0.425,-0.172 0.507,0 2.297,2.293 3.571,5.355 3.571,8.582 0,3.231 -1.274,6.289 -3.571,8.586 -0.082,-0.086 -0.168,-0.086 -0.254,-0.086 z" /><path
         id="path108"
         style="fill:#3a556a;fill-opacity:1;fill-rule:nonzero;stroke:none"
         d="m 216.105,98.934 h -21.312 c 0.195,0.402 0.383,0.824 0.59,1.203 2.543,4.664 5.82,7.476 9.394,7.476 h 21.325 c -3.868,0 -7.379,-3.312 -9.997,-8.679 z" /><path
         id="path110"
         style="fill:#64798a;fill-opacity:1;fill-rule:nonzero;stroke:none"
         d="m 277.562,82.457 h -0.867 v -3.301 c 0,-0.164 -0.133,-0.297 -0.297,-0.297 h -12.543 c -0.164,0 -0.296,0.133 -0.296,0.297 v 3.301 h -0.871 v -3.301 c 0,-0.644 0.523,-1.168 1.167,-1.168 h 12.543 c 0.641,0 1.164,0.524 1.164,1.168 z" /><path
         id="path112"
         style="fill:#d5d6db;fill-opacity:1;fill-rule:nonzero;stroke:none"
         d="m 235.586,81.148 h 42.918 l -2.477,5.868 h -40.441 z" /><path
         id="path114"
         style="fill:#64798a;fill-opacity:1;fill-rule:nonzero;stroke:none"
         d="m 240.742,75.527 c 0,17.723 -6.554,32.086 -14.644,32.086 -8.094,0 -14.649,-14.363 -14.649,-32.086 0,-17.718 6.555,-32.086 14.649,-32.086 8.09,0 14.644,14.368 14.644,32.086 z" /><path
         id="path116"
         style="fill:#3a556a;fill-opacity:1;fill-rule:nonzero;stroke:none"
         d="m 235.582,75.527 c 0,12.664 -4.246,22.93 -9.484,22.93 -5.243,0 -9.489,-10.266 -9.489,-22.93 0,-12.664 4.246,-22.929 9.489,-22.929 5.238,0 9.484,10.265 9.484,22.929 z" /><path
         id="path118"
         style="fill:#ffffff;fill-opacity:1;fill-rule:nonzero;stroke:none"
         d="m 233.887,75.527 c 0,10.961 -3.489,19.848 -7.789,19.848 -4.305,0 -7.793,-8.887 -7.793,-19.848 0,-10.961 3.488,-19.843 7.793,-19.843 4.3,0 7.789,8.882 7.789,19.843 z" /><path
         id="path120"
         style="fill:#e1e6e9;fill-opacity:1;fill-rule:nonzero;stroke:none"
         d="m 195.383,50.922 h -1.121 c -6.207,0 -11.235,11.016 -11.235,24.605 0,13.59 5.028,24.61 11.235,24.61 h 1.121 c -3.211,-5.887 -5.25,-14.723 -5.25,-24.61 0,-9.882 2.039,-18.722 5.25,-24.605 z" /><path
         id="path122"
         style="fill:#ebf0f3;fill-opacity:1;fill-rule:nonzero;stroke:none"
         d="m 262.156,81.148 h -43.523 c 0.246,2.125 0.629,4.106 1.121,5.868 h 39.922 z" /><path
         id="path124"
         style="fill:#64798a;fill-opacity:1;fill-rule:nonzero;stroke:none"
         d="m 276.367,81.148 c 0,1.102 -2.781,1.993 -6.207,1.993 -3.426,0 -6.207,-0.891 -6.207,-1.993" /><path
         id="path126"
         style="fill:#64798a;fill-opacity:1;fill-rule:nonzero;stroke:none"
         d="m 239.777,87.016 h 34.297 v 16.844 h -34.297 z" /><path
         id="path128"
         style="fill:#2f4859;fill-opacity:1;fill-rule:nonzero;stroke:none"
         d="m 237.797,103.859 h 38.277 v 1.719 h -38.277 z" /><path
         id="path130"
         style="fill:#3a556a;fill-opacity:1;fill-rule:nonzero;stroke:none"
         d="m 195.758,107.613 h -6.371 c -0.922,0 -1.672,-0.746 -1.672,-1.672 V 95.703 h 8.043 z" /><path
         id="path132"
         style="fill:#3a556a;fill-opacity:1;fill-rule:nonzero;stroke:none"
         d="m 251.367,105.574 c 0,1.129 -0.914,2.039 -2.039,2.039 -1.125,0 -2.039,-0.91 -2.039,-2.039" /><path
         id="path134"
         style="fill:#64798a;fill-opacity:1;fill-rule:nonzero;stroke:none"
         d="m 245.75,105.574 c 0,1.129 -0.914,2.039 -2.039,2.039 -1.125,0 -2.039,-0.91 -2.039,-2.039" /><path
         id="path136"
         style="fill:#3a556a;fill-opacity:1;fill-rule:nonzero;stroke:none"
         d="m 273.273,105.574 c 0,1.129 -0.914,2.039 -2.039,2.039 -1.125,0 -2.039,-0.91 -2.039,-2.039" /><path
         id="path138"
         style="fill:#64798a;fill-opacity:1;fill-rule:nonzero;stroke:none"
         d="m 267.656,105.574 c 0,1.129 -0.914,2.039 -2.039,2.039 -1.125,0 -2.039,-0.91 -2.039,-2.039" /><path
         id="path140"
         style="fill:#64798a;fill-opacity:1;fill-rule:nonzero;stroke:none"
         d="m 214.414,107.613 h -19.742 v -8.679 h 21.41 v 7.007 c 0,0.926 -0.746,1.672 -1.668,1.672 z" /><path
         id="path142"
         style="fill:#ebf0f3;fill-opacity:1;fill-rule:nonzero;stroke:none"
         d="m 211.457,75.527 c 0,-17.718 6.555,-32.086 14.645,-32.086 h -21.325 c -3.574,0 -6.851,2.813 -9.394,7.481 -3.211,5.883 -5.25,14.723 -5.25,24.605 0,9.25 1.801,17.551 4.66,23.407 h 21.312 C 213.25,93.078 211.457,84.77 211.457,75.527 Z" /><path
         id="path144"
         style="fill:#e6e9ed;fill-opacity:1;fill-rule:nonzero;stroke:none"
         d="m 470.188,55.648 v 2.528 c 0,0.429 0.351,0.781 0.781,0.781 h 12.726 c 0.43,0 0.782,-0.352 0.782,-0.781 v -2.528 z" /><g
         id="g146"><g
           id="g148" /><g
           id="g160"><g
             style="opacity:0.1"
             id="g158"
             clip-path="url(#clipPath152)"><g
               id="g156"><path
                 id="path154"
                 style="fill:#000000;fill-opacity:1;fill-rule:nonzero;stroke:none"
                 d="m 473.469,58.176 v -2.528 h -3.281 v 2.528 c 0,0.429 0.351,0.781 0.781,0.781 h 3.285 c -0.43,0 -0.785,-0.352 -0.785,-0.781 z" /></g></g></g></g><path
         id="path162"
         style="fill:#9ea7af;fill-opacity:1;fill-rule:nonzero;stroke:none"
         d="m 462.746,101.809 v 5.363 c 0,0.43 0.352,0.781 0.781,0.781 h 36.391 c 0.43,0 0.781,-0.351 0.781,-0.781 v -5.363 z" /><g
         id="g164"><g
           id="g166" /><g
           id="g178"><g
             style="opacity:0.1"
             id="g176"
             clip-path="url(#clipPath170)"><g
               id="g174"><path
                 id="path172"
                 style="fill:#000000;fill-opacity:1;fill-rule:nonzero;stroke:none"
                 d="m 467.629,107.172 v -5.363 h -4.883 v 5.363 c 0,0.43 0.352,0.781 0.781,0.781 h 4.883 c -0.43,0 -0.781,-0.351 -0.781,-0.781 z" /></g></g></g></g><path
         id="path180"
         style="fill:#a2dff9;fill-opacity:1;fill-rule:nonzero;stroke:none"
         d="m 450.133,97.852 v 4.125 h 53.879 c 0.859,0 1.562,-0.704 1.562,-1.567 v -2.047 c 0,-0.179 -0.031,-0.351 -0.09,-0.511 z" /><path
         id="path182"
         style="fill:#48c1e1;fill-opacity:1;fill-rule:nonzero;stroke:none"
         d="m 456.102,93.117 h 11.113 c 0.492,-0.265 0.828,-0.785 0.828,-1.379 v -1.035 c 0,-0.859 -0.703,-1.566 -1.563,-1.566 h -9.644 c -0.859,0 -1.563,0.707 -1.563,1.566 v 1.035 c 0,0.598 0.336,1.114 0.829,1.379 z" /><g
         id="g184"><g
           id="g186" /><g
           id="g198"><g
             style="opacity:0.1"
             id="g196"
             clip-path="url(#clipPath190)"><g
               id="g194"><path
                 id="path192"
                 style="fill:#000000;fill-opacity:1;fill-rule:nonzero;stroke:none"
                 d="m 456.102,93.117 h 3.203 c -0.493,-0.265 -0.828,-0.785 -0.828,-1.379 v -1.035 c 0,-0.859 0.703,-1.566 1.562,-1.566 h -3.203 c -0.859,0 -1.563,0.707 -1.563,1.566 v 1.035 c 0,0.598 0.336,1.114 0.829,1.379 z" /></g></g></g></g><path
         id="path200"
         style="fill:#c5ccd3;fill-opacity:1;fill-rule:nonzero;stroke:none"
         d="m 514.258,92.922 h -64.125 v 5.172 h 64.125 c 0.859,0 1.562,-0.703 1.562,-1.563 v -2.047 c 0,-0.859 -0.703,-1.562 -1.562,-1.562 z" /><path
         id="path202"
         style="fill:#fcdb67;fill-opacity:1;fill-rule:nonzero;stroke:none"
         d="m 477.332,70.305 c -2.574,0 -5.043,-0.813 -6.953,-2.289 -0.5,-0.383 -0.59,-1.098 -0.207,-1.598 0.387,-0.496 1.101,-0.59 1.598,-0.203 1.515,1.172 3.492,1.816 5.562,1.816 2.07,0 4.047,-0.644 5.563,-1.816 0.496,-0.383 1.21,-0.293 1.597,0.203 0.383,0.5 0.293,1.215 -0.207,1.598 -1.91,1.476 -4.383,2.289 -6.953,2.289 z" /><path
         id="path204"
         style="fill:#fcdb67;fill-opacity:1;fill-rule:nonzero;stroke:none"
         d="m 477.332,74.945 c -3.617,0 -7.16,-1.062 -9.977,-2.996 -0.519,-0.355 -0.652,-1.062 -0.296,-1.582 0.355,-0.519 1.066,-0.652 1.582,-0.297 2.441,1.676 5.527,2.602 8.691,2.602 3.164,0 6.25,-0.926 8.691,-2.602 0.52,-0.355 1.227,-0.222 1.582,0.297 0.356,0.52 0.223,1.227 -0.293,1.582 -2.82,1.934 -6.363,2.996 -9.98,2.996 z" /><path
         id="path206"
         style="fill:#ffc502;fill-opacity:1;fill-rule:nonzero;stroke:none"
         d="m 477.332,65.664 c -1.598,0 -3.09,-0.684 -4,-1.832 -0.391,-0.492 -0.305,-1.211 0.188,-1.598 0.492,-0.39 1.207,-0.308 1.597,0.184 0.481,0.609 1.309,0.973 2.215,0.973 0.906,0 1.734,-0.364 2.215,-0.973 0.391,-0.492 1.105,-0.574 1.598,-0.184 0.492,0.387 0.578,1.106 0.187,1.598 -0.91,1.148 -2.402,1.832 -4,1.832 z" /><path
         id="path208"
         style="fill:#a2dff9;fill-opacity:1;fill-rule:nonzero;stroke:none"
         d="m 467.219,50.672 v 4.375 c 0,0.43 0.351,0.785 0.781,0.785 h 18.664 c 0.43,0 0.781,-0.355 0.781,-0.785 v -4.375 z" /><g
         id="g210"><g
           id="g212" /><g
           id="g224"><g
             style="opacity:0.1"
             id="g222"
             clip-path="url(#clipPath216)"><g
               id="g220"><path
                 id="path218"
                 style="fill:#000000;fill-opacity:1;fill-rule:nonzero;stroke:none"
                 d="m 472.125,55.047 v -4.375 h -4.906 v 4.375 c 0,0.43 0.351,0.785 0.781,0.785 h 4.906 c -0.429,-0.004 -0.781,-0.355 -0.781,-0.785 z" /></g></g></g></g><path
         id="path226"
         style="fill:#e6e9ed;fill-opacity:1;fill-rule:nonzero;stroke:none"
         d="m 438.883,107.953 c -0.418,0 -0.758,-0.34 -0.758,-0.762 V 44.598 c 0,-0.825 0.668,-1.493 1.492,-1.493 h 49.309 c 0.824,0 1.496,0.668 1.496,1.493 v 4.781 c 0,0.824 -0.672,1.496 -1.496,1.496 h -33.02 c -3.051,0 -5.531,2.48 -5.531,5.527 v 50.789 c 0,0.422 -0.34,0.762 -0.758,0.762 z" /><path
         id="path228"
         style="fill:#f7931e;fill-opacity:1;fill-rule:nonzero;stroke:none"
         d="m 486.062,48.059 h -0.39 c -0.629,0 -1.137,-0.512 -1.137,-1.141 0,-0.629 0.508,-1.137 1.137,-1.137 h 0.39 c 0.629,0 1.137,0.508 1.137,1.137 0,0.629 -0.508,1.141 -1.137,1.141 z" /><path
         id="path230"
         style="fill:#368c0e;fill-opacity:1;fill-rule:nonzero;stroke:none"
         d="m 482.492,48.059 h -0.387 c -0.628,0 -1.14,-0.512 -1.14,-1.141 0,-0.629 0.512,-1.137 1.14,-1.137 h 0.387 c 0.629,0 1.141,0.508 1.141,1.137 0,0.629 -0.512,1.141 -1.141,1.141 z" /><path
         id="path232"
         style="fill:#ef5050;fill-opacity:1;fill-rule:nonzero;stroke:none"
         d="m 478.926,48.059 h -0.391 c -0.629,0 -1.137,-0.512 -1.137,-1.141 0,-0.629 0.508,-1.137 1.137,-1.137 h 0.391 c 0.629,0 1.136,0.508 1.136,1.137 0,0.629 -0.507,1.141 -1.136,1.141 z" /><path
         id="path234"
         style="fill:#ff4500;fill-opacity:0.42537303;fill-rule:nonzero;stroke:none"
         d="m 3.004,335.516 h 105.133 c 0.386,0 0.695,0.308 0.695,0.695 v 45.734 c 0,0.387 -0.309,0.696 -0.695,0.696 H 3.004 c -0.383,0 -0.695,-0.309 -0.695,-0.696 v -45.734 c 0,-0.387 0.312,-0.695 0.695,-0.695 z" /><g
         id="g236"><path
           id="path238"
           style="fill:none;stroke:#fcffff;stroke-width:1.78394699;stroke-linecap:butt;stroke-linejoin:miter;stroke-miterlimit:4;stroke-dasharray:none;stroke-opacity:1"
           d="m 3.004,335.516 h 105.133 c 0.386,0 0.695,0.308 0.695,0.695 v 45.734 c 0,0.387 -0.309,0.696 -0.695,0.696 H 3.004 c -0.383,0 -0.695,-0.309 -0.695,-0.696 v -45.734 c 0,-0.387 0.312,-0.695 0.695,-0.695 z" /></g><path
         id="path240"
         style="fill:#cdd4d5;fill-opacity:1;fill-rule:nonzero;stroke:none"
         d="M 35.262,363.434 24.016,352.188 c -0.192,-0.192 -0.5,-0.192 -0.692,0 l -1.844,1.843 c -0.093,0.09 -0.144,0.215 -0.144,0.344 0,0.129 0.051,0.254 0.144,0.348 l 11.247,11.246 c 0.093,0.093 0.218,0.144 0.347,0.144 0.129,0 0.254,-0.051 0.344,-0.144 l 1.844,-1.844 c 0.191,-0.191 0.191,-0.5 0,-0.691 z" /><path
         id="path242"
         style="fill:#cdd4d5;fill-opacity:1;fill-rule:nonzero;stroke:none"
         d="m 25.676,347.945 -4.242,-4.242 c -0.192,-0.187 -0.5,-0.187 -0.692,0 l -1.844,1.844 c -0.191,0.191 -0.191,0.504 0,0.691 l 3.157,3.16 -3.364,3.364 -3.156,-3.157 c -0.191,-0.191 -0.504,-0.191 -0.691,0 L 13,351.449 c -0.191,0.192 -0.191,0.5 0,0.692 l 4.238,4.242 c 0.094,0.09 0.219,0.14 0.348,0.14 0.016,0 0.027,0 0.043,0 l 4.059,-0.371 c 0.113,-0.007 0.218,-0.058 0.3,-0.14 l 3.317,-3.317 c 0.082,-0.082 0.133,-0.187 0.144,-0.304 l 0.367,-4.055 c 0.012,-0.145 -0.039,-0.289 -0.14,-0.391 z" /><path
         id="path244"
         style="fill:#ffffff;fill-opacity:1;fill-rule:nonzero;stroke:none"
         d="m 22.812,348.109 c -0.124,0 -0.25,-0.047 -0.347,-0.144 l -1.301,-1.305 c -0.191,-0.187 -0.191,-0.5 0,-0.691 0.188,-0.188 0.5,-0.188 0.691,0 l 1.301,1.304 c 0.192,0.192 0.192,0.5 0,0.692 -0.094,0.097 -0.218,0.144 -0.344,0.144 z" /><path
         id="path246"
         style="fill:#cdd4d5;fill-opacity:1;fill-rule:nonzero;stroke:none"
         d="m 43.746,366.016 -4.242,-4.243 c -0.102,-0.101 -0.246,-0.152 -0.391,-0.14 l -4.054,0.371 c -0.114,0.008 -0.223,0.058 -0.301,0.141 l -3.32,3.316 c -0.083,0.082 -0.133,0.187 -0.141,0.305 l -0.371,4.054 c -0.012,0.145 0.039,0.289 0.144,0.391 l 4.239,4.242 c 0.097,0.094 0.222,0.141 0.347,0.141 0.125,0 0.25,-0.047 0.344,-0.141 l 1.844,-1.844 c 0.191,-0.191 0.191,-0.504 0,-0.691 l -3.156,-3.16 3.363,-3.363 3.16,3.156 c 0.191,0.191 0.5,0.191 0.691,0 l 1.844,-1.844 c 0.192,-0.191 0.192,-0.5 0,-0.691 z" /><path
         id="path248"
         style="fill:#687f82;fill-opacity:1;fill-rule:nonzero;stroke:none"
         d="m 22.434,353.078 -0.954,0.953 c -0.093,0.09 -0.144,0.215 -0.144,0.344 0,0.129 0.051,0.254 0.144,0.348 l 11.247,11.246 c 0.093,0.093 0.218,0.144 0.347,0.144 0.129,0 0.254,-0.051 0.344,-0.144 l 0.953,-0.953 z" /><path
         id="path250"
         style="fill:#9baaab;fill-opacity:1;fill-rule:nonzero;stroke:none"
         d="m 20.406,351.047 -1.715,1.715 -3.156,-3.157 c -0.191,-0.191 -0.504,-0.191 -0.691,0 L 13,351.449 c -0.191,0.192 -0.191,0.5 0,0.692 l 4.238,4.242 c 0.094,0.09 0.219,0.14 0.348,0.14 0.016,0 0.027,0 0.043,0 l 4.059,-0.371 c 0.113,-0.007 0.218,-0.058 0.3,-0.14 l 1.692,-1.692 z" /><path
         id="path252"
         style="fill:#9baaab;fill-opacity:1;fill-rule:nonzero;stroke:none"
         d="m 31.438,365.461 c -0.083,0.082 -0.133,0.187 -0.141,0.305 l -0.371,4.054 c -0.012,0.145 0.039,0.289 0.144,0.391 l 4.239,4.242 c 0.097,0.094 0.222,0.141 0.347,0.141 0.125,0 0.25,-0.047 0.344,-0.141 l 1.844,-1.844 c 0.191,-0.191 0.191,-0.504 0,-0.691 l -3.156,-3.16 1.714,-1.715 -3.273,-3.27 z" /><path
         id="path254"
         style="fill:#cdd4d5;fill-opacity:1;fill-rule:nonzero;stroke:none"
         d="m 34.816,352.32 -1.472,-1.472 c -0.192,-0.192 -0.5,-0.192 -0.692,0 l -9.773,9.773 c -0.191,0.188 -0.191,0.5 0,0.691 l 1.476,1.473 c 0.094,0.098 0.219,0.145 0.344,0.145 0.125,0 0.25,-0.047 0.348,-0.145 l 9.769,-9.773 c 0.192,-0.192 0.192,-0.5 0,-0.692 z" /><path
         id="path256"
         style="fill:#cdd4d5;fill-opacity:1;fill-rule:nonzero;stroke:none"
         d="m 40.902,346.238 -1.472,-1.476 c -0.145,-0.145 -0.364,-0.184 -0.551,-0.098 l -4.055,1.844 c -0.054,0.023 -0.101,0.054 -0.144,0.097 l -3.133,3.137 c -0.192,0.188 -0.192,0.5 0,0.692 l 3.687,3.687 c 0.094,0.094 0.219,0.141 0.344,0.141 0.125,0 0.25,-0.047 0.348,-0.141 l 3.133,-3.137 c 0.043,-0.039 0.074,-0.089 0.101,-0.144 l 1.844,-4.055 c 0.082,-0.187 0.043,-0.402 -0.102,-0.547 z" /><path
         id="path258"
         style="fill:#fd6a33;fill-opacity:1;fill-rule:nonzero;stroke:none"
         d="m 24.859,365.598 -4.793,-4.793 c -0.191,-0.192 -0.5,-0.192 -0.691,0 l -5.715,5.715 c -0.191,0.191 -0.191,0.5 0,0.691 l 4.793,4.793 c 0.098,0.098 0.223,0.144 0.348,0.144 0.125,0 0.25,-0.046 0.344,-0.144 l 5.714,-5.715 c 0.192,-0.191 0.192,-0.5 0,-0.691 z" /><path
         id="path260"
         style="fill:#ff8c29;fill-opacity:1;fill-rule:nonzero;stroke:none"
         d="m 20.066,360.805 c -0.191,-0.192 -0.5,-0.192 -0.691,0 l -5.715,5.715 c -0.191,0.191 -0.191,0.5 0,0.691 l 2.375,2.379 6.41,-6.41 z" /><path
         id="path262"
         style="fill:#365558;fill-opacity:1;fill-rule:nonzero;stroke:none"
         d="m 16.402,369.953 -0.691,-0.691 6.406,-6.407 0.692,0.692 z" /><path
         id="path264"
         style="fill:#365558;fill-opacity:1;fill-rule:nonzero;stroke:none"
         d="m 17.879,371.059 -0.691,-0.692 6.222,-6.222 0.692,0.691 z" /><path
         id="path266"
         style="fill:#687f82;fill-opacity:1;fill-rule:nonzero;stroke:none"
         d="m 15.297,368.48 -0.692,-0.691 6.223,-6.223 0.692,0.692 z" /><path
         id="path268"
         style="fill:#687f82;fill-opacity:1;fill-rule:nonzero;stroke:none"
         d="m 22.445,363.18 -6.41,6.406 -0.324,-0.324 6.406,-6.407 z" /><path
         id="path270"
         style="fill:#687f82;fill-opacity:1;fill-rule:nonzero;stroke:none"
         d="m 34.059,351.562 -10.461,10.465 0.757,0.758 c 0.094,0.098 0.219,0.145 0.344,0.145 0.125,0 0.25,-0.047 0.348,-0.145 l 9.769,-9.773 c 0.192,-0.192 0.192,-0.5 0,-0.692 z" /><path
         id="path272"
         style="fill:#9baaab;fill-opacity:1;fill-rule:nonzero;stroke:none"
         d="m 40.145,345.48 -6.778,6.774 1.867,1.867 c 0.094,0.094 0.219,0.141 0.344,0.141 0.125,0 0.25,-0.047 0.348,-0.141 l 3.133,-3.137 c 0.043,-0.039 0.074,-0.089 0.101,-0.144 l 1.844,-4.055 c 0.082,-0.187 0.043,-0.402 -0.102,-0.547 z" /><path
         id="path274"
         style="fill:#ff8c29;fill-opacity:1;fill-rule:nonzero;stroke:none"
         d="m 17.141,373.07 c 0.082,0 0.16,-0.019 0.238,-0.062 l 1.656,-0.922 -5.457,-5.457 -0.922,1.66 c -0.105,0.188 -0.074,0.426 0.082,0.582 l 4.055,4.055 c 0.094,0.094 0.219,0.144 0.348,0.144 z" /><path
         id="path276"
         style="fill:#ffd1a9;fill-opacity:1;fill-rule:nonzero;stroke:none"
         d="m 13.578,366.629 -0.922,1.66 c -0.105,0.188 -0.074,0.426 0.082,0.582 l 2.008,2.008 1.539,-1.543 z" /><path
         id="path278"
         style="fill:#ff8c29;fill-opacity:1;fill-rule:nonzero;stroke:none"
         d="m 22.648,359.699 c -0.14,-0.144 -0.355,-0.183 -0.539,-0.105 l -2.582,1.105 5.438,5.438 1.105,-2.582 c 0.078,-0.184 0.039,-0.399 -0.101,-0.539 z" /><path
         id="path280"
         style="fill:#ffd1a9;fill-opacity:1;fill-rule:nonzero;stroke:none"
         d="m 22.648,359.699 c -0.14,-0.144 -0.355,-0.183 -0.539,-0.105 l -2.582,1.105 2.7,2.699 2.062,-2.062 z" /><path
         id="path282"
         style="fill:#ffffff;fill-opacity:1;fill-rule:nonzero;stroke:none"
         d="m 34.207,350.605 c -0.125,0 -0.254,-0.05 -0.348,-0.144 -0.191,-0.191 -0.191,-0.5 0,-0.691 l 1.567,-1.563 c 0.187,-0.191 0.5,-0.191 0.691,0 0.188,0.188 0.188,0.5 0,0.691 l -1.566,1.563 c -0.094,0.094 -0.219,0.144 -0.344,0.144 z" /><text
         id="text288"
         style="font-variant:normal;font-weight:bold;font-size:11.99999905px;font-family:'DejaVu Sans';-inkscape-font-specification:DejaVuSans-Bold;writing-mode:lr-tb;fill:#000000;fill-opacity:1;fill-rule:nonzero;stroke:none"
         transform="translate(40.191604,358.67338)"><tspan
           id="tspan284"
           y="0"
           x="0 9.9599991 14.063999 21.167997 29.411997 37.691998 46.271996 50.375996">Dicoogle</tspan><tspan
           id="tspan286"
           y="13.258211"
           x="8.4852829 17.125282 27.085281">SDK</tspan></text>
<path
         id="path290"
         style="fill:#008000;fill-opacity:0.42537303;fill-rule:nonzero;stroke:none"
         d="m 125.391,228.75 h 110.203 c 0.386,0 0.695,0.312 0.695,0.695 v 45.696 c 0,0.386 -0.309,0.695 -0.695,0.695 H 125.391 c -0.387,0 -0.696,-0.309 -0.696,-0.695 v -45.696 c 0,-0.383 0.309,-0.695 0.696,-0.695 z" /><g
         id="g292"><path
           id="path294"
           style="fill:none;stroke:#fcffff;stroke-width:1.82511497;stroke-linecap:butt;stroke-linejoin:miter;stroke-miterlimit:4;stroke-dasharray:none;stroke-opacity:1"
           d="m 125.391,228.75 h 110.203 c 0.386,0 0.695,0.312 0.695,0.695 v 45.696 c 0,0.386 -0.309,0.695 -0.695,0.695 H 125.391 c -0.387,0 -0.696,-0.309 -0.696,-0.695 v -45.696 c 0,-0.383 0.309,-0.695 0.696,-0.695 z" /></g><text
         id="text298"
         style="font-variant:normal;font-weight:bold;font-size:11.99999905px;font-family:'DejaVu Sans';-inkscape-font-specification:DejaVuSans-Bold;writing-mode:lr-tb;fill:#000000;fill-opacity:1;fill-rule:nonzero;stroke:none"
         transform="translate(141.67073,248.517)"><tspan
           id="tspan296"
           y="0"
           x="0 4.4639997 13.739999 18.203999 22.379997 26.843998 39.371998 47.459995 56.039997 64.175995 68.639992">JAI ImageIO</tspan></text>
<text
         id="text302"
         style="font-style:oblique;font-variant:normal;font-size:10px;font-family:'DejaVu Sans Condensed';-inkscape-font-specification:DejaVuSansCondensed-Oblique;writing-mode:lr-tb;fill:#000000;fill-opacity:1;fill-rule:nonzero;stroke:none"
         transform="translate(165.65315,262.60344)"><tspan
           id="tspan300"
           y="0"
           x="0 4.25 9.75 15.25 17.75 22.950001 25.450001">Toolkit</tspan></text>
<text
         id="text306"
         style="font-variant:normal;font-weight:bold;font-size:11.99999905px;font-family:'DejaVu Sans';-inkscape-font-specification:DejaVuSans-Bold;writing-mode:lr-tb;fill:#000000;fill-opacity:1;fill-rule:nonzero;stroke:none"
         transform="translate(256.24689,250.23741)"><tspan
           id="tspan304"
           y="0"
           x="0 9.9599991 14.423999 23.219997 33.419998 45.359997 49.535995 58.175995 68.135994">DICOM SDK</tspan></text>
<text
         id="text310"
         style="font-style:oblique;font-variant:normal;font-size:10px;font-family:'DejaVu Sans Condensed';-inkscape-font-specification:DejaVuSansCondensed-Oblique;writing-mode:lr-tb;fill:#000000;fill-opacity:1;fill-rule:nonzero;stroke:none"
         transform="translate(275.04229,263.11386)"><tspan
           id="tspan308"
           y="0"
           x="0 5.71 10.65 19.41 25.129999 30.07 35.77">dcm4che</tspan></text>
<text
         id="text314"
         style="font-variant:normal;font-weight:bold;font-size:11.99999905px;font-family:'DejaVu Sans';-inkscape-font-specification:DejaVuSans-Bold;writing-mode:lr-tb;fill:#000000;fill-opacity:1;fill-rule:nonzero;stroke:none"
         transform="translate(358.39091,249.83247)"><tspan
           id="tspan312"
           y="0"
           x="0 12.815999 20.951998 29.531998 33.707996 42.347996 50.483997 56.399994 64.211998 68.351997 75.455994 83.591995">Web Services</tspan></text>
<text
         id="text318"
         style="font-style:oblique;font-variant:normal;font-size:10px;font-family:'DejaVu Sans Condensed';-inkscape-font-specification:DejaVuSansCondensed-Oblique;writing-mode:lr-tb;fill:#000000;fill-opacity:1;fill-rule:nonzero;stroke:none"
         transform="translate(376.66433,261.2465)"><tspan
           id="tspan316"
           y="0"
           x="0 2.6500001 8.1800003 11.7 15.25 20.57 23.6 29.85 35.380001 40.060001 43.610001 46.110001 51.639999">Jetty/Restlet</tspan></text>
<path
         id="path320"
         style="fill:#c2d700;fill-opacity:0.42537303;fill-rule:nonzero;stroke:none"
         d="m 124.664,279.594 h 334.52 c 0.199,0 0.355,0.156 0.355,0.351 v 30.649 c 0,0.195 -0.156,0.355 -0.355,0.355 h -334.52 c -0.199,0 -0.355,-0.16 -0.355,-0.355 v -30.649 c 0,-0.195 0.156,-0.351 0.355,-0.351 z" /><g
         id="g322"><path
           id="path324"
           style="fill:none;stroke:#fcffff;stroke-width:1.94797897;stroke-linecap:butt;stroke-linejoin:miter;stroke-miterlimit:4;stroke-dasharray:none;stroke-opacity:1"
           d="m 124.664,279.594 h 334.52 c 0.199,0 0.355,0.156 0.355,0.351 v 30.649 c 0,0.195 -0.156,0.355 -0.355,0.355 h -334.52 c -0.199,0 -0.355,-0.16 -0.355,-0.355 v -30.649 c 0,-0.195 0.156,-0.351 0.355,-0.351 z" /></g><text
         id="text328"
         style="font-variant:normal;font-weight:bold;font-size:11.99999905px;font-family:'DejaVu Sans';-inkscape-font-specification:DejaVuSans-Bold;writing-mode:lr-tb;fill:#000000;fill-opacity:1;fill-rule:nonzero;stroke:none"
         transform="translate(191.69,299.5551)"><tspan
           id="tspan326"
           y="0"
           x="0 9.9599991 14.063999 21.167997 29.411997 37.691998 46.271996 50.375996 58.511993 62.687996 71.927994 80.459991 88.991989 94.763992 98.867989 111.35999 119.49599 123.67199 131.11198 137.02798 145.11598 157.64398 165.77998 176.85599 185.09999 191.01599">Dicoogle Runtime Framework</tspan></text>
<path
         id="path330"
         style="fill:#df9775;fill-opacity:0.51865701;fill-rule:nonzero;stroke:none"
         d="m 124.668,335.949 h 73.109 c 0.125,0 0.231,0.102 0.231,0.227 v 27.554 c 0,0.125 -0.106,0.227 -0.231,0.227 h -73.109 c -0.125,0 -0.227,-0.102 -0.227,-0.227 v -27.554 c 0,-0.125 0.102,-0.227 0.227,-0.227 z" /><g
         id="g332"><path
           id="path334"
           style="fill:none;stroke:#fcffff;stroke-width:2.21391106;stroke-linecap:butt;stroke-linejoin:miter;stroke-miterlimit:4;stroke-dasharray:none;stroke-opacity:1"
           d="m 124.668,335.949 h 73.109 c 0.125,0 0.231,0.102 0.231,0.227 v 27.554 c 0,0.125 -0.106,0.227 -0.231,0.227 h -73.109 c -0.125,0 -0.227,-0.102 -0.227,-0.227 v -27.554 c 0,-0.125 0.102,-0.227 0.227,-0.227 z" /></g><path
         id="path336"
         style="fill:#ffffff;fill-opacity:1;fill-rule:nonzero;stroke:none"
         d="m 131.113,350.867 h 66.785 c 0.059,0 0.11,0.047 0.11,0.106 v 12.879 c 0,0.058 -0.051,0.105 -0.11,0.105 h -66.785 c -0.058,0 -0.109,-0.047 -0.109,-0.105 v -12.879 c 0,-0.059 0.051,-0.106 0.109,-0.106 z" /><path
         id="path338"
         style="fill:#df9876;fill-opacity:0.79104501;fill-rule:nonzero;stroke:none"
         d="m 131.234,350.867 h 73.106 c 0.129,0 0.23,0.102 0.23,0.227 v 27.554 c 0,0.125 -0.101,0.227 -0.23,0.227 h -73.106 c -0.129,0 -0.23,-0.102 -0.23,-0.227 v -27.554 c 0,-0.125 0.101,-0.227 0.23,-0.227 z" /><path
         id="path340"
         style="fill:#df9775;fill-opacity:0.51865701;fill-rule:nonzero;stroke:none"
         d="m 208.836,335.949 h 73.105 c 0.129,0 0.231,0.102 0.231,0.227 v 27.554 c 0,0.125 -0.102,0.227 -0.231,0.227 h -73.105 c -0.129,0 -0.231,-0.102 -0.231,-0.227 v -27.554 c 0,-0.125 0.102,-0.227 0.231,-0.227 z" /><g
         id="g342"><path
           id="path344"
           style="fill:none;stroke:#fcffff;stroke-width:2.21391106;stroke-linecap:butt;stroke-linejoin:miter;stroke-miterlimit:4;stroke-dasharray:none;stroke-opacity:1"
           d="m 208.836,335.949 h 73.105 c 0.129,0 0.231,0.102 0.231,0.227 v 27.554 c 0,0.125 -0.102,0.227 -0.231,0.227 h -73.105 c -0.129,0 -0.231,-0.102 -0.231,-0.227 v -27.554 c 0,-0.125 0.102,-0.227 0.231,-0.227 z" /></g><path
         id="path346"
         style="fill:#ffffff;fill-opacity:1;fill-rule:nonzero;stroke:none"
         d="m 215.277,350.867 h 66.789 c 0.059,0 0.106,0.047 0.106,0.106 v 12.879 c 0,0.058 -0.047,0.105 -0.106,0.105 h -66.789 c -0.058,0 -0.105,-0.047 -0.105,-0.105 v -12.879 c 0,-0.059 0.047,-0.106 0.105,-0.106 z" /><path
         id="path348"
         style="fill:#df9876;fill-opacity:0.79104501;fill-rule:nonzero;stroke:none"
         d="m 215.402,350.867 h 73.106 c 0.129,0 0.23,0.102 0.23,0.227 v 27.554 c 0,0.125 -0.101,0.227 -0.23,0.227 h -73.106 c -0.129,0 -0.23,-0.102 -0.23,-0.227 v -27.554 c 0,-0.125 0.101,-0.227 0.23,-0.227 z" /><path
         id="path350"
         style="fill:#df9775;fill-opacity:0.51865701;fill-rule:nonzero;stroke:none"
         d="m 293.004,335.949 h 73.105 c 0.129,0 0.231,0.102 0.231,0.227 v 27.554 c 0,0.125 -0.102,0.227 -0.231,0.227 h -73.105 c -0.129,0 -0.231,-0.102 -0.231,-0.227 v -27.554 c 0,-0.125 0.102,-0.227 0.231,-0.227 z" /><g
         id="g352"><path
           id="path354"
           style="fill:none;stroke:#fcffff;stroke-width:2.21391106;stroke-linecap:butt;stroke-linejoin:miter;stroke-miterlimit:4;stroke-dasharray:none;stroke-opacity:1"
           d="m 293.004,335.949 h 73.105 c 0.129,0 0.231,0.102 0.231,0.227 v 27.554 c 0,0.125 -0.102,0.227 -0.231,0.227 h -73.105 c -0.129,0 -0.231,-0.102 -0.231,-0.227 v -27.554 c 0,-0.125 0.102,-0.227 0.231,-0.227 z" /></g><path
         id="path356"
         style="fill:#ffffff;fill-opacity:1;fill-rule:nonzero;stroke:none"
         d="m 299.445,350.867 h 66.785 c 0.063,0 0.11,0.047 0.11,0.106 v 12.879 c 0,0.058 -0.047,0.105 -0.11,0.105 h -66.785 c -0.058,0 -0.109,-0.047 -0.109,-0.105 v -12.879 c 0,-0.059 0.051,-0.106 0.109,-0.106 z" /><path
         id="path358"
         style="fill:#df9876;fill-opacity:0.79104501;fill-rule:nonzero;stroke:none"
         d="m 299.566,350.867 h 73.11 c 0.125,0 0.226,0.102 0.226,0.227 v 27.554 c 0,0.125 -0.101,0.227 -0.226,0.227 h -73.11 c -0.125,0 -0.23,-0.102 -0.23,-0.227 v -27.554 c 0,-0.125 0.105,-0.227 0.23,-0.227 z" /><path
         id="path360"
         style="fill:#ffffff;fill-opacity:1;fill-rule:nonzero;stroke:none"
         d="m 383.609,350.867 h 66.789 c 0.059,0 0.106,0.047 0.106,0.106 v 12.879 c 0,0.058 -0.047,0.105 -0.106,0.105 h -66.789 c -0.058,0 -0.105,-0.047 -0.105,-0.105 v -12.879 c 0,-0.059 0.047,-0.106 0.105,-0.106 z" /><text
         id="text366"
         style="font-variant:normal;font-weight:bold;font-size:8.45291996px;font-family:'DejaVu Sans';-inkscape-font-specification:DejaVuSans-Bold;writing-mode:lr-tb;fill:#000000;fill-opacity:1;fill-rule:nonzero;stroke:none"
         transform="translate(154.25418,368.02272)"><tspan
           id="tspan362"
           y="0"
           x="0 3.1444862 9.1545124 15.223709 20.954788">Index</tspan><tspan
           id="tspan364"
           y="-0.92661756"
           x="83.254028 90.439011 96.449036 102.18011 106.3474 162.93124 169.01735 173.05785 178.86501 183.05765 188.75491 194.79875">QueryStorage</tspan></text>
<path
         id="path368"
         style="fill:#bc8f8f;fill-opacity:0.45149303;fill-rule:nonzero;stroke:none"
         d="m 209.926,403.918 h 73.902 c 0.129,0 0.231,0.129 0.231,0.285 v 34.516 c 0,0.156 -0.102,0.285 -0.231,0.285 h -73.902 c -0.125,0 -0.231,-0.129 -0.231,-0.285 v -34.516 c 0,-0.156 0.106,-0.285 0.231,-0.285 z" /><g
         transform="scale(0.806966,1)"
         id="g370"><path
           id="path372"
           style="fill:none;stroke:#fcffff;stroke-width:2.77329206;stroke-linecap:butt;stroke-linejoin:miter;stroke-miterlimit:4;stroke-dasharray:none;stroke-opacity:1"
           d="m 260.142,403.918 h 91.58 c 0.16,0 0.286,0.129 0.286,0.285 v 34.516 c 0,0.156 -0.126,0.285 -0.286,0.285 h -91.58 c -0.155,0 -0.286,-0.129 -0.286,-0.285 v -34.516 c 0,-0.156 0.131,-0.285 0.286,-0.285 z" /></g><path
         id="path374"
         style="fill:#ffffff;fill-opacity:1;fill-rule:nonzero;stroke:none"
         d="m 216.441,422.605 h 67.512 c 0.059,0 0.106,0.059 0.106,0.133 v 16.133 c 0,0.074 -0.047,0.133 -0.106,0.133 h -67.512 c -0.062,0 -0.109,-0.059 -0.109,-0.133 v -16.133 c 0,-0.074 0.047,-0.133 0.109,-0.133 z" /><path
         id="path376"
         style="fill:#bc8f8f;fill-opacity:0.79104501;fill-rule:nonzero;stroke:none"
         d="m 216.562,422.605 h 73.903 c 0.129,0 0.23,0.129 0.23,0.286 v 34.515 c 0,0.16 -0.101,0.285 -0.23,0.285 h -73.903 c -0.128,0 -0.23,-0.125 -0.23,-0.285 v -34.515 c 0,-0.157 0.102,-0.286 0.23,-0.286 z" /><path
         id="path378"
         style="fill:#bc8f8f;fill-opacity:0.45149303;fill-rule:nonzero;stroke:none"
         d="m 295.172,403.918 h 73.898 c 0.129,0 0.235,0.129 0.235,0.285 v 34.516 c 0,0.156 -0.106,0.285 -0.235,0.285 h -73.898 c -0.129,0 -0.234,-0.129 -0.234,-0.285 v -34.516 c 0,-0.156 0.105,-0.285 0.234,-0.285 z" /><g
         transform="scale(0.806966,1)"
         id="g380"><path
           id="path382"
           style="fill:none;stroke:#fcffff;stroke-width:2.77329206;stroke-linecap:butt;stroke-linejoin:miter;stroke-miterlimit:4;stroke-dasharray:none;stroke-opacity:1"
           d="m 365.78,403.918 h 91.575 c 0.16,0 0.291,0.129 0.291,0.285 v 34.516 c 0,0.156 -0.131,0.285 -0.291,0.285 H 365.78 c -0.16,0 -0.291,-0.129 -0.291,-0.285 v -34.516 c 0,-0.156 0.131,-0.285 0.291,-0.285 z" /></g><path
         id="path384"
         style="fill:#ffffff;fill-opacity:1;fill-rule:nonzero;stroke:none"
         d="m 301.684,422.605 h 67.511 c 0.059,0 0.11,0.059 0.11,0.133 v 16.133 c 0,0.074 -0.051,0.133 -0.11,0.133 h -67.511 c -0.063,0 -0.11,-0.059 -0.11,-0.133 v -16.133 c 0,-0.074 0.047,-0.133 0.11,-0.133 z" /><path
         id="path386"
         style="fill:#bc8f8f;fill-opacity:0.79104501;fill-rule:nonzero;stroke:none"
         d="m 301.805,422.605 h 73.902 c 0.129,0 0.231,0.129 0.231,0.286 v 34.515 c 0,0.16 -0.102,0.285 -0.231,0.285 h -73.902 c -0.125,0 -0.231,-0.125 -0.231,-0.285 v -34.515 c 0,-0.157 0.106,-0.286 0.231,-0.286 z" /><path
         id="path388"
         style="fill:#bc8f8f;fill-opacity:0.45149303;fill-rule:nonzero;stroke:none"
         d="m 380.414,403.918 h 73.902 c 0.125,0 0.231,0.129 0.231,0.285 v 34.516 c 0,0.156 -0.106,0.285 -0.231,0.285 h -73.902 c -0.129,0 -0.23,-0.129 -0.23,-0.285 v -34.516 c 0,-0.156 0.101,-0.285 0.23,-0.285 z" /><g
         transform="scale(0.806966,1)"
         id="g390"><path
           id="path392"
           style="fill:none;stroke:#fcffff;stroke-width:2.77329206;stroke-linecap:butt;stroke-linejoin:miter;stroke-miterlimit:4;stroke-dasharray:none;stroke-opacity:1"
           d="m 471.413,403.918 h 91.58 c 0.155,0 0.286,0.129 0.286,0.285 v 34.516 c 0,0.156 -0.131,0.285 -0.286,0.285 h -91.58 c -0.16,0 -0.286,-0.129 -0.286,-0.285 v -34.516 c 0,-0.156 0.126,-0.285 0.286,-0.285 z" /></g><path
         id="path394"
         style="fill:#ffffff;fill-opacity:1;fill-rule:nonzero;stroke:none"
         d="m 386.926,422.605 h 67.512 c 0.062,0 0.109,0.059 0.109,0.133 v 16.133 c 0,0.074 -0.047,0.133 -0.109,0.133 h -67.512 c -0.059,0 -0.11,-0.059 -0.11,-0.133 v -16.133 c 0,-0.074 0.051,-0.133 0.11,-0.133 z" /><path
         id="path396"
         style="fill:#bc8f8f;fill-opacity:0.79104501;fill-rule:nonzero;stroke:none"
         d="m 386.68,422.605 h 73.898 c 0.129,0 0.234,0.129 0.234,0.286 v 34.515 c 0,0.16 -0.105,0.285 -0.234,0.285 H 386.68 c -0.129,0 -0.235,-0.125 -0.235,-0.285 v -34.515 c 0,-0.157 0.106,-0.286 0.235,-0.286 z" /><text
         id="text400"
         style="font-variant:normal;font-weight:bold;font-size:8.55789661px;font-family:'DejaVu Sans';-inkscape-font-specification:DejaVuSans-Bold;writing-mode:lr-tb;fill:#000000;fill-opacity:1;fill-rule:nonzero;stroke:none"
         transform="translate(238.8885,433.07104)"><tspan
           id="tspan398"
           y="0"
           x="0 7.2742124 13.358877 19.161131 23.380175">Query</tspan></text>
<text
         id="text406"
         style="font-style:oblique;font-variant:normal;font-size:7.70210695px;font-family:'DejaVu Sans';-inkscape-font-specification:DejaVuSans-Oblique;writing-mode:lr-tb;fill:#000000;fill-opacity:1;fill-rule:nonzero;stroke:none"
         transform="translate(228.10213,443.10163)"><tspan
           id="tspan402"
           y="0"
           x="0 3.0038216 7.7406178 10.182185 15.065321 17.506889 19.948458 24.238531 29.113964 33.365528 38.102322 42.977757 47.714554 50.15612">(e.g. Lucene, </tspan><tspan
           id="tspan404"
           y="9.4606905"
           x="11.344441 17.105618 21.811605 26.69474 32.756298 37.046371">NoSQL)</tspan></text>
<path
         id="path408"
         style="fill:#bc8f8f;fill-opacity:0.45149303;fill-rule:nonzero;stroke:none"
         d="m 124.684,403.918 h 73.902 c 0.129,0 0.23,0.129 0.23,0.285 v 34.516 c 0,0.156 -0.101,0.285 -0.23,0.285 h -73.902 c -0.129,0 -0.231,-0.129 -0.231,-0.285 v -34.516 c 0,-0.156 0.102,-0.285 0.231,-0.285 z" /><g
         transform="scale(0.806966,1)"
         id="g410"><path
           id="path412"
           style="fill:none;stroke:#fcffff;stroke-width:2.77329206;stroke-linecap:butt;stroke-linejoin:miter;stroke-miterlimit:4;stroke-dasharray:none;stroke-opacity:1"
           d="m 154.509,403.918 h 91.58 c 0.16,0 0.286,0.129 0.286,0.285 v 34.516 c 0,0.156 -0.126,0.285 -0.286,0.285 h -91.58 c -0.16,0 -0.286,-0.129 -0.286,-0.285 v -34.516 c 0,-0.156 0.126,-0.285 0.286,-0.285 z" /></g><path
         id="path414"
         style="fill:#ffffff;fill-opacity:1;fill-rule:nonzero;stroke:none"
         d="m 131.195,422.605 h 67.516 c 0.059,0 0.105,0.059 0.105,0.133 v 16.133 c 0,0.074 -0.046,0.133 -0.105,0.133 h -67.516 c -0.058,0 -0.105,-0.059 -0.105,-0.133 v -16.133 c 0,-0.074 0.047,-0.133 0.105,-0.133 z" /><path
         id="path416"
         style="fill:#bc8f8f;fill-opacity:0.79104501;fill-rule:nonzero;stroke:none"
         d="m 131.32,422.605 h 73.903 c 0.129,0 0.23,0.129 0.23,0.286 v 34.515 c 0,0.16 -0.101,0.285 -0.23,0.285 H 131.32 c -0.129,0 -0.23,-0.125 -0.23,-0.285 v -34.515 c 0,-0.157 0.101,-0.286 0.23,-0.286 z" /><text
         id="text420"
         style="font-variant:normal;font-weight:bold;font-size:8.55789661px;font-family:'DejaVu Sans';-inkscape-font-specification:DejaVuSans-Bold;writing-mode:lr-tb;fill:#000000;fill-opacity:1;fill-rule:nonzero;stroke:none"
         transform="translate(147.28129,433.18386)"><tspan
           id="tspan418"
           y="0"
           x="0 3.1835377 9.2682028 15.412772 21.215027 26.734871 29.661671 35.746334">Indexing</tspan></text>
<text
         id="text428"
         style="font-style:oblique;font-variant:normal;font-size:7.70210695px;font-family:'DejaVu Sans';-inkscape-font-specification:DejaVuSans-Oblique;writing-mode:lr-tb;fill:#000000;fill-opacity:1;fill-rule:nonzero;stroke:none"
         transform="translate(142.85902,443.13923)"><tspan
           id="tspan422"
           y="0"
           x="0 3.0038216 7.7406178 10.182185 15.065321 17.506889 19.948458 24.238531 29.113964 33.365528 38.102322 42.977757 47.714554 50.15612">(e.g. Lucene, </tspan><tspan
           id="tspan424"
           y="9.4606905"
           x="11.344434 17.10561 21.811596 26.694733 32.75629 37.046364">NoSQL)</tspan><tspan
           id="tspan426"
           y="3.3018394"
           x="243.27472 246.27853 251.01534 253.45689 258.34003 260.78162 263.22318 270.83286 275.56964 280.45279 282.89435 287.7775 292.51428 295.70297 300.25491 302.3884 306.61685 311.35364 315.35873">(e.g. Web Services)</tspan></text>
<text
         id="text434"
         style="font-variant:normal;font-weight:bold;font-size:8.55789661px;font-family:'DejaVu Sans';-inkscape-font-specification:DejaVuSans-Bold;writing-mode:lr-tb;fill:#000000;fill-opacity:1;fill-rule:nonzero;stroke:none"
         transform="translate(394.76685,438.75603)"><tspan
           id="tspan430"
           y="0"
           x="0 7.1030545 12.871078 17.963026 24.047691 30.192261 36.071537 41.839558 46.084274 52.203171">Dashboards</tspan><tspan
           id="tspan432"
           y="-0.54427624"
           x="-73.797127 -67.635437 -63.544765 -57.665489 -53.446445 -47.652748 -41.533852">Storage</tspan></text>
<text
         id="text438"
         style="font-style:oblique;font-variant:normal;font-size:7.70210695px;font-family:'DejaVu Sans';-inkscape-font-specification:DejaVuSans-Oblique;writing-mode:lr-tb;fill:#000000;fill-opacity:1;fill-rule:nonzero;stroke:none"
         transform="translate(310.53215,446.83493)"><tspan
           id="tspan436"
           y="0"
           x="0 3.0038216 7.7406178 10.182185 15.065321 17.506889 19.948458 25.87908 29.044645 33.750633 38.63377 43.516903 48.222893 52.774837 55.77866">(e.g. Dropbox) </tspan></text>
<path
         id="path440"
         style="fill:#20b2aa;fill-opacity:0.45149303;fill-rule:nonzero;stroke:none"
         d="m 473.043,330.75 h 86.223 c 0.187,0 0.336,0.148 0.336,0.336 v 40.328 c 0,0.188 -0.149,0.336 -0.336,0.336 h -86.223 c -0.188,0 -0.336,-0.148 -0.336,-0.336 v -40.328 c 0,-0.188 0.148,-0.336 0.336,-0.336 z" /><g
         id="g442"><path
           id="path444"
           style="fill:none;stroke:#fcffff;stroke-width:2.91109395;stroke-linecap:butt;stroke-linejoin:miter;stroke-miterlimit:4;stroke-dasharray:none;stroke-opacity:1"
           d="m 473.043,330.75 h 86.223 c 0.187,0 0.336,0.148 0.336,0.336 v 40.328 c 0,0.188 -0.149,0.336 -0.336,0.336 h -86.223 c -0.188,0 -0.336,-0.148 -0.336,-0.336 v -40.328 c 0,-0.188 0.148,-0.336 0.336,-0.336 z" /></g><path
         id="path446"
         style="fill:#ffffff;fill-opacity:1;fill-rule:nonzero;stroke:none"
         d="m 480.652,348.086 h 78.754 c 0.11,0 0.196,0.086 0.196,0.195 v 23.278 c 0,0.105 -0.086,0.191 -0.196,0.191 h -78.754 c -0.105,0 -0.191,-0.086 -0.191,-0.191 v -23.278 c 0,-0.109 0.086,-0.195 0.191,-0.195 z" /><path
         id="path448"
         style="fill:#008b8b;fill-opacity:0.79104501;fill-rule:nonzero;stroke:none"
         d="m 480.797,348.086 h 86.223 c 0.187,0 0.335,0.152 0.335,0.336 v 40.328 c 0,0.188 -0.148,0.336 -0.335,0.336 h -86.223 c -0.188,0 -0.336,-0.148 -0.336,-0.336 v -40.328 c 0,-0.184 0.148,-0.336 0.336,-0.336 z" /><text
         id="text454"
         style="font-variant:normal;font-weight:bold;font-size:9px;font-family:'DejaVu Sans';-inkscape-font-specification:DejaVuSans-Bold;writing-mode:lr-tb;fill:#fff5ee;fill-opacity:1;fill-rule:nonzero;stroke:none"
         transform="translate(505.40412,365.11074)"><tspan
           id="tspan450"
           y="0"
           x="0 9.6120005 15.714 22.149 25.281 32.589001 35.937">Web UI </tspan><tspan
           id="tspan452"
           y="12.470607"
           x="-0.45165059 6.1363492 9.2143497 15.613349 22.048349 25.153349 31.552349">Plugins</tspan></text>
<g
         id="g456"><path
           id="path458"
           style="fill:none;stroke:#000000;stroke-width:1.11418796;stroke-linecap:butt;stroke-linejoin:miter;stroke-miterlimit:4;stroke-dasharray:none;stroke-opacity:1"
           d="m 161.223,315.906 v 13.449" /></g><g
         transform="rotate(90)"
         id="g460"><path
           id="path462"
           style="fill:#000000;fill-opacity:1;fill-rule:evenodd;stroke:#000000;stroke-width:0.29711699;stroke-linecap:butt;stroke-linejoin:miter;stroke-miterlimit:4;stroke-dasharray:none;stroke-opacity:1"
           d="m 317.246,-161.223 1.113,-1.113 -3.898,1.113 3.898,1.114 z" /></g><g
         transform="rotate(-90)"
         id="g464"><path
           id="path466"
           style="fill:#000000;fill-opacity:1;fill-rule:evenodd;stroke:#000000;stroke-width:0.29711699;stroke-linecap:butt;stroke-linejoin:miter;stroke-miterlimit:4;stroke-dasharray:none;stroke-opacity:1"
           d="m -328.02,161.223 1.114,-1.114 -3.899,1.114 3.899,1.113 z" /></g><g
         id="g468"><path
           id="path470"
           style="fill:none;stroke:#000000;stroke-width:1.11418796;stroke-linecap:butt;stroke-linejoin:miter;stroke-miterlimit:4;stroke-dasharray:none;stroke-opacity:1"
           d="m 245.391,315.906 v 13.449" /></g><g
         transform="rotate(90)"
         id="g472"><path
           id="path474"
           style="fill:#000000;fill-opacity:1;fill-rule:evenodd;stroke:#000000;stroke-width:0.29711699;stroke-linecap:butt;stroke-linejoin:miter;stroke-miterlimit:4;stroke-dasharray:none;stroke-opacity:1"
           d="m 317.246,-245.391 1.113,-1.113 -3.898,1.113 3.898,1.114 z" /></g><g
         transform="rotate(-90)"
         id="g476"><path
           id="path478"
           style="fill:#000000;fill-opacity:1;fill-rule:evenodd;stroke:#000000;stroke-width:0.29711699;stroke-linecap:butt;stroke-linejoin:miter;stroke-miterlimit:4;stroke-dasharray:none;stroke-opacity:1"
           d="m -328.02,245.391 1.114,-1.114 -3.899,1.114 3.899,1.113 z" /></g><g
         id="g480"><path
           id="path482"
           style="fill:none;stroke:#000000;stroke-width:1.11418796;stroke-linecap:butt;stroke-linejoin:miter;stroke-miterlimit:4;stroke-dasharray:none;stroke-opacity:1"
           d="m 329.555,315.906 v 13.449" /></g><g
         transform="rotate(90)"
         id="g484"><path
           id="path486"
           style="fill:#000000;fill-opacity:1;fill-rule:evenodd;stroke:#000000;stroke-width:0.29711699;stroke-linecap:butt;stroke-linejoin:miter;stroke-miterlimit:4;stroke-dasharray:none;stroke-opacity:1"
           d="m 317.246,-329.555 1.113,-1.117 -3.898,1.117 3.898,1.114 z" /></g><g
         transform="rotate(-90)"
         id="g488"><path
           id="path490"
           style="fill:#000000;fill-opacity:1;fill-rule:evenodd;stroke:#000000;stroke-width:0.29711699;stroke-linecap:butt;stroke-linejoin:miter;stroke-miterlimit:4;stroke-dasharray:none;stroke-opacity:1"
           d="m -328.02,329.555 1.114,-1.114 -3.899,1.114 3.899,1.117 z" /></g><g
         id="g492"><path
           id="path494"
           style="fill:none;stroke:#000000;stroke-width:1.11418796;stroke-linecap:butt;stroke-linejoin:miter;stroke-miterlimit:4;stroke-dasharray:none;stroke-opacity:1"
           d="m 413.723,315.906 v 13.449" /></g><g
         transform="rotate(90)"
         id="g496"><path
           id="path498"
           style="fill:#000000;fill-opacity:1;fill-rule:evenodd;stroke:#000000;stroke-width:0.29711699;stroke-linecap:butt;stroke-linejoin:miter;stroke-miterlimit:4;stroke-dasharray:none;stroke-opacity:1"
           d="m 317.246,-413.723 1.113,-1.113 -3.898,1.113 3.898,1.114 z" /></g><g
         transform="rotate(-90)"
         id="g500"><path
           id="path502"
           style="fill:#000000;fill-opacity:1;fill-rule:evenodd;stroke:#000000;stroke-width:0.29711699;stroke-linecap:butt;stroke-linejoin:miter;stroke-miterlimit:4;stroke-dasharray:none;stroke-opacity:1"
           d="m -328.02,413.723 1.114,-1.114 -3.899,1.114 3.899,1.113 z" /></g><g
         id="g504"><path
           id="path506"
           style="fill:none;stroke:#000000;stroke-width:1.12802505;stroke-linecap:butt;stroke-linejoin:miter;stroke-miterlimit:4;stroke-dasharray:none;stroke-opacity:1"
           d="m 161.242,387.012 v 13.613" /></g><g
         transform="rotate(90)"
         id="g508"><path
           id="path510"
           style="fill:#000000;fill-opacity:1;fill-rule:evenodd;stroke:#000000;stroke-width:0.300807;stroke-linecap:butt;stroke-linejoin:miter;stroke-miterlimit:4;stroke-dasharray:none;stroke-opacity:1"
           d="m 388.363,-161.242 1.129,-1.125 -3.945,1.125 3.945,1.129 z" /></g><g
         transform="rotate(-90)"
         id="g512"><path
           id="path514"
           style="fill:#000000;fill-opacity:1;fill-rule:evenodd;stroke:#000000;stroke-width:0.300807;stroke-linecap:butt;stroke-linejoin:miter;stroke-miterlimit:4;stroke-dasharray:none;stroke-opacity:1"
           d="m -399.273,161.242 1.128,-1.129 -3.949,1.129 3.949,1.125 z" /></g><g
         id="g516"><path
           id="path518"
           style="fill:none;stroke:#000000;stroke-width:1.12802505;stroke-linecap:butt;stroke-linejoin:miter;stroke-miterlimit:4;stroke-dasharray:none;stroke-opacity:1"
           d="m 246.453,387.012 v 13.613" /></g><g
         transform="rotate(90)"
         id="g520"><path
           id="path522"
           style="fill:#000000;fill-opacity:1;fill-rule:evenodd;stroke:#000000;stroke-width:0.300807;stroke-linecap:butt;stroke-linejoin:miter;stroke-miterlimit:4;stroke-dasharray:none;stroke-opacity:1"
           d="m 388.363,-246.453 1.129,-1.129 -3.945,1.129 3.945,1.129 z" /></g><g
         transform="rotate(-90)"
         id="g524"><path
           id="path526"
           style="fill:#000000;fill-opacity:1;fill-rule:evenodd;stroke:#000000;stroke-width:0.300807;stroke-linecap:butt;stroke-linejoin:miter;stroke-miterlimit:4;stroke-dasharray:none;stroke-opacity:1"
           d="m -399.273,246.453 1.128,-1.129 -3.949,1.129 3.949,1.129 z" /></g><g
         id="g528"><path
           id="path530"
           style="fill:none;stroke:#000000;stroke-width:1.12802505;stroke-linecap:butt;stroke-linejoin:miter;stroke-miterlimit:4;stroke-dasharray:none;stroke-opacity:1"
           d="m 331.664,387.012 v 13.613" /></g><g
         transform="rotate(90)"
         id="g532"><path
           id="path534"
           style="fill:#000000;fill-opacity:1;fill-rule:evenodd;stroke:#000000;stroke-width:0.300807;stroke-linecap:butt;stroke-linejoin:miter;stroke-miterlimit:4;stroke-dasharray:none;stroke-opacity:1"
           d="m 388.363,-331.664 1.129,-1.129 -3.945,1.129 3.945,1.129 z" /></g><g
         transform="rotate(-90)"
         id="g536"><path
           id="path538"
           style="fill:#000000;fill-opacity:1;fill-rule:evenodd;stroke:#000000;stroke-width:0.300807;stroke-linecap:butt;stroke-linejoin:miter;stroke-miterlimit:4;stroke-dasharray:none;stroke-opacity:1"
           d="m -399.273,331.664 1.128,-1.129 -3.949,1.129 3.949,1.129 z" /></g><g
         id="g540"><path
           id="path542"
           style="fill:none;stroke:#000000;stroke-width:1.12802505;stroke-linecap:butt;stroke-linejoin:miter;stroke-miterlimit:4;stroke-dasharray:none;stroke-opacity:1"
           d="m 416.875,387.012 v 13.613" /></g><g
         transform="rotate(90)"
         id="g544"><path
           id="path546"
           style="fill:#000000;fill-opacity:1;fill-rule:evenodd;stroke:#000000;stroke-width:0.300807;stroke-linecap:butt;stroke-linejoin:miter;stroke-miterlimit:4;stroke-dasharray:none;stroke-opacity:1"
           d="m 388.363,-416.875 1.129,-1.129 -3.945,1.129 3.945,1.129 z" /></g><g
         transform="rotate(-90)"
         id="g548"><path
           id="path550"
           style="fill:#000000;fill-opacity:1;fill-rule:evenodd;stroke:#000000;stroke-width:0.300807;stroke-linecap:butt;stroke-linejoin:miter;stroke-miterlimit:4;stroke-dasharray:none;stroke-opacity:1"
           d="m -399.273,416.875 1.128,-1.129 -3.949,1.129 3.949,1.129 z" /></g><g
         id="g552"><path
           id="path554"
           style="fill:none;stroke:#000000;stroke-width:1.68094504;stroke-linecap:butt;stroke-linejoin:miter;stroke-miterlimit:4;stroke-dasharray:none;stroke-opacity:1"
           d="m 520.625,232.199 v 90.278" /></g><g
         transform="rotate(90)"
         id="g556"><path
           id="path558"
           style="fill:#000000;fill-opacity:1;fill-rule:evenodd;stroke:#000000;stroke-width:0.44825199;stroke-linecap:butt;stroke-linejoin:miter;stroke-miterlimit:4;stroke-dasharray:none;stroke-opacity:1"
           d="m 234.219,-520.625 1.679,-1.684 -5.882,1.684 5.882,1.68 z" /></g><g
         transform="rotate(-90)"
         id="g560"><path
           id="path562"
           style="fill:#000000;fill-opacity:1;fill-rule:evenodd;stroke:#000000;stroke-width:0.44825199;stroke-linecap:butt;stroke-linejoin:miter;stroke-miterlimit:4;stroke-dasharray:none;stroke-opacity:1"
           d="m -320.457,520.625 1.68,-1.68 -5.883,1.68 5.883,1.684 z" /></g><g
         id="g564"><path
           id="path566"
           style="fill:none;stroke:#000000;stroke-width:1.60157502;stroke-linecap:butt;stroke-linejoin:miter;stroke-miterlimit:4;stroke-dasharray:none;stroke-opacity:1"
           d="m 52.816,385.891 v 54.75 h 72.75" /></g><g
         transform="rotate(90)"
         id="g568"><path
           id="path570"
           style="fill:#000000;fill-opacity:1;fill-rule:evenodd;stroke:#000000;stroke-width:0.42708701;stroke-linecap:butt;stroke-linejoin:miter;stroke-miterlimit:4;stroke-dasharray:none;stroke-opacity:1"
           d="m 387.812,-52.816 1.602,-1.602 -5.605,1.602 5.605,1.601 z" /></g><g
         transform="scale(-1)"
         id="g572"><path
           id="path574"
           style="fill:#000000;fill-opacity:1;fill-rule:evenodd;stroke:#000000;stroke-width:0.42708701;stroke-linecap:butt;stroke-linejoin:miter;stroke-miterlimit:4;stroke-dasharray:none;stroke-opacity:1"
           d="m -123.645,-440.641 1.602,-1.601 -5.605,1.601 5.605,1.602 z" /></g><path
         id="path576"
         style="fill:#008000;fill-opacity:0.42537303;fill-rule:nonzero;stroke:none"
         d="m 236.984,228.75 h 110.204 c 0.386,0 0.695,0.312 0.695,0.695 v 45.696 c 0,0.386 -0.309,0.695 -0.695,0.695 H 236.984 c -0.386,0 -0.695,-0.309 -0.695,-0.695 v -45.696 c 0,-0.383 0.309,-0.695 0.695,-0.695 z" /><g
         id="g578"><path
           id="path580"
           style="fill:none;stroke:#fcffff;stroke-width:1.82511497;stroke-linecap:butt;stroke-linejoin:miter;stroke-miterlimit:4;stroke-dasharray:none;stroke-opacity:1"
           d="m 236.984,228.75 h 110.204 c 0.386,0 0.695,0.312 0.695,0.695 v 45.696 c 0,0.386 -0.309,0.695 -0.695,0.695 H 236.984 c -0.386,0 -0.695,-0.309 -0.695,-0.695 v -45.696 c 0,-0.383 0.309,-0.695 0.695,-0.695 z" /></g><path
         id="path582"
         style="fill:#008000;fill-opacity:0.42537303;fill-rule:nonzero;stroke:none"
         d="m 348.578,228.75 h 110.203 c 0.387,0 0.696,0.312 0.696,0.695 v 45.696 c 0,0.386 -0.309,0.695 -0.696,0.695 H 348.578 c -0.383,0 -0.695,-0.309 -0.695,-0.695 v -45.696 c 0,-0.383 0.312,-0.695 0.695,-0.695 z" /><g
         id="g584"><path
           id="path586"
           style="fill:none;stroke:#fcffff;stroke-width:1.82511497;stroke-linecap:butt;stroke-linejoin:miter;stroke-miterlimit:4;stroke-dasharray:none;stroke-opacity:1"
           d="m 348.578,228.75 h 110.203 c 0.387,0 0.696,0.312 0.696,0.695 v 45.696 c 0,0.386 -0.309,0.695 -0.696,0.695 H 348.578 c -0.383,0 -0.695,-0.309 -0.695,-0.695 v -45.696 c 0,-0.383 0.312,-0.695 0.695,-0.695 z" /></g><path
         id="path588"
         style="fill:#bc8f8f;fill-opacity:0.45149303;fill-rule:nonzero;stroke:none"
         d="m 414.93,257.531 h 1.277 c 0.07,0 0.125,0.059 0.125,0.129 0,0.07 -0.055,0.129 -0.125,0.129 h -1.277 c -0.071,0 -0.129,-0.059 -0.129,-0.129 0,-0.07 0.058,-0.129 0.129,-0.129 z" /><path
         id="path590"
         style="fill:#66cdaa;fill-opacity:0.42537303;fill-rule:nonzero;stroke:none"
         d="m 125.207,171.434 h 334.309 c 0.336,0 0.605,0.269 0.605,0.601 v 52.063 c 0,0.332 -0.269,0.601 -0.605,0.601 H 125.207 c -0.336,0 -0.605,-0.269 -0.605,-0.601 v -52.063 c 0,-0.332 0.269,-0.601 0.605,-0.601 z" /><g
         id="g592"><path
           id="path594"
           style="fill:none;stroke:#fcffff;stroke-width:2.53993106;stroke-linecap:butt;stroke-linejoin:miter;stroke-miterlimit:4;stroke-dasharray:none;stroke-opacity:1"
           d="m 125.207,171.434 h 334.309 c 0.336,0 0.605,0.269 0.605,0.601 v 52.063 c 0,0.332 -0.269,0.601 -0.605,0.601 H 125.207 c -0.336,0 -0.605,-0.269 -0.605,-0.601 v -52.063 c 0,-0.332 0.269,-0.601 0.605,-0.601 z" /></g><text
         id="text598"
         style="font-variant:normal;font-weight:bold;font-size:11.99999905px;font-family:'DejaVu Sans';-inkscape-font-specification:DejaVuSans-Bold;writing-mode:lr-tb;fill:#000000;fill-opacity:1;fill-rule:nonzero;stroke:none"
         transform="translate(230.8819,193.36492)"><tspan
           id="tspan596"
           y="0"
           x="0 8.6399994 16.775999 22.691998 30.503998 34.607998 41.747997 49.883995 57.023994 61.199993 65.663994 74.195992 79.931992 88.067993 94.019989 99.23999 107.32799 114.43199">Services Interface</tspan></text>
<g
         id="g600"><text
           id="text604"
           style="font-variant:normal;font-weight:normal;font-size:10px;font-family:'DejaVu Sans';-inkscape-font-specification:DejaVuSans;writing-mode:lr-tb;fill:#000000;fill-opacity:1;fill-rule:nonzero;stroke:none"
           transform="translate(147.2564,209.80514)"><tspan
             id="tspan602"
             y="0"
             x="0 3.9000001 6.8400002 13.17 19.51 25.5 31.41 34.18 40.509998 46.849998 50.02 56.360001 60.279999 66.389999 70.5 76.620003 82.959999 89.110001 92.309998 98.650002 105.63 111.66 114.83 118 125.87 129.25999 136.2 139.37 145.71001 152.69 158.75 161.92 165.09 171.75999 178.10001 184.00999 190.13 196.46001 201.95 208.10001 211.3 217.64 223.78999 229.91 233.81 239.3 245.63 248.83 252 258.62 261.39001 267.54001 275.70999 281.85999 285.97">(Indexing,Storage SCP, Q/R SCP, Advance Search, Viewer)</tspan></text>
<g
           id="g606"><g
             id="g608" /><g
             id="g624"><g
               style="opacity:0.58300003"
               id="g622"
               clip-path="url(#clipPath612)"><g
                 id="g620"><path
                   id="path614"
                   style="fill:#669f97;fill-opacity:0.76119397;fill-rule:nonzero;stroke:none"
                   d="m 465.652,171.484 h 109.95 c 0.332,0 0.601,0.266 0.601,0.598 v 51.969 c 0,0.332 -0.269,0.601 -0.601,0.601 h -109.95 c -0.332,0 -0.601,-0.269 -0.601,-0.601 v -51.969 c 0,-0.332 0.269,-0.598 0.601,-0.598 z" /><g
                   id="g618"><path
                     id="path616"
                     style="fill:none;stroke:#fcffff;stroke-width:1.46059704;stroke-linecap:butt;stroke-linejoin:miter;stroke-miterlimit:4;stroke-dasharray:none;stroke-opacity:1"
                     d="m 465.652,171.484 h 109.95 c 0.332,0 0.601,0.266 0.601,0.598 v 51.969 c 0,0.332 -0.269,0.601 -0.601,0.601 h -109.95 c -0.332,0 -0.601,-0.269 -0.601,-0.601 v -51.969 c 0,-0.332 0.269,-0.598 0.601,-0.598 z" /></g></g></g></g></g></g><text
         id="text632"
         style="font-variant:normal;font-weight:bold;font-size:10.20736217px;font-family:'DejaVu Sans';-inkscape-font-specification:DejaVuSans-Bold;writing-mode:lr-tb;fill:#000000;fill-opacity:1;fill-rule:nonzero;stroke:none"
         transform="translate(516.35036,202.25558)"><tspan
           id="tspan626"
           y="0"
           x="0">+</tspan><tspan
           id="tspan628"
           y="8.7448406"
           x="-23.213276 -12.311813 -5.3912225 5.4592032 12.941199 19.953657 24.985888">WebCore</tspan><tspan
           id="tspan630"
           y="-9.512394"
           x="-21.249554 -10.348091 -3.4274995 3.8707643 7.4229264 15.313217 22.611481">Web App</tspan></text>
<g
         id="g634"><path
           id="path636"
           style="fill:none;stroke:#000000;stroke-width:1.86519694;stroke-linecap:butt;stroke-linejoin:miter;stroke-miterlimit:4;stroke-dasharray:none;stroke-opacity:1"
           d="m 197.484,155.512 v 9.445" /></g><g
         transform="rotate(-90)"
         id="g638"><path
           id="path640"
           style="fill:#000000;fill-opacity:1;fill-rule:evenodd;stroke:#000000;stroke-width:0.49738601;stroke-linecap:butt;stroke-linejoin:miter;stroke-miterlimit:4;stroke-dasharray:none;stroke-opacity:1"
           d="m -162.719,197.484 1.867,-1.863 -6.527,1.863 6.527,1.868 z" /></g><text
         id="text646"
         style="font-variant:normal;font-weight:normal;font-size:8px;font-family:'DejaVu Sans';-inkscape-font-specification:DejaVuSans;writing-mode:lr-tb;fill:#000000;fill-opacity:1;fill-rule:nonzero;stroke:none"
         transform="translate(183.82939,141.92783)"><tspan
           id="tspan642"
           y="0"
           x="0 6.1599998 8.5120001 14.096 20.392">DICOM</tspan><tspan
           id="tspan644"
           y="8.063096"
           x="-13.492184 -11.140184 -6.0761838 -2.9401841 1.979816 5.1158161 10.003816 15.075816 19.995815 23.283815 28.179815 33.251816 35.467815">Interoperable</tspan></text>
<g
         id="g648"><path
           id="path650"
           style="fill:none;stroke:#000000;stroke-width:1.86519694;stroke-linecap:butt;stroke-linejoin:miter;stroke-miterlimit:4;stroke-dasharray:none;stroke-opacity:1"
           d="m 197.484,122.691 v 9.442" /></g><g
         transform="rotate(90)"
         id="g652"><path
           id="path654"
           style="fill:#000000;fill-opacity:1;fill-rule:evenodd;stroke:#000000;stroke-width:0.49738601;stroke-linecap:butt;stroke-linejoin:miter;stroke-miterlimit:4;stroke-dasharray:none;stroke-opacity:1"
           d="m 124.93,-197.484 1.863,-1.868 -6.527,1.868 6.527,1.863 z" /></g><text
         id="text660"
         style="font-variant:normal;font-weight:normal;font-size:8px;font-family:'DejaVu Sans';-inkscape-font-specification:DejaVuSans;writing-mode:lr-tb;fill:#000000;fill-opacity:1;fill-rule:nonzero;stroke:none"
         transform="translate(293.21561,142.1394)"><tspan
           id="tspan656"
           y="0"
           x="0 5.48 11.64 16.712 19.591999">XDS-i</tspan><tspan
           id="tspan658"
           y="8.4021196"
           x="-9.337904 -3.7539041 1.134096 8.926096 13.998096 16.214096 18.430096 23.350096 28.414097">Complient</tspan></text>
<g
         id="g662"><path
           id="path664"
           style="fill:none;stroke:#000000;stroke-width:1.86519694;stroke-linecap:butt;stroke-linejoin:miter;stroke-miterlimit:4;stroke-dasharray:none;stroke-opacity:1"
           d="m 304.473,155.824 v 9.442" /></g><g
         transform="rotate(-90)"
         id="g666"><path
           id="path668"
           style="fill:#000000;fill-opacity:1;fill-rule:evenodd;stroke:#000000;stroke-width:0.49738601;stroke-linecap:butt;stroke-linejoin:miter;stroke-miterlimit:4;stroke-dasharray:none;stroke-opacity:1"
           d="m -163.027,304.473 1.863,-1.864 -6.527,1.864 6.527,1.867 z" /></g><g
         id="g670"><path
           id="path672"
           style="fill:none;stroke:#000000;stroke-width:1.86519694;stroke-linecap:butt;stroke-linejoin:miter;stroke-miterlimit:4;stroke-dasharray:none;stroke-opacity:1"
           d="m 304.473,123 v 9.441" /></g><g
         transform="rotate(90)"
         id="g674"><path
           id="path676"
           style="fill:#000000;fill-opacity:1;fill-rule:evenodd;stroke:#000000;stroke-width:0.49738601;stroke-linecap:butt;stroke-linejoin:miter;stroke-miterlimit:4;stroke-dasharray:none;stroke-opacity:1"
           d="m 125.238,-304.473 1.867,-1.867 -6.527,1.867 6.527,1.864 z" /></g><text
         id="text682"
         style="font-variant:normal;font-weight:normal;font-size:8px;font-family:'DejaVu Sans';-inkscape-font-specification:DejaVuSans;writing-mode:lr-tb;fill:#000000;fill-opacity:1;fill-rule:nonzero;stroke:none"
         transform="translate(384.83227,143.28834)"><tspan
           id="tspan678"
           y="0"
           x="0 7.4320002 12.352 17.424 19.959999 25.032 29.952 33.240002 37.967999 40.183998 44.576 49.495998">Web Services</tspan><tspan
           id="tspan680"
           y="8.1353998"
           x="20.83592 26.30792 31.13192">API</tspan></text>
<g
         id="g684"><path
           id="path686"
           style="fill:none;stroke:#000000;stroke-width:1.86519694;stroke-linecap:butt;stroke-linejoin:miter;stroke-miterlimit:4;stroke-dasharray:none;stroke-opacity:1"
           d="m 411.637,156.008 v 9.441" /></g><g
         transform="rotate(-90)"
         id="g688"><path
           id="path690"
           style="fill:#000000;fill-opacity:1;fill-rule:evenodd;stroke:#000000;stroke-width:0.49738601;stroke-linecap:butt;stroke-linejoin:miter;stroke-miterlimit:4;stroke-dasharray:none;stroke-opacity:1"
           d="m -163.211,411.637 1.863,-1.867 -6.527,1.867 6.527,1.863 z" /></g><g
         id="g692"><path
           id="path694"
           style="fill:none;stroke:#000000;stroke-width:1.86519694;stroke-linecap:butt;stroke-linejoin:miter;stroke-miterlimit:4;stroke-dasharray:none;stroke-opacity:1"
           d="m 411.637,123.184 v 9.441" /></g><g
         transform="rotate(90)"
         id="g696"><path
           id="path698"
           style="fill:#000000;fill-opacity:1;fill-rule:evenodd;stroke:#000000;stroke-width:0.49738601;stroke-linecap:butt;stroke-linejoin:miter;stroke-miterlimit:4;stroke-dasharray:none;stroke-opacity:1"
           d="m 125.422,-411.637 1.867,-1.863 -6.527,1.863 6.527,1.867 z" /></g><text
         id="text704"
         style="font-variant:normal;font-weight:normal;font-size:8px;font-family:'DejaVu Sans';-inkscape-font-specification:DejaVuSans;writing-mode:lr-tb;fill:#000000;fill-opacity:1;fill-rule:nonzero;stroke:none"
         transform="translate(511.77515,141.58914)"><tspan
           id="tspan700"
           y="0"
           x="0 7.4320002 12.352 17.424">Web </tspan><tspan
           id="tspan702"
           y="8.1353998"
           x="-13.187528 -7.715528 -2.643528 2.428472 4.6444721 6.8604722 11.252472 16.148472 19.284472 21.500471 26.388472">Application</tspan></text>
<g
         id="g706"><path
           id="path708"
           style="fill:none;stroke:#000000;stroke-width:1.86519694;stroke-linecap:butt;stroke-linejoin:miter;stroke-miterlimit:4;stroke-dasharray:none;stroke-opacity:1"
           d="m 520.625,154.309 v 9.441" /></g><g
         transform="rotate(-90)"
         id="g710"><path
           id="path712"
           style="fill:#000000;fill-opacity:1;fill-rule:evenodd;stroke:#000000;stroke-width:0.49738601;stroke-linecap:butt;stroke-linejoin:miter;stroke-miterlimit:4;stroke-dasharray:none;stroke-opacity:1"
           d="m -161.512,520.625 1.864,-1.863 -6.528,1.863 6.528,1.867 z" /></g><g
         id="g714"><path
           id="path716"
           style="fill:none;stroke:#000000;stroke-width:1.86519694;stroke-linecap:butt;stroke-linejoin:miter;stroke-miterlimit:4;stroke-dasharray:none;stroke-opacity:1"
           d="m 520.625,121.484 v 9.442" /></g><g
         transform="rotate(90)"
         id="g718"><path
           id="path720"
           style="fill:#000000;fill-opacity:1;fill-rule:evenodd;stroke:#000000;stroke-width:0.49738601;stroke-linecap:butt;stroke-linejoin:miter;stroke-miterlimit:4;stroke-dasharray:none;stroke-opacity:1"
           d="m 123.723,-520.625 1.867,-1.867 -6.527,1.867 6.527,1.863 z" /></g><path
         id="path722"
         style="fill:#df9876;fill-opacity:0.79104501;fill-rule:nonzero;stroke:none"
         d="m 383.734,350.867 h 73.106 c 0.129,0 0.23,0.102 0.23,0.227 v 27.554 c 0,0.125 -0.101,0.227 -0.23,0.227 h -73.106 c -0.129,0 -0.23,-0.102 -0.23,-0.227 v -27.554 c 0,-0.125 0.101,-0.227 0.23,-0.227 z" /><text
         id="text728"
         style="font-variant:normal;font-weight:bold;font-size:8.45291996px;font-family:'DejaVu Sans';-inkscape-font-specification:DejaVuSans-Bold;writing-mode:lr-tb;fill:#000000;fill-opacity:1;fill-rule:nonzero;stroke:none"
         transform="translate(388.38377,364.27207)"><tspan
           id="tspan724"
           y="0"
           x="0 9.0277185 14.758799 20.802635 23.744253 29.830355 35.561436 39.728725 45.231575 48.147831 53.151962 58.883041">Web Services</tspan><tspan
           id="tspan726"
           y="7.6207976"
           x="24.207277 30.741385 36.928921">API</tspan></text>
<g
         id="g730"><path
           id="path732"
           style="fill:none;stroke:#000000;stroke-width:1.68094504;stroke-linecap:butt;stroke-linejoin:miter;stroke-miterlimit:4;stroke-dasharray:none;stroke-opacity:1"
           d="M 122.484,295.992 H 55.57 v 36.82" /></g><g
         transform="scale(-1)"
         id="g734"><path
           id="path736"
           style="fill:#000000;fill-opacity:1;fill-rule:evenodd;stroke:#000000;stroke-width:0.44825199;stroke-linecap:butt;stroke-linejoin:miter;stroke-miterlimit:4;stroke-dasharray:none;stroke-opacity:1"
           d="m -120.469,-295.992 1.68,-1.684 -5.883,1.684 5.883,1.68 z" /></g><g
         transform="rotate(-90)"
         id="g738"><path
           id="path740"
           style="fill:#000000;fill-opacity:1;fill-rule:evenodd;stroke:#000000;stroke-width:0.44825199;stroke-linecap:butt;stroke-linejoin:miter;stroke-miterlimit:4;stroke-dasharray:none;stroke-opacity:1"
           d="m -330.797,55.57 1.68,-1.679 -5.883,1.679 5.883,1.68 z" /></g></g></g></svg>