<?xml version="1.0" encoding="UTF-8" standalone="no"?>
<svg
   xmlns:dc="http://purl.org/dc/elements/1.1/"
   xmlns:cc="http://creativecommons.org/ns#"
   xmlns:rdf="http://www.w3.org/1999/02/22-rdf-syntax-ns#"
   xmlns:svg="http://www.w3.org/2000/svg"
   xmlns="http://www.w3.org/2000/svg"
   viewBox="0 0 68.26667 68.26667"
   height="68.26667"
   width="68.26667"
   xml:space="preserve"
   id="svg2"
   version="1.1"><metadata
     id="metadata8"><rdf:RDF><cc:Work
         rdf:about=""><dc:format>image/svg+xml</dc:format><dc:type
           rdf:resource="http://purl.org/dc/dcmitype/StillImage" /></cc:Work></rdf:RDF></metadata><defs
     id="defs6" /><g
     transform="matrix(1.3333333,0,0,-1.3333333,0,68.266668)"
     id="g10"><g
       id="g12"><path
         id="path14"
         style="fill:#000000;fill-opacity:1;fill-rule:nonzero;stroke:none"
         d="m 45.023,34.669 c 0,-3.223 -2.613,-5.836 -5.835,-5.836 -3.223,0 -5.836,2.613 -5.836,5.836 0,3.222 2.613,5.836 5.836,5.836 3.222,0 5.835,-2.614 5.835,-5.836 z" /><path
         id="path16"
         style="fill:#000000;fill-opacity:1;fill-rule:nonzero;stroke:none"
         d="M 2.633,46.192 V 35.606 H 1.051 c -0.301,0 -0.543,0.242 -0.543,0.543 v 13.656 c 0,0.465 0.344,0.84 0.816,0.84 h 7 c 0.473,0 0.817,-0.375 0.817,-0.836 v -0.804 h 10.82 c 0.301,0 0.543,-0.242 0.543,-0.539 V 45.395 H 11.27 V 46.2 c 0,0.461 -0.348,0.836 -0.821,0.836 H 3.453 c -0.473,0 -0.82,-0.383 -0.82,-0.844 z" /><path
         id="path18"
         style="fill:#000000;fill-opacity:1;fill-rule:nonzero;stroke:none"
         d="m 24.758,29.2 c 0,-0.301 -0.242,-0.539 -0.547,-0.539 H 5.305 c -0.301,0 -0.543,0.238 -0.543,0.539 v 13.656 c 0,0.465 0.343,0.84 0.816,0.84 h 6.996 c 0.473,0 0.821,-0.375 0.821,-0.836 v -0.805 h 10.816 c 0.305,0 0.547,-0.242 0.547,-0.539 z m -8.387,7.773 v 3.223 H 13.148 V 36.973 H 9.926 v -3.218 h 3.222 v -3.223 h 3.223 v 3.223 h 3.219 v 3.218 z" /><path
         id="path20"
         style="fill:#000000;fill-opacity:1;fill-rule:nonzero;stroke:none"
         d="m 44.953,27.333 c 3.231,0 5.852,-2.617 5.852,-5.852 L 50.816,0.098 H 31.184 v 17.727 h -0.797 l -3.621,-5.402 c -0.59,-0.805 -1.786,-1.192 -2.739,-1.192 h -8.504 c -1.41,0 -2.558,1.141 -2.558,2.555 0,1.406 1.148,2.519 2.558,2.519 h 7.735 l 5.363,8.11 c 1.285,1.961 3.797,2.91 5.82,2.91 l 10.512,0.004 z" /></g></g></svg>