<?xml version="1.0" encoding="utf-8"?>
<svg xmlns="http://www.w3.org/2000/svg" xmlns:xlink="http://www.w3.org/1999/xlink" width="600" height="400" viewBox="0 0 2400 1600">
<defs>
  <clipPath id="clip2600">
    <rect x="0" y="0" width="2400" height="1600"/>
  </clipPath>
</defs>
<polygon clip-path="url(#clip2600)" points="
0,1600 2400,1600 2400,0 0,0 
  " fill="#ffffff" fill-rule="evenodd" fill-opacity="1"/>
<defs>
  <clipPath id="clip2601">
    <rect x="480" y="0" width="1681" height="1600"/>
  </clipPath>
</defs>
<polygon clip-path="url(#clip2600)" points="
189.504,1503.47 2321.26,1503.47 2321.26,47.2441 189.504,47.2441 
  " fill="#ffffff" fill-rule="evenodd" fill-opacity="1"/>
<defs>
  <clipPath id="clip2602">
    <rect x="189" y="47" width="2133" height="1457"/>
  </clipPath>
</defs>
<polyline clip-path="url(#clip2602)" style="stroke:#000000; stroke-width:2; stroke-opacity:0.1; fill:none" points="
  338.648,1503.47 338.648,47.2441 
  "/>
<polyline clip-path="url(#clip2602)" style="stroke:#000000; stroke-width:2; stroke-opacity:0.1; fill:none" points="
  661.905,1503.47 661.905,47.2441 
  "/>
<polyline clip-path="url(#clip2602)" style="stroke:#000000; stroke-width:2; stroke-opacity:0.1; fill:none" points="
  985.163,1503.47 985.163,47.2441 
  "/>
<polyline clip-path="url(#clip2602)" style="stroke:#000000; stroke-width:2; stroke-opacity:0.1; fill:none" points="
  1308.42,1503.47 1308.42,47.2441 
  "/>
<polyline clip-path="url(#clip2602)" style="stroke:#000000; stroke-width:2; stroke-opacity:0.1; fill:none" points="
  1631.68,1503.47 1631.68,47.2441 
  "/>
<polyline clip-path="url(#clip2602)" style="stroke:#000000; stroke-width:2; stroke-opacity:0.1; fill:none" points="
  1954.94,1503.47 1954.94,47.2441 
  "/>
<polyline clip-path="url(#clip2602)" style="stroke:#000000; stroke-width:2; stroke-opacity:0.1; fill:none" points="
  2278.19,1503.47 2278.19,47.2441 
  "/>
<polyline clip-path="url(#clip2602)" style="stroke:#000000; stroke-width:2; stroke-opacity:0.1; fill:none" points="
  189.504,1448.56 2321.26,1448.56 
  "/>
<polyline clip-path="url(#clip2602)" style="stroke:#000000; stroke-width:2; stroke-opacity:0.1; fill:none" points="
  189.504,1122.48 2321.26,1122.48 
  "/>
<polyline clip-path="url(#clip2602)" style="stroke:#000000; stroke-width:2; stroke-opacity:0.1; fill:none" points="
  189.504,796.392 2321.26,796.392 
  "/>
<polyline clip-path="url(#clip2602)" style="stroke:#000000; stroke-width:2; stroke-opacity:0.1; fill:none" points="
  189.504,470.308 2321.26,470.308 
  "/>
<polyline clip-path="url(#clip2602)" style="stroke:#000000; stroke-width:2; stroke-opacity:0.1; fill:none" points="
  189.504,144.224 2321.26,144.224 
  "/>
<polyline clip-path="url(#clip2600)" style="stroke:#000000; stroke-width:4; stroke-opacity:1; fill:none" points="
  189.504,1503.47 2321.26,1503.47 
  "/>
<polyline clip-path="url(#clip2600)" style="stroke:#000000; stroke-width:4; stroke-opacity:1; fill:none" points="
  189.504,1503.47 189.504,47.2441 
  "/>
<polyline clip-path="url(#clip2600)" style="stroke:#000000; stroke-width:4; stroke-opacity:1; fill:none" points="
  338.648,1503.47 338.648,1481.63 
  "/>
<polyline clip-path="url(#clip2600)" style="stroke:#000000; stroke-width:4; stroke-opacity:1; fill:none" points="
  661.905,1503.47 661.905,1481.63 
  "/>
<polyline clip-path="url(#clip2600)" style="stroke:#000000; stroke-width:4; stroke-opacity:1; fill:none" points="
  985.163,1503.47 985.163,1481.63 
  "/>
<polyline clip-path="url(#clip2600)" style="stroke:#000000; stroke-width:4; stroke-opacity:1; fill:none" points="
  1308.42,1503.47 1308.42,1481.63 
  "/>
<polyline clip-path="url(#clip2600)" style="stroke:#000000; stroke-width:4; stroke-opacity:1; fill:none" points="
  1631.68,1503.47 1631.68,1481.63 
  "/>
<polyline clip-path="url(#clip2600)" style="stroke:#000000; stroke-width:4; stroke-opacity:1; fill:none" points="
  1954.94,1503.47 1954.94,1481.63 
  "/>
<polyline clip-path="url(#clip2600)" style="stroke:#000000; stroke-width:4; stroke-opacity:1; fill:none" points="
  2278.19,1503.47 2278.19,1481.63 
  "/>
<polyline clip-path="url(#clip2600)" style="stroke:#000000; stroke-width:4; stroke-opacity:1; fill:none" points="
  189.504,1448.56 221.48,1448.56 
  "/>
<polyline clip-path="url(#clip2600)" style="stroke:#000000; stroke-width:4; stroke-opacity:1; fill:none" points="
  189.504,1122.48 221.48,1122.48 
  "/>
<polyline clip-path="url(#clip2600)" style="stroke:#000000; stroke-width:4; stroke-opacity:1; fill:none" points="
  189.504,796.392 221.48,796.392 
  "/>
<polyline clip-path="url(#clip2600)" style="stroke:#000000; stroke-width:4; stroke-opacity:1; fill:none" points="
  189.504,470.308 221.48,470.308 
  "/>
<polyline clip-path="url(#clip2600)" style="stroke:#000000; stroke-width:4; stroke-opacity:1; fill:none" points="
  189.504,144.224 221.48,144.224 
  "/>
<g clip-path="url(#clip2600)">
<text style="fill:#000000; fill-opacity:1; font-family:Arial,Helvetica Neue,Helvetica,sans-serif; font-size:48px; text-anchor:middle;" transform="rotate(0, 338.648, 1557.47)" x="338.648" y="1557.47">-3</text>
</g>
<g clip-path="url(#clip2600)">
<text style="fill:#000000; fill-opacity:1; font-family:Arial,Helvetica Neue,Helvetica,sans-serif; font-size:48px; text-anchor:middle;" transform="rotate(0, 661.905, 1557.47)" x="661.905" y="1557.47">-2</text>
</g>
<g clip-path="url(#clip2600)">
<text style="fill:#000000; fill-opacity:1; font-family:Arial,Helvetica Neue,Helvetica,sans-serif; font-size:48px; text-anchor:middle;" transform="rotate(0, 985.163, 1557.47)" x="985.163" y="1557.47">-1</text>
</g>
<g clip-path="url(#clip2600)">
<text style="fill:#000000; fill-opacity:1; font-family:Arial,Helvetica Neue,Helvetica,sans-serif; font-size:48px; text-anchor:middle;" transform="rotate(0, 1308.42, 1557.47)" x="1308.42" y="1557.47">0</text>
</g>
<g clip-path="url(#clip2600)">
<text style="fill:#000000; fill-opacity:1; font-family:Arial,Helvetica Neue,Helvetica,sans-serif; font-size:48px; text-anchor:middle;" transform="rotate(0, 1631.68, 1557.47)" x="1631.68" y="1557.47">1</text>
</g>
<g clip-path="url(#clip2600)">
<text style="fill:#000000; fill-opacity:1; font-family:Arial,Helvetica Neue,Helvetica,sans-serif; font-size:48px; text-anchor:middle;" transform="rotate(0, 1954.94, 1557.47)" x="1954.94" y="1557.47">2</text>
</g>
<g clip-path="url(#clip2600)">
<text style="fill:#000000; fill-opacity:1; font-family:Arial,Helvetica Neue,Helvetica,sans-serif; font-size:48px; text-anchor:middle;" transform="rotate(0, 2278.19, 1557.47)" x="2278.19" y="1557.47">3</text>
</g>
<g clip-path="url(#clip2600)">
<text style="fill:#000000; fill-opacity:1; font-family:Arial,Helvetica Neue,Helvetica,sans-serif; font-size:48px; text-anchor:end;" transform="rotate(0, 165.504, 1466.06)" x="165.504" y="1466.06">-1.0</text>
</g>
<g clip-path="url(#clip2600)">
<text style="fill:#000000; fill-opacity:1; font-family:Arial,Helvetica Neue,Helvetica,sans-serif; font-size:48px; text-anchor:end;" transform="rotate(0, 165.504, 1139.98)" x="165.504" y="1139.98">-0.5</text>
</g>
<g clip-path="url(#clip2600)">
<text style="fill:#000000; fill-opacity:1; font-family:Arial,Helvetica Neue,Helvetica,sans-serif; font-size:48px; text-anchor:end;" transform="rotate(0, 165.504, 813.892)" x="165.504" y="813.892">0.0</text>
</g>
<g clip-path="url(#clip2600)">
<text style="fill:#000000; fill-opacity:1; font-family:Arial,Helvetica Neue,Helvetica,sans-serif; font-size:48px; text-anchor:end;" transform="rotate(0, 165.504, 487.808)" x="165.504" y="487.808">0.5</text>
</g>
<g clip-path="url(#clip2600)">
<text style="fill:#000000; fill-opacity:1; font-family:Arial,Helvetica Neue,Helvetica,sans-serif; font-size:48px; text-anchor:end;" transform="rotate(0, 165.504, 161.724)" x="165.504" y="161.724">1.0</text>
</g>
<circle clip-path="url(#clip2602)" style="fill:#000000; stroke:none; fill-opacity:1" cx="1187.68" cy="1373.51" r="18"/>
<circle clip-path="url(#clip2602)" style="fill:#008000; stroke:none; fill-opacity:1" cx="1187.68" cy="1373.51" r="14"/>
<circle clip-path="url(#clip2602)" style="fill:#000000; stroke:none; fill-opacity:1" cx="2085.23" cy="324.472" r="18"/>
<circle clip-path="url(#clip2602)" style="fill:#008000; stroke:none; fill-opacity:1" cx="2085.23" cy="324.472" r="14"/>
<circle clip-path="url(#clip2602)" style="fill:#000000; stroke:none; fill-opacity:1" cx="1484.43" cy="1366.52" r="18"/>
<circle clip-path="url(#clip2602)" style="fill:#008000; stroke:none; fill-opacity:1" cx="1484.43" cy="1366.52" r="14"/>
<circle clip-path="url(#clip2602)" style="fill:#000000; stroke:none; fill-opacity:1" cx="270.498" cy="222.651" r="18"/>
<circle clip-path="url(#clip2602)" style="fill:#008000; stroke:none; fill-opacity:1" cx="270.498" cy="222.651" r="14"/>
<circle clip-path="url(#clip2602)" style="fill:#000000; stroke:none; fill-opacity:1" cx="334.973" cy="216.158" r="18"/>
<circle clip-path="url(#clip2602)" style="fill:#008000; stroke:none; fill-opacity:1" cx="334.973" cy="216.158" r="14"/>
<circle clip-path="url(#clip2602)" style="fill:#000000; stroke:none; fill-opacity:1" cx="1796.34" cy="973.791" r="18"/>
<circle clip-path="url(#clip2602)" style="fill:#008000; stroke:none; fill-opacity:1" cx="1796.34" cy="973.791" r="14"/>
<circle clip-path="url(#clip2602)" style="fill:#000000; stroke:none; fill-opacity:1" cx="722.444" cy="770.879" r="18"/>
<circle clip-path="url(#clip2602)" style="fill:#008000; stroke:none; fill-opacity:1" cx="722.444" cy="770.879" r="14"/>
<circle clip-path="url(#clip2602)" style="fill:#000000; stroke:none; fill-opacity:1" cx="2014.56" cy="339.313" r="18"/>
<circle clip-path="url(#clip2602)" style="fill:#008000; stroke:none; fill-opacity:1" cx="2014.56" cy="339.313" r="14"/>
<circle clip-path="url(#clip2602)" style="fill:#000000; stroke:none; fill-opacity:1" cx="249.837" cy="222.356" r="18"/>
<circle clip-path="url(#clip2602)" style="fill:#008000; stroke:none; fill-opacity:1" cx="249.837" cy="222.356" r="14"/>
<circle clip-path="url(#clip2602)" style="fill:#000000; stroke:none; fill-opacity:1" cx="2227.42" cy="102.396" r="18"/>
<circle clip-path="url(#clip2602)" style="fill:#008000; stroke:none; fill-opacity:1" cx="2227.42" cy="102.396" r="14"/>
<circle clip-path="url(#clip2602)" style="fill:#000000; stroke:none; fill-opacity:1" cx="2028.84" cy="407.215" r="18"/>
<circle clip-path="url(#clip2602)" style="fill:#008000; stroke:none; fill-opacity:1" cx="2028.84" cy="407.215" r="14"/>
<circle clip-path="url(#clip2602)" style="fill:#000000; stroke:none; fill-opacity:1" cx="1779.05" cy="1070.45" r="18"/>
<circle clip-path="url(#clip2602)" style="fill:#008000; stroke:none; fill-opacity:1" cx="1779.05" cy="1070.45" r="14"/>
<circle clip-path="url(#clip2602)" style="fill:#000000; stroke:none; fill-opacity:1" cx="998.045" cy="1292.38" r="18"/>
<circle clip-path="url(#clip2602)" style="fill:#008000; stroke:none; fill-opacity:1" cx="998.045" cy="1292.38" r="14"/>
<circle clip-path="url(#clip2602)" style="fill:#000000; stroke:none; fill-opacity:1" cx="978.859" cy="1195.85" r="18"/>
<circle clip-path="url(#clip2602)" style="fill:#008000; stroke:none; fill-opacity:1" cx="978.859" cy="1195.85" r="14"/>
<circle clip-path="url(#clip2602)" style="fill:#000000; stroke:none; fill-opacity:1" cx="1326" cy="1450.51" r="18"/>
<circle clip-path="url(#clip2602)" style="fill:#008000; stroke:none; fill-opacity:1" cx="1326" cy="1450.51" r="14"/>
<circle clip-path="url(#clip2602)" style="fill:#000000; stroke:none; fill-opacity:1" cx="538.177" cy="532.513" r="18"/>
<circle clip-path="url(#clip2602)" style="fill:#008000; stroke:none; fill-opacity:1" cx="538.177" cy="532.513" r="14"/>
<circle clip-path="url(#clip2602)" style="fill:#000000; stroke:none; fill-opacity:1" cx="2175.52" cy="112.091" r="18"/>
<circle clip-path="url(#clip2602)" style="fill:#008000; stroke:none; fill-opacity:1" cx="2175.52" cy="112.091" r="14"/>
<circle clip-path="url(#clip2602)" style="fill:#000000; stroke:none; fill-opacity:1" cx="1583.36" cy="1244.82" r="18"/>
<circle clip-path="url(#clip2602)" style="fill:#008000; stroke:none; fill-opacity:1" cx="1583.36" cy="1244.82" r="14"/>
<circle clip-path="url(#clip2602)" style="fill:#000000; stroke:none; fill-opacity:1" cx="1485.2" cy="1379.91" r="18"/>
<circle clip-path="url(#clip2602)" style="fill:#008000; stroke:none; fill-opacity:1" cx="1485.2" cy="1379.91" r="14"/>
<circle clip-path="url(#clip2602)" style="fill:#000000; stroke:none; fill-opacity:1" cx="1109.51" cy="1418.59" r="18"/>
<circle clip-path="url(#clip2602)" style="fill:#008000; stroke:none; fill-opacity:1" cx="1109.51" cy="1418.59" r="14"/>
<circle clip-path="url(#clip2602)" style="fill:#000000; stroke:none; fill-opacity:1" cx="2126.4" cy="254.236" r="18"/>
<circle clip-path="url(#clip2602)" style="fill:#008000; stroke:none; fill-opacity:1" cx="2126.4" cy="254.236" r="14"/>
<circle clip-path="url(#clip2602)" style="fill:#000000; stroke:none; fill-opacity:1" cx="643.148" cy="796.676" r="18"/>
<circle clip-path="url(#clip2602)" style="fill:#008000; stroke:none; fill-opacity:1" cx="643.148" cy="796.676" r="14"/>
<circle clip-path="url(#clip2602)" style="fill:#000000; stroke:none; fill-opacity:1" cx="593.412" cy="441.862" r="18"/>
<circle clip-path="url(#clip2602)" style="fill:#008000; stroke:none; fill-opacity:1" cx="593.412" cy="441.862" r="14"/>
<circle clip-path="url(#clip2602)" style="fill:#000000; stroke:none; fill-opacity:1" cx="1836.91" cy="900.593" r="18"/>
<circle clip-path="url(#clip2602)" style="fill:#008000; stroke:none; fill-opacity:1" cx="1836.91" cy="900.593" r="14"/>
<circle clip-path="url(#clip2602)" style="fill:#000000; stroke:none; fill-opacity:1" cx="1081.1" cy="1318.06" r="18"/>
<circle clip-path="url(#clip2602)" style="fill:#008000; stroke:none; fill-opacity:1" cx="1081.1" cy="1318.06" r="14"/>
<circle clip-path="url(#clip2602)" style="fill:#000000; stroke:none; fill-opacity:1" cx="1740.8" cy="910.531" r="18"/>
<circle clip-path="url(#clip2602)" style="fill:#008000; stroke:none; fill-opacity:1" cx="1740.8" cy="910.531" r="14"/>
<circle clip-path="url(#clip2602)" style="fill:#000000; stroke:none; fill-opacity:1" cx="513.352" cy="403.038" r="18"/>
<circle clip-path="url(#clip2602)" style="fill:#008000; stroke:none; fill-opacity:1" cx="513.352" cy="403.038" r="14"/>
<circle clip-path="url(#clip2602)" style="fill:#000000; stroke:none; fill-opacity:1" cx="1562.82" cy="1263.68" r="18"/>
<circle clip-path="url(#clip2602)" style="fill:#008000; stroke:none; fill-opacity:1" cx="1562.82" cy="1263.68" r="14"/>
<circle clip-path="url(#clip2602)" style="fill:#000000; stroke:none; fill-opacity:1" cx="1898.97" cy="820.957" r="18"/>
<circle clip-path="url(#clip2602)" style="fill:#008000; stroke:none; fill-opacity:1" cx="1898.97" cy="820.957" r="14"/>
<circle clip-path="url(#clip2602)" style="fill:#000000; stroke:none; fill-opacity:1" cx="776.101" cy="1114.05" r="18"/>
<circle clip-path="url(#clip2602)" style="fill:#008000; stroke:none; fill-opacity:1" cx="776.101" cy="1114.05" r="14"/>
<circle clip-path="url(#clip2602)" style="fill:#000000; stroke:none; fill-opacity:1" cx="1597.11" cy="1173.43" r="18"/>
<circle clip-path="url(#clip2602)" style="fill:#008000; stroke:none; fill-opacity:1" cx="1597.11" cy="1173.43" r="14"/>
<circle clip-path="url(#clip2602)" style="fill:#000000; stroke:none; fill-opacity:1" cx="1113.66" cy="1339.74" r="18"/>
<circle clip-path="url(#clip2602)" style="fill:#008000; stroke:none; fill-opacity:1" cx="1113.66" cy="1339.74" r="14"/>
<circle clip-path="url(#clip2602)" style="fill:#000000; stroke:none; fill-opacity:1" cx="1383.26" cy="1449.34" r="18"/>
<circle clip-path="url(#clip2602)" style="fill:#008000; stroke:none; fill-opacity:1" cx="1383.26" cy="1449.34" r="14"/>
<circle clip-path="url(#clip2602)" style="fill:#000000; stroke:none; fill-opacity:1" cx="2175.43" cy="254.712" r="18"/>
<circle clip-path="url(#clip2602)" style="fill:#008000; stroke:none; fill-opacity:1" cx="2175.43" cy="254.712" r="14"/>
<circle clip-path="url(#clip2602)" style="fill:#000000; stroke:none; fill-opacity:1" cx="706.42" cy="635.341" r="18"/>
<circle clip-path="url(#clip2602)" style="fill:#008000; stroke:none; fill-opacity:1" cx="706.42" cy="635.341" r="14"/>
<circle clip-path="url(#clip2602)" style="fill:#000000; stroke:none; fill-opacity:1" cx="1053.86" cy="1251.36" r="18"/>
<circle clip-path="url(#clip2602)" style="fill:#008000; stroke:none; fill-opacity:1" cx="1053.86" cy="1251.36" r="14"/>
<circle clip-path="url(#clip2602)" style="fill:#000000; stroke:none; fill-opacity:1" cx="404.56" cy="247.367" r="18"/>
<circle clip-path="url(#clip2602)" style="fill:#008000; stroke:none; fill-opacity:1" cx="404.56" cy="247.367" r="14"/>
<circle clip-path="url(#clip2602)" style="fill:#000000; stroke:none; fill-opacity:1" cx="1685.91" cy="1134.88" r="18"/>
<circle clip-path="url(#clip2602)" style="fill:#008000; stroke:none; fill-opacity:1" cx="1685.91" cy="1134.88" r="14"/>
<circle clip-path="url(#clip2602)" style="fill:#000000; stroke:none; fill-opacity:1" cx="2072.42" cy="245.508" r="18"/>
<circle clip-path="url(#clip2602)" style="fill:#008000; stroke:none; fill-opacity:1" cx="2072.42" cy="245.508" r="14"/>
<circle clip-path="url(#clip2602)" style="fill:#000000; stroke:none; fill-opacity:1" cx="2172.29" cy="257.845" r="18"/>
<circle clip-path="url(#clip2602)" style="fill:#008000; stroke:none; fill-opacity:1" cx="2172.29" cy="257.845" r="14"/>
<circle clip-path="url(#clip2602)" style="fill:#000000; stroke:none; fill-opacity:1" cx="353.435" cy="259.488" r="18"/>
<circle clip-path="url(#clip2602)" style="fill:#008000; stroke:none; fill-opacity:1" cx="353.435" cy="259.488" r="14"/>
<circle clip-path="url(#clip2602)" style="fill:#000000; stroke:none; fill-opacity:1" cx="1347.21" cy="1452.98" r="18"/>
<circle clip-path="url(#clip2602)" style="fill:#008000; stroke:none; fill-opacity:1" cx="1347.21" cy="1452.98" r="14"/>
<circle clip-path="url(#clip2602)" style="fill:#000000; stroke:none; fill-opacity:1" cx="1440" cy="1398.02" r="18"/>
<circle clip-path="url(#clip2602)" style="fill:#008000; stroke:none; fill-opacity:1" cx="1440" cy="1398.02" r="14"/>
<circle clip-path="url(#clip2602)" style="fill:#000000; stroke:none; fill-opacity:1" cx="2085.3" cy="366.059" r="18"/>
<circle clip-path="url(#clip2602)" style="fill:#008000; stroke:none; fill-opacity:1" cx="2085.3" cy="366.059" r="14"/>
<circle clip-path="url(#clip2602)" style="fill:#000000; stroke:none; fill-opacity:1" cx="2166.91" cy="118.105" r="18"/>
<circle clip-path="url(#clip2602)" style="fill:#008000; stroke:none; fill-opacity:1" cx="2166.91" cy="118.105" r="14"/>
<circle clip-path="url(#clip2602)" style="fill:#000000; stroke:none; fill-opacity:1" cx="1554.81" cy="1379.15" r="18"/>
<circle clip-path="url(#clip2602)" style="fill:#008000; stroke:none; fill-opacity:1" cx="1554.81" cy="1379.15" r="14"/>
<circle clip-path="url(#clip2602)" style="fill:#000000; stroke:none; fill-opacity:1" cx="2015.46" cy="430.188" r="18"/>
<circle clip-path="url(#clip2602)" style="fill:#008000; stroke:none; fill-opacity:1" cx="2015.46" cy="430.188" r="14"/>
<circle clip-path="url(#clip2602)" style="fill:#000000; stroke:none; fill-opacity:1" cx="600.829" cy="676.288" r="18"/>
<circle clip-path="url(#clip2602)" style="fill:#008000; stroke:none; fill-opacity:1" cx="600.829" cy="676.288" r="14"/>
<circle clip-path="url(#clip2602)" style="fill:#000000; stroke:none; fill-opacity:1" cx="587.123" cy="575.417" r="18"/>
<circle clip-path="url(#clip2602)" style="fill:#008000; stroke:none; fill-opacity:1" cx="587.123" cy="575.417" r="14"/>
<circle clip-path="url(#clip2602)" style="fill:#000000; stroke:none; fill-opacity:1" cx="643.352" cy="575.985" r="18"/>
<circle clip-path="url(#clip2602)" style="fill:#008000; stroke:none; fill-opacity:1" cx="643.352" cy="575.985" r="14"/>
<circle clip-path="url(#clip2602)" style="fill:#000000; stroke:none; fill-opacity:1" cx="2098.34" cy="191.364" r="18"/>
<circle clip-path="url(#clip2602)" style="fill:#008000; stroke:none; fill-opacity:1" cx="2098.34" cy="191.364" r="14"/>
<circle clip-path="url(#clip2602)" style="fill:#000000; stroke:none; fill-opacity:1" cx="1966.27" cy="543.708" r="18"/>
<circle clip-path="url(#clip2602)" style="fill:#008000; stroke:none; fill-opacity:1" cx="1966.27" cy="543.708" r="14"/>
<circle clip-path="url(#clip2602)" style="fill:#000000; stroke:none; fill-opacity:1" cx="1558.33" cy="1360.35" r="18"/>
<circle clip-path="url(#clip2602)" style="fill:#008000; stroke:none; fill-opacity:1" cx="1558.33" cy="1360.35" r="14"/>
<circle clip-path="url(#clip2602)" style="fill:#000000; stroke:none; fill-opacity:1" cx="354.685" cy="230.122" r="18"/>
<circle clip-path="url(#clip2602)" style="fill:#008000; stroke:none; fill-opacity:1" cx="354.685" cy="230.122" r="14"/>
<circle clip-path="url(#clip2602)" style="fill:#000000; stroke:none; fill-opacity:1" cx="2260.93" cy="88.4582" r="18"/>
<circle clip-path="url(#clip2602)" style="fill:#008000; stroke:none; fill-opacity:1" cx="2260.93" cy="88.4582" r="14"/>
<circle clip-path="url(#clip2602)" style="fill:#000000; stroke:none; fill-opacity:1" cx="1548.8" cy="1391.27" r="18"/>
<circle clip-path="url(#clip2602)" style="fill:#008000; stroke:none; fill-opacity:1" cx="1548.8" cy="1391.27" r="14"/>
<circle clip-path="url(#clip2602)" style="fill:#000000; stroke:none; fill-opacity:1" cx="1405.24" cy="1442.41" r="18"/>
<circle clip-path="url(#clip2602)" style="fill:#008000; stroke:none; fill-opacity:1" cx="1405.24" cy="1442.41" r="14"/>
<circle clip-path="url(#clip2602)" style="fill:#000000; stroke:none; fill-opacity:1" cx="2104.01" cy="125.558" r="18"/>
<circle clip-path="url(#clip2602)" style="fill:#008000; stroke:none; fill-opacity:1" cx="2104.01" cy="125.558" r="14"/>
<circle clip-path="url(#clip2602)" style="fill:#000000; stroke:none; fill-opacity:1" cx="606.36" cy="575.096" r="18"/>
<circle clip-path="url(#clip2602)" style="fill:#008000; stroke:none; fill-opacity:1" cx="606.36" cy="575.096" r="14"/>
<circle clip-path="url(#clip2602)" style="fill:#000000; stroke:none; fill-opacity:1" cx="332.151" cy="246.366" r="18"/>
<circle clip-path="url(#clip2602)" style="fill:#008000; stroke:none; fill-opacity:1" cx="332.151" cy="246.366" r="14"/>
<circle clip-path="url(#clip2602)" style="fill:#000000; stroke:none; fill-opacity:1" cx="1379.98" cy="1433.84" r="18"/>
<circle clip-path="url(#clip2602)" style="fill:#008000; stroke:none; fill-opacity:1" cx="1379.98" cy="1433.84" r="14"/>
<circle clip-path="url(#clip2602)" style="fill:#000000; stroke:none; fill-opacity:1" cx="667.475" cy="784.307" r="18"/>
<circle clip-path="url(#clip2602)" style="fill:#008000; stroke:none; fill-opacity:1" cx="667.475" cy="784.307" r="14"/>
<circle clip-path="url(#clip2602)" style="fill:#000000; stroke:none; fill-opacity:1" cx="1612.32" cy="1246.41" r="18"/>
<circle clip-path="url(#clip2602)" style="fill:#008000; stroke:none; fill-opacity:1" cx="1612.32" cy="1246.41" r="14"/>
<circle clip-path="url(#clip2602)" style="fill:#000000; stroke:none; fill-opacity:1" cx="2040.6" cy="276.173" r="18"/>
<circle clip-path="url(#clip2602)" style="fill:#008000; stroke:none; fill-opacity:1" cx="2040.6" cy="276.173" r="14"/>
<circle clip-path="url(#clip2602)" style="fill:#000000; stroke:none; fill-opacity:1" cx="510.286" cy="506.726" r="18"/>
<circle clip-path="url(#clip2602)" style="fill:#008000; stroke:none; fill-opacity:1" cx="510.286" cy="506.726" r="14"/>
<circle clip-path="url(#clip2602)" style="fill:#000000; stroke:none; fill-opacity:1" cx="393.555" cy="261.17" r="18"/>
<circle clip-path="url(#clip2602)" style="fill:#008000; stroke:none; fill-opacity:1" cx="393.555" cy="261.17" r="14"/>
<circle clip-path="url(#clip2602)" style="fill:#000000; stroke:none; fill-opacity:1" cx="1193.23" cy="1406.35" r="18"/>
<circle clip-path="url(#clip2602)" style="fill:#008000; stroke:none; fill-opacity:1" cx="1193.23" cy="1406.35" r="14"/>
<circle clip-path="url(#clip2602)" style="fill:#000000; stroke:none; fill-opacity:1" cx="1101.2" cy="1442.81" r="18"/>
<circle clip-path="url(#clip2602)" style="fill:#008000; stroke:none; fill-opacity:1" cx="1101.2" cy="1442.81" r="14"/>
<circle clip-path="url(#clip2602)" style="fill:#000000; stroke:none; fill-opacity:1" cx="1815.98" cy="716.382" r="18"/>
<circle clip-path="url(#clip2602)" style="fill:#008000; stroke:none; fill-opacity:1" cx="1815.98" cy="716.382" r="14"/>
<circle clip-path="url(#clip2602)" style="fill:#000000; stroke:none; fill-opacity:1" cx="539.002" cy="574.453" r="18"/>
<circle clip-path="url(#clip2602)" style="fill:#008000; stroke:none; fill-opacity:1" cx="539.002" cy="574.453" r="14"/>
<circle clip-path="url(#clip2602)" style="fill:#000000; stroke:none; fill-opacity:1" cx="1507.54" cy="1294.05" r="18"/>
<circle clip-path="url(#clip2602)" style="fill:#008000; stroke:none; fill-opacity:1" cx="1507.54" cy="1294.05" r="14"/>
<circle clip-path="url(#clip2602)" style="fill:#000000; stroke:none; fill-opacity:1" cx="1802.42" cy="965.836" r="18"/>
<circle clip-path="url(#clip2602)" style="fill:#008000; stroke:none; fill-opacity:1" cx="1802.42" cy="965.836" r="14"/>
<circle clip-path="url(#clip2602)" style="fill:#000000; stroke:none; fill-opacity:1" cx="756.048" cy="720.624" r="18"/>
<circle clip-path="url(#clip2602)" style="fill:#008000; stroke:none; fill-opacity:1" cx="756.048" cy="720.624" r="14"/>
<circle clip-path="url(#clip2602)" style="fill:#000000; stroke:none; fill-opacity:1" cx="1331.76" cy="1454.15" r="18"/>
<circle clip-path="url(#clip2602)" style="fill:#008000; stroke:none; fill-opacity:1" cx="1331.76" cy="1454.15" r="14"/>
<circle clip-path="url(#clip2602)" style="fill:#000000; stroke:none; fill-opacity:1" cx="930.672" cy="1115.36" r="18"/>
<circle clip-path="url(#clip2602)" style="fill:#008000; stroke:none; fill-opacity:1" cx="930.672" cy="1115.36" r="14"/>
<circle clip-path="url(#clip2602)" style="fill:#000000; stroke:none; fill-opacity:1" cx="1855.02" cy="678.99" r="18"/>
<circle clip-path="url(#clip2602)" style="fill:#008000; stroke:none; fill-opacity:1" cx="1855.02" cy="678.99" r="14"/>
<circle clip-path="url(#clip2602)" style="fill:#000000; stroke:none; fill-opacity:1" cx="676.477" cy="759.122" r="18"/>
<circle clip-path="url(#clip2602)" style="fill:#008000; stroke:none; fill-opacity:1" cx="676.477" cy="759.122" r="14"/>
<circle clip-path="url(#clip2602)" style="fill:#000000; stroke:none; fill-opacity:1" cx="1318.48" cy="1439.71" r="18"/>
<circle clip-path="url(#clip2602)" style="fill:#008000; stroke:none; fill-opacity:1" cx="1318.48" cy="1439.71" r="14"/>
<circle clip-path="url(#clip2602)" style="fill:#000000; stroke:none; fill-opacity:1" cx="1638.02" cy="1153.77" r="18"/>
<circle clip-path="url(#clip2602)" style="fill:#008000; stroke:none; fill-opacity:1" cx="1638.02" cy="1153.77" r="14"/>
<circle clip-path="url(#clip2602)" style="fill:#000000; stroke:none; fill-opacity:1" cx="267.702" cy="222.386" r="18"/>
<circle clip-path="url(#clip2602)" style="fill:#008000; stroke:none; fill-opacity:1" cx="267.702" cy="222.386" r="14"/>
<circle clip-path="url(#clip2602)" style="fill:#000000; stroke:none; fill-opacity:1" cx="1503.01" cy="1381.12" r="18"/>
<circle clip-path="url(#clip2602)" style="fill:#008000; stroke:none; fill-opacity:1" cx="1503.01" cy="1381.12" r="14"/>
<circle clip-path="url(#clip2602)" style="fill:#000000; stroke:none; fill-opacity:1" cx="1256.08" cy="1459.29" r="18"/>
<circle clip-path="url(#clip2602)" style="fill:#008000; stroke:none; fill-opacity:1" cx="1256.08" cy="1459.29" r="14"/>
<circle clip-path="url(#clip2602)" style="fill:#000000; stroke:none; fill-opacity:1" cx="2151.59" cy="349.599" r="18"/>
<circle clip-path="url(#clip2602)" style="fill:#008000; stroke:none; fill-opacity:1" cx="2151.59" cy="349.599" r="14"/>
<circle clip-path="url(#clip2602)" style="fill:#000000; stroke:none; fill-opacity:1" cx="1945.36" cy="565.254" r="18"/>
<circle clip-path="url(#clip2602)" style="fill:#008000; stroke:none; fill-opacity:1" cx="1945.36" cy="565.254" r="14"/>
<circle clip-path="url(#clip2602)" style="fill:#000000; stroke:none; fill-opacity:1" cx="1202.21" cy="1462.26" r="18"/>
<circle clip-path="url(#clip2602)" style="fill:#008000; stroke:none; fill-opacity:1" cx="1202.21" cy="1462.26" r="14"/>
<circle clip-path="url(#clip2602)" style="fill:#000000; stroke:none; fill-opacity:1" cx="674.711" cy="675.382" r="18"/>
<circle clip-path="url(#clip2602)" style="fill:#008000; stroke:none; fill-opacity:1" cx="674.711" cy="675.382" r="14"/>
<circle clip-path="url(#clip2602)" style="fill:#000000; stroke:none; fill-opacity:1" cx="1008.87" cy="1269.58" r="18"/>
<circle clip-path="url(#clip2602)" style="fill:#008000; stroke:none; fill-opacity:1" cx="1008.87" cy="1269.58" r="14"/>
<circle clip-path="url(#clip2602)" style="fill:#000000; stroke:none; fill-opacity:1" cx="1691.04" cy="1090.55" r="18"/>
<circle clip-path="url(#clip2602)" style="fill:#008000; stroke:none; fill-opacity:1" cx="1691.04" cy="1090.55" r="14"/>
<circle clip-path="url(#clip2602)" style="fill:#000000; stroke:none; fill-opacity:1" cx="1722.93" cy="1058.8" r="18"/>
<circle clip-path="url(#clip2602)" style="fill:#008000; stroke:none; fill-opacity:1" cx="1722.93" cy="1058.8" r="14"/>
<circle clip-path="url(#clip2602)" style="fill:#000000; stroke:none; fill-opacity:1" cx="325.374" cy="218.396" r="18"/>
<circle clip-path="url(#clip2602)" style="fill:#008000; stroke:none; fill-opacity:1" cx="325.374" cy="218.396" r="14"/>
<circle clip-path="url(#clip2602)" style="fill:#000000; stroke:none; fill-opacity:1" cx="363.446" cy="286.927" r="18"/>
<circle clip-path="url(#clip2602)" style="fill:#008000; stroke:none; fill-opacity:1" cx="363.446" cy="286.927" r="14"/>
<circle clip-path="url(#clip2602)" style="fill:#000000; stroke:none; fill-opacity:1" cx="320.643" cy="231.065" r="18"/>
<circle clip-path="url(#clip2602)" style="fill:#008000; stroke:none; fill-opacity:1" cx="320.643" cy="231.065" r="14"/>
<circle clip-path="url(#clip2602)" style="fill:#000000; stroke:none; fill-opacity:1" cx="1956.57" cy="761.267" r="18"/>
<circle clip-path="url(#clip2602)" style="fill:#008000; stroke:none; fill-opacity:1" cx="1956.57" cy="761.267" r="14"/>
<circle clip-path="url(#clip2602)" style="fill:#000000; stroke:none; fill-opacity:1" cx="1675.39" cy="1178.44" r="18"/>
<circle clip-path="url(#clip2602)" style="fill:#008000; stroke:none; fill-opacity:1" cx="1675.39" cy="1178.44" r="14"/>
<circle clip-path="url(#clip2602)" style="fill:#000000; stroke:none; fill-opacity:1" cx="499.81" cy="462.027" r="18"/>
<circle clip-path="url(#clip2602)" style="fill:#008000; stroke:none; fill-opacity:1" cx="499.81" cy="462.027" r="14"/>
<circle clip-path="url(#clip2602)" style="fill:#000000; stroke:none; fill-opacity:1" cx="1130.15" cy="1383.74" r="18"/>
<circle clip-path="url(#clip2602)" style="fill:#008000; stroke:none; fill-opacity:1" cx="1130.15" cy="1383.74" r="14"/>
<circle clip-path="url(#clip2602)" style="fill:#000000; stroke:none; fill-opacity:1" cx="1135.7" cy="1384.38" r="18"/>
<circle clip-path="url(#clip2602)" style="fill:#008000; stroke:none; fill-opacity:1" cx="1135.7" cy="1384.38" r="14"/>
<circle clip-path="url(#clip2602)" style="fill:#000000; stroke:none; fill-opacity:1" cx="2245.81" cy="112.849" r="18"/>
<circle clip-path="url(#clip2602)" style="fill:#008000; stroke:none; fill-opacity:1" cx="2245.81" cy="112.849" r="14"/>
<circle clip-path="url(#clip2602)" style="fill:#000000; stroke:none; fill-opacity:1" cx="1469.26" cy="1437.94" r="18"/>
<circle clip-path="url(#clip2602)" style="fill:#008000; stroke:none; fill-opacity:1" cx="1469.26" cy="1437.94" r="14"/>
<circle clip-path="url(#clip2602)" style="fill:#000000; stroke:none; fill-opacity:1" cx="1997.93" cy="427.714" r="18"/>
<circle clip-path="url(#clip2602)" style="fill:#008000; stroke:none; fill-opacity:1" cx="1997.93" cy="427.714" r="14"/>
<circle clip-path="url(#clip2602)" style="fill:#000000; stroke:none; fill-opacity:1" cx="1968.82" cy="502.337" r="18"/>
<circle clip-path="url(#clip2602)" style="fill:#008000; stroke:none; fill-opacity:1" cx="1968.82" cy="502.337" r="14"/>
<circle clip-path="url(#clip2602)" style="fill:#000000; stroke:none; fill-opacity:1" cx="1752.25" cy="915.707" r="18"/>
<circle clip-path="url(#clip2602)" style="fill:#008000; stroke:none; fill-opacity:1" cx="1752.25" cy="915.707" r="14"/>
<circle clip-path="url(#clip2602)" style="fill:#000000; stroke:none; fill-opacity:1" cx="763.615" cy="1045.24" r="18"/>
<circle clip-path="url(#clip2602)" style="fill:#008000; stroke:none; fill-opacity:1" cx="763.615" cy="1045.24" r="14"/>
<circle clip-path="url(#clip2602)" style="fill:#000000; stroke:none; fill-opacity:1" cx="704.244" cy="629.834" r="18"/>
<circle clip-path="url(#clip2602)" style="fill:#008000; stroke:none; fill-opacity:1" cx="704.244" cy="629.834" r="14"/>
<circle clip-path="url(#clip2602)" style="fill:#000000; stroke:none; fill-opacity:1" cx="1752.55" cy="1168.19" r="18"/>
<circle clip-path="url(#clip2602)" style="fill:#008000; stroke:none; fill-opacity:1" cx="1752.55" cy="1168.19" r="14"/>
<circle clip-path="url(#clip2602)" style="fill:#000000; stroke:none; fill-opacity:1" cx="525.462" cy="300.112" r="18"/>
<circle clip-path="url(#clip2602)" style="fill:#008000; stroke:none; fill-opacity:1" cx="525.462" cy="300.112" r="14"/>
<circle clip-path="url(#clip2602)" style="fill:#000000; stroke:none; fill-opacity:1" cx="1798.22" cy="1037.48" r="18"/>
<circle clip-path="url(#clip2602)" style="fill:#008000; stroke:none; fill-opacity:1" cx="1798.22" cy="1037.48" r="14"/>
<circle clip-path="url(#clip2602)" style="fill:#000000; stroke:none; fill-opacity:1" cx="382.403" cy="213.23" r="18"/>
<circle clip-path="url(#clip2602)" style="fill:#008000; stroke:none; fill-opacity:1" cx="382.403" cy="213.23" r="14"/>
<circle clip-path="url(#clip2602)" style="fill:#000000; stroke:none; fill-opacity:1" cx="1423.41" cy="1420.85" r="18"/>
<circle clip-path="url(#clip2602)" style="fill:#008000; stroke:none; fill-opacity:1" cx="1423.41" cy="1420.85" r="14"/>
<circle clip-path="url(#clip2602)" style="fill:#000000; stroke:none; fill-opacity:1" cx="460.837" cy="300.085" r="18"/>
<circle clip-path="url(#clip2602)" style="fill:#008000; stroke:none; fill-opacity:1" cx="460.837" cy="300.085" r="14"/>
<circle clip-path="url(#clip2602)" style="fill:#000000; stroke:none; fill-opacity:1" cx="2249.48" cy="104.278" r="18"/>
<circle clip-path="url(#clip2602)" style="fill:#008000; stroke:none; fill-opacity:1" cx="2249.48" cy="104.278" r="14"/>
<circle clip-path="url(#clip2602)" style="fill:#000000; stroke:none; fill-opacity:1" cx="1187.23" cy="1462.21" r="18"/>
<circle clip-path="url(#clip2602)" style="fill:#008000; stroke:none; fill-opacity:1" cx="1187.23" cy="1462.21" r="14"/>
<circle clip-path="url(#clip2602)" style="fill:#000000; stroke:none; fill-opacity:1" cx="2251.41" cy="90.2039" r="18"/>
<circle clip-path="url(#clip2602)" style="fill:#008000; stroke:none; fill-opacity:1" cx="2251.41" cy="90.2039" r="14"/>
<circle clip-path="url(#clip2602)" style="fill:#000000; stroke:none; fill-opacity:1" cx="1861.42" cy="972.475" r="18"/>
<circle clip-path="url(#clip2602)" style="fill:#008000; stroke:none; fill-opacity:1" cx="1861.42" cy="972.475" r="14"/>
<circle clip-path="url(#clip2602)" style="fill:#000000; stroke:none; fill-opacity:1" cx="696.79" cy="844.603" r="18"/>
<circle clip-path="url(#clip2602)" style="fill:#008000; stroke:none; fill-opacity:1" cx="696.79" cy="844.603" r="14"/>
<circle clip-path="url(#clip2602)" style="fill:#000000; stroke:none; fill-opacity:1" cx="1801.92" cy="866.313" r="18"/>
<circle clip-path="url(#clip2602)" style="fill:#008000; stroke:none; fill-opacity:1" cx="1801.92" cy="866.313" r="14"/>
<circle clip-path="url(#clip2602)" style="fill:#000000; stroke:none; fill-opacity:1" cx="2145.74" cy="210.302" r="18"/>
<circle clip-path="url(#clip2602)" style="fill:#008000; stroke:none; fill-opacity:1" cx="2145.74" cy="210.302" r="14"/>
<circle clip-path="url(#clip2602)" style="fill:#000000; stroke:none; fill-opacity:1" cx="2099.5" cy="314.585" r="18"/>
<circle clip-path="url(#clip2602)" style="fill:#008000; stroke:none; fill-opacity:1" cx="2099.5" cy="314.585" r="14"/>
<circle clip-path="url(#clip2602)" style="fill:#000000; stroke:none; fill-opacity:1" cx="1233.48" cy="1460.69" r="18"/>
<circle clip-path="url(#clip2602)" style="fill:#008000; stroke:none; fill-opacity:1" cx="1233.48" cy="1460.69" r="14"/>
<circle clip-path="url(#clip2602)" style="fill:#000000; stroke:none; fill-opacity:1" cx="936.551" cy="1166.15" r="18"/>
<circle clip-path="url(#clip2602)" style="fill:#008000; stroke:none; fill-opacity:1" cx="936.551" cy="1166.15" r="14"/>
<circle clip-path="url(#clip2602)" style="fill:#000000; stroke:none; fill-opacity:1" cx="653.674" cy="525.632" r="18"/>
<circle clip-path="url(#clip2602)" style="fill:#008000; stroke:none; fill-opacity:1" cx="653.674" cy="525.632" r="14"/>
<circle clip-path="url(#clip2602)" style="fill:#000000; stroke:none; fill-opacity:1" cx="649.945" cy="718.89" r="18"/>
<circle clip-path="url(#clip2602)" style="fill:#008000; stroke:none; fill-opacity:1" cx="649.945" cy="718.89" r="14"/>
<circle clip-path="url(#clip2602)" style="fill:#000000; stroke:none; fill-opacity:1" cx="2055.12" cy="505.232" r="18"/>
<circle clip-path="url(#clip2602)" style="fill:#008000; stroke:none; fill-opacity:1" cx="2055.12" cy="505.232" r="14"/>
<circle clip-path="url(#clip2602)" style="fill:#000000; stroke:none; fill-opacity:1" cx="1819.27" cy="1072.75" r="18"/>
<circle clip-path="url(#clip2602)" style="fill:#008000; stroke:none; fill-opacity:1" cx="1819.27" cy="1072.75" r="14"/>
<circle clip-path="url(#clip2602)" style="fill:#000000; stroke:none; fill-opacity:1" cx="559.105" cy="643.685" r="18"/>
<circle clip-path="url(#clip2602)" style="fill:#008000; stroke:none; fill-opacity:1" cx="559.105" cy="643.685" r="14"/>
<circle clip-path="url(#clip2602)" style="fill:#000000; stroke:none; fill-opacity:1" cx="919.485" cy="1123.23" r="18"/>
<circle clip-path="url(#clip2602)" style="fill:#008000; stroke:none; fill-opacity:1" cx="919.485" cy="1123.23" r="14"/>
<circle clip-path="url(#clip2602)" style="fill:#000000; stroke:none; fill-opacity:1" cx="589.826" cy="596.678" r="18"/>
<circle clip-path="url(#clip2602)" style="fill:#008000; stroke:none; fill-opacity:1" cx="589.826" cy="596.678" r="14"/>
<circle clip-path="url(#clip2602)" style="fill:#000000; stroke:none; fill-opacity:1" cx="2079.09" cy="422.028" r="18"/>
<circle clip-path="url(#clip2602)" style="fill:#008000; stroke:none; fill-opacity:1" cx="2079.09" cy="422.028" r="14"/>
<polygon clip-path="url(#clip2600)" points="
957.844,251.724 1221.91,251.724 1221.91,130.764 957.844,130.764 
  " fill="#ffffff" fill-rule="evenodd" fill-opacity="1"/>
<polyline clip-path="url(#clip2600)" style="stroke:#000000; stroke-width:4; stroke-opacity:1; fill:none" points="
  957.844,251.724 1221.91,251.724 1221.91,130.764 957.844,130.764 957.844,251.724 
  "/>
<circle clip-path="url(#clip2600)" style="fill:#000000; stroke:none; fill-opacity:1" cx="1065.84" cy="191.244" r="25"/>
<circle clip-path="url(#clip2600)" style="fill:#008000; stroke:none; fill-opacity:1" cx="1065.84" cy="191.244" r="21"/>
<g clip-path="url(#clip2600)">
<text style="fill:#000000; fill-opacity:1; font-family:Arial,Helvetica Neue,Helvetica,sans-serif; font-size:48px; text-anchor:start;" transform="rotate(0, 1149.84, 208.744)" x="1149.84" y="208.744">z</text>
</g>
</svg>
