<?xml version="1.0" encoding="UTF-8" standalone="no"?>
<svg
   xmlns:dc="http://purl.org/dc/elements/1.1/"
   xmlns:cc="http://creativecommons.org/ns#"
   xmlns:rdf="http://www.w3.org/1999/02/22-rdf-syntax-ns#"
   xmlns:svg="http://www.w3.org/2000/svg"
   xmlns="http://www.w3.org/2000/svg"
   viewBox="0 0 461.33334 150.66667"
   height="150.66667"
   width="461.33334"
   xml:space="preserve"
   id="svg2"
   version="1.1"><metadata
     id="metadata8"><rdf:RDF><cc:Work
         rdf:about=""><dc:format>image/svg+xml</dc:format><dc:type
           rdf:resource="http://purl.org/dc/dcmitype/StillImage" /></cc:Work></rdf:RDF></metadata><defs
     id="defs6"><clipPath
       id="clipPath18"
       clipPathUnits="userSpaceOnUse"><path
         style="clip-rule:evenodd"
         id="path16"
         d="M 0,0 H 346 V 112.70125 H 0 Z" /></clipPath><clipPath
       id="clipPath30"
       clipPathUnits="userSpaceOnUse"><path
         style="clip-rule:evenodd"
         id="path28"
         d="M 0,0 H 346 V 112.70125 H 0 Z" /></clipPath></defs><g
     transform="matrix(1.3333333,0,0,1.3333333,0,7.1e-6)"
     id="g10"><g
       id="g12"><g
         clip-path="url(#clipPath18)"
         id="g14"><g
           transform="scale(0.71784234)"
           id="g20"><path
             id="path22"
             style="fill:#ffffff;fill-opacity:1;fill-rule:nonzero;stroke:none"
             d="M 0,0 H 482 V 157 H 0 Z" /></g></g></g><g
       id="g24"><g
         clip-path="url(#clipPath30)"
         id="g26"><g
           transform="matrix(0.71784234,0,0,0.71784234,0.35892117,0.35892117)"
           id="g32"><path
             id="path34"
             style="fill:#ffffff;fill-opacity:1;fill-rule:nonzero;stroke:none"
             d="m 51,31 h 20 l 30,30 v 90 H 81 L 51,121 Z" /><path
             id="path36"
             style="fill:none;stroke:#000000;stroke-width:1;stroke-linecap:butt;stroke-linejoin:miter;stroke-miterlimit:10;stroke-dasharray:none;stroke-opacity:1"
             d="m 51,31 h 20 l 30,30 v 90 H 81 L 51,121 Z" /><path
             id="path38"
             style="fill:none;stroke:#000000;stroke-width:1;stroke-linecap:butt;stroke-linejoin:miter;stroke-miterlimit:10;stroke-dasharray:none;stroke-opacity:1"
             d="M 81,151 V 61 L 51,31 m 30,30 h 20" /><path
             id="path40"
             style="fill:none;stroke:#000000;stroke-width:1;stroke-linecap:butt;stroke-linejoin:miter;stroke-miterlimit:10;stroke-dasharray:none;stroke-opacity:1"
             d="m 301,92 h 20 v -1 h 8.63" /><path
             id="path42"
             style="fill:#000000;fill-opacity:1;fill-rule:nonzero;stroke:none"
             d="m 334.88,91 -7,3.5 1.75,-3.5 -1.75,-3.5 z" /><path
             id="path44"
             style="fill:none;stroke:#000000;stroke-width:1;stroke-linecap:butt;stroke-linejoin:miter;stroke-miterlimit:10;stroke-dasharray:none;stroke-opacity:1"
             d="m 334.88,91 -7,3.5 1.75,-3.5 -1.75,-3.5 z" /><path
             id="path46"
             style="fill:#ffffff;fill-opacity:1;fill-rule:nonzero;stroke:none"
             d="m 241,61.5 h 41 l 19,19 v 41 h -41 l -19,-19 z" /><path
             id="path48"
             style="fill:none;stroke:#000000;stroke-width:1;stroke-linecap:butt;stroke-linejoin:miter;stroke-miterlimit:10;stroke-dasharray:none;stroke-opacity:1"
             d="m 241,61.5 h 41 l 19,19 v 41 h -41 l -19,-19 z" /><path
             id="path50"
             style="fill:none;stroke:#000000;stroke-width:1;stroke-linecap:butt;stroke-linejoin:miter;stroke-miterlimit:10;stroke-dasharray:none;stroke-opacity:1"
             d="m 260,121.5 v -41 l -19,-19 m 19,19 h 41" /><path
             id="path52"
             style="fill:#ffffff;fill-opacity:1;fill-rule:nonzero;stroke:none"
             d="m 466,76 c 4.14212,0 7.67764,1.464462 10.60657,4.393394 2.92892,2.928933 4.3934,6.464463 4.39343,10.606606 -3e-5,4.142128 -1.46451,7.677658 -4.39343,10.60659 -2.92893,2.92893 -6.46445,4.3934 -10.60657,4.39341 -4.14215,-1e-5 -7.6777,-1.46448 -10.60663,-4.39341 C 452.46445,98.677658 450.99997,95.142128 451,91 c -3e-5,-4.142143 1.46445,-7.677673 4.39337,-10.606606 C 458.3223,77.464462 461.85785,76 466,76 Z" /><path
             id="path54"
             style="fill:none;stroke:#000000;stroke-width:1;stroke-linecap:butt;stroke-linejoin:miter;stroke-miterlimit:10;stroke-dasharray:none;stroke-opacity:1"
             d="m 466,76 c 4.14212,0 7.67764,1.464462 10.60657,4.393394 2.92892,2.928933 4.3934,6.464463 4.39343,10.606606 -3e-5,4.142128 -1.46451,7.677658 -4.39343,10.60659 -2.92893,2.92893 -6.46445,4.3934 -10.60657,4.39341 -4.14215,-1e-5 -7.6777,-1.46448 -10.60663,-4.39341 C 452.46445,98.677658 450.99997,95.142128 451,91 c -3e-5,-4.142143 1.46445,-7.677673 4.39337,-10.606606 C 458.3223,77.464462 461.85785,76 466,76 Z" /></g><g
           transform="matrix(0.71784234,0,0,0.71784234,332.36099,61.016598)"
           id="g56"><text
             id="text60"
             style="font-variant:normal;font-weight:normal;font-size:12px;font-family:Helvetica;-inkscape-font-specification:Helvetica;writing-mode:lr-tb;fill:#000000;fill-opacity:1;fill-rule:nonzero;stroke:none"
             transform="translate(0.5,11)"><tspan
               id="tspan58"
               y="0"
               x="0">y</tspan></text>
</g><g
           transform="matrix(0.71784234,0,0,0.71784234,0.35892117,0.35892117)"
           id="g62"><path
             id="path64"
             style="fill:none;stroke:#000000;stroke-width:1;stroke-linecap:butt;stroke-linejoin:miter;stroke-miterlimit:10;stroke-dasharray:none;stroke-opacity:1"
             d="m 216,91.5 h 18.63" /><path
             id="path66"
             style="fill:#000000;fill-opacity:1;fill-rule:nonzero;stroke:none"
             d="m 239.88,91.5 -7,3.5 1.75,-3.5 -1.75,-3.5 z" /><path
             id="path68"
             style="fill:none;stroke:#000000;stroke-width:1;stroke-linecap:butt;stroke-linejoin:miter;stroke-miterlimit:10;stroke-dasharray:none;stroke-opacity:1"
             d="m 239.88,91.5 -7,3.5 1.75,-3.5 -1.75,-3.5 z" /><path
             id="path70"
             style="fill:#ffffff;fill-opacity:1;fill-rule:nonzero;stroke:none"
             d="m 140,41 h 30 l 30,30 v 70 h -30 l -30,-30 z" /><path
             id="path72"
             style="fill:none;stroke:#000000;stroke-width:1;stroke-linecap:butt;stroke-linejoin:miter;stroke-miterlimit:10;stroke-dasharray:none;stroke-opacity:1"
             d="m 140,41 h 30 l 30,30 v 70 h -30 l -30,-30 z" /><path
             id="path74"
             style="fill:none;stroke:#000000;stroke-width:1;stroke-linecap:butt;stroke-linejoin:miter;stroke-miterlimit:10;stroke-dasharray:none;stroke-opacity:1"
             d="M 170,141 V 71 L 140,41 m 30,30 h 30" /><path
             id="path76"
             style="fill:#ffffff;fill-opacity:1;fill-rule:nonzero;stroke:none"
             d="m 16,76 c 4.142136,0 7.67767,1.464462 10.6066,4.393394 C 29.535532,83.322327 30.999998,86.857857 31,91 c -2e-6,4.142128 -1.464468,7.677658 -4.3934,10.60659 C 23.67767,104.53552 20.142136,105.99999 16,106 11.857864,105.99999 8.3223305,104.53552 5.3933978,101.60659 2.4644659,98.677658 0.99999994,95.142128 1,91 0.99999994,86.857857 2.4644659,83.322327 5.3933978,80.393394 8.3223305,77.464462 11.857864,76 16,76 Z" /><path
             id="path78"
             style="fill:none;stroke:#000000;stroke-width:1;stroke-linecap:butt;stroke-linejoin:miter;stroke-miterlimit:10;stroke-dasharray:none;stroke-opacity:1"
             d="m 16,76 c 4.142136,0 7.67767,1.464462 10.6066,4.393394 C 29.535532,83.322327 30.999998,86.857857 31,91 c -2e-6,4.142128 -1.464468,7.677658 -4.3934,10.60659 C 23.67767,104.53552 20.142136,105.99999 16,106 11.857864,105.99999 8.3223305,104.53552 5.3933978,101.60659 2.4644659,98.677658 0.99999994,95.142128 1,91 0.99999994,86.857857 2.4644659,83.322327 5.3933978,80.393394 8.3223305,77.464462 11.857864,76 16,76 Z" /></g><g
           transform="matrix(0.71784234,0,0,0.71784234,9.3319502,61.016598)"
           id="g80"><text
             id="text84"
             style="font-variant:normal;font-weight:normal;font-size:12px;font-family:Helvetica;-inkscape-font-specification:Helvetica;writing-mode:lr-tb;fill:#000000;fill-opacity:1;fill-rule:nonzero;stroke:none"
             transform="translate(0.5,11)"><tspan
               id="tspan82"
               y="0"
               x="0">x</tspan></text>
</g><g
           transform="matrix(0.71784234,0,0,0.71784234,0.35892117,0.35892117)"
           id="g86"><path
             id="path88"
             style="fill:none;stroke:#000000;stroke-width:1;stroke-linecap:butt;stroke-linejoin:miter;stroke-miterlimit:10;stroke-dasharray:none;stroke-opacity:1"
             d="M 31,91 H 44.630001" /><path
             id="path90"
             style="fill:#000000;fill-opacity:1;fill-rule:nonzero;stroke:none"
             d="m 49.880001,91 -7,3.5 1.75,-3.5 -1.75,-3.5 z" /><path
             id="path92"
             style="fill:none;stroke:#000000;stroke-width:1;stroke-linecap:butt;stroke-linejoin:miter;stroke-miterlimit:10;stroke-dasharray:none;stroke-opacity:1"
             d="m 49.880001,91 -7,3.5 1.75,-3.5 -1.75,-3.5 z" /><path
             id="path94"
             style="fill:#ffffff;fill-opacity:1;fill-rule:nonzero;stroke:none"
             d="m 351,26 c 4.14212,0 7.67764,1.464464 10.60657,4.393394 C 364.53549,33.322327 365.99997,36.857861 366,41 v 100 c -3e-5,4.14214 -1.46451,7.67766 -4.39343,10.6066 -2.92893,2.92892 -6.46445,4.39338 -10.60657,4.3934 -4.14215,-2e-5 -7.6777,-1.46448 -10.60663,-4.3934 C 337.46445,148.67766 336,145.14214 336,141 V 41 c 0,-4.142139 1.46445,-7.677673 4.39337,-10.606606 C 343.3223,27.464464 346.85785,26 351,26 Z" /><path
             id="path96"
             style="fill:none;stroke:#000000;stroke-width:1;stroke-linecap:butt;stroke-linejoin:miter;stroke-miterlimit:10;stroke-dasharray:none;stroke-opacity:1"
             d="m 351,26 c 4.14212,0 7.67764,1.464464 10.60657,4.393394 C 364.53549,33.322327 365.99997,36.857861 366,41 v 100 c -3e-5,4.14214 -1.46451,7.67766 -4.39343,10.6066 -2.92893,2.92892 -6.46445,4.39338 -10.60657,4.3934 -4.14215,-2e-5 -7.6777,-1.46448 -10.60663,-4.3934 C 337.46445,148.67766 336,145.14214 336,141 V 41 c 0,-4.142139 1.46445,-7.677673 4.39337,-10.606606 C 343.3223,27.464464 346.85785,26 351,26 Z" /><path
             id="path98"
             style="fill:#ffffff;fill-opacity:1;fill-rule:nonzero;stroke:none"
             d="m 361,141 c 0,2.76143 -0.97632,5.11844 -2.92896,7.07106 C 356.11844,150.02368 353.76141,151 351,151 c -2.76144,0 -5.11847,-0.97632 -7.07108,-2.92894 C 341.97629,146.11844 340.99997,143.76143 341,141 c -3e-5,-2.76143 0.97629,-5.11845 2.92892,-7.07107 C 345.88153,131.9763 348.23856,131 351,131 c 2.76141,0 5.11844,0.9763 7.07104,2.92893 C 360.02368,135.88155 361,138.23857 361,141 Z" /><path
             id="path100"
             style="fill:none;stroke:#000000;stroke-width:1;stroke-linecap:butt;stroke-linejoin:miter;stroke-miterlimit:10;stroke-dasharray:none;stroke-opacity:1"
             d="m 361,141 c 0,2.76143 -0.97632,5.11844 -2.92896,7.07106 C 356.11844,150.02368 353.76141,151 351,151 c -2.76144,0 -5.11847,-0.97632 -7.07108,-2.92894 C 341.97629,146.11844 340.99997,143.76143 341,141 c -3e-5,-2.76143 0.97629,-5.11845 2.92892,-7.07107 C 345.88153,131.9763 348.23856,131 351,131 c 2.76141,0 5.11844,0.9763 7.07104,2.92893 C 360.02368,135.88155 361,138.23857 361,141 Z" /><path
             id="path102"
             style="fill:#ffffff;fill-opacity:1;fill-rule:nonzero;stroke:none"
             d="m 361,116 c 0,2.76142 -0.97632,5.11844 -2.92896,7.07106 -1.9526,1.95262 -4.30963,2.92893 -7.07104,2.92894 -2.76144,-1e-5 -5.11847,-0.97632 -7.07108,-2.92894 C 341.97629,121.11844 340.99997,118.76142 341,116 c -3e-5,-2.76144 0.97629,-5.11846 2.92892,-7.07108 C 345.88153,106.9763 348.23856,106 351,106 c 2.76141,0 5.11844,0.9763 7.07104,2.92892 C 360.02368,110.88154 361,113.23856 361,116 Z" /><path
             id="path104"
             style="fill:none;stroke:#000000;stroke-width:1;stroke-linecap:butt;stroke-linejoin:miter;stroke-miterlimit:10;stroke-dasharray:none;stroke-opacity:1"
             d="m 361,116 c 0,2.76142 -0.97632,5.11844 -2.92896,7.07106 -1.9526,1.95262 -4.30963,2.92893 -7.07104,2.92894 -2.76144,-1e-5 -5.11847,-0.97632 -7.07108,-2.92894 C 341.97629,121.11844 340.99997,118.76142 341,116 c -3e-5,-2.76144 0.97629,-5.11846 2.92892,-7.07108 C 345.88153,106.9763 348.23856,106 351,106 c 2.76141,0 5.11844,0.9763 7.07104,2.92892 C 360.02368,110.88154 361,113.23856 361,116 Z" /><path
             id="path106"
             style="fill:#ffffff;fill-opacity:1;fill-rule:nonzero;stroke:none"
             d="m 361,91 c 0,2.761421 -0.97632,5.118439 -2.92896,7.07106 -1.9526,1.95262 -4.30963,2.92893 -7.07104,2.92894 -2.76144,-1e-5 -5.11847,-0.97632 -7.07108,-2.92894 C 341.97629,96.118439 340.99997,93.761421 341,91 c -3e-5,-2.761429 0.97629,-5.118454 2.92892,-7.071075 C 345.88153,81.976311 348.23856,81 351,81 c 2.76141,0 5.11844,0.976311 7.07104,2.928925 C 360.02368,85.881546 361,88.238571 361,91 Z" /><path
             id="path108"
             style="fill:none;stroke:#000000;stroke-width:1;stroke-linecap:butt;stroke-linejoin:miter;stroke-miterlimit:10;stroke-dasharray:none;stroke-opacity:1"
             d="m 361,91 c 0,2.761421 -0.97632,5.118439 -2.92896,7.07106 -1.9526,1.95262 -4.30963,2.92893 -7.07104,2.92894 -2.76144,-1e-5 -5.11847,-0.97632 -7.07108,-2.92894 C 341.97629,96.118439 340.99997,93.761421 341,91 c -3e-5,-2.761429 0.97629,-5.118454 2.92892,-7.071075 C 345.88153,81.976311 348.23856,81 351,81 c 2.76141,0 5.11844,0.976311 7.07104,2.928925 C 360.02368,85.881546 361,88.238571 361,91 Z" /><path
             id="path110"
             style="fill:#ffffff;fill-opacity:1;fill-rule:nonzero;stroke:none"
             d="m 361,66 c 0,2.761421 -0.97632,5.118439 -2.92896,7.07106 C 356.11844,75.023682 353.76141,75.999992 351,76 c -2.76144,-8e-6 -5.11847,-0.976318 -7.07108,-2.92894 C 341.97629,71.118439 340.99997,68.761421 341,66 c -3e-5,-2.761425 0.97629,-5.11845 2.92892,-7.071072 C 345.88153,56.976311 348.23856,56 351,56 c 2.76141,0 5.11844,0.976311 7.07104,2.928928 C 360.02368,60.88155 361,63.238575 361,66 Z" /><path
             id="path112"
             style="fill:none;stroke:#000000;stroke-width:1;stroke-linecap:butt;stroke-linejoin:miter;stroke-miterlimit:10;stroke-dasharray:none;stroke-opacity:1"
             d="m 361,66 c 0,2.761421 -0.97632,5.118439 -2.92896,7.07106 C 356.11844,75.023682 353.76141,75.999992 351,76 c -2.76144,-8e-6 -5.11847,-0.976318 -7.07108,-2.92894 C 341.97629,71.118439 340.99997,68.761421 341,66 c -3e-5,-2.761425 0.97629,-5.11845 2.92892,-7.071072 C 345.88153,56.976311 348.23856,56 351,56 c 2.76141,0 5.11844,0.976311 7.07104,2.928928 C 360.02368,60.88155 361,63.238575 361,66 Z" /><path
             id="path114"
             style="fill:#ffffff;fill-opacity:1;fill-rule:nonzero;stroke:none"
             d="m 361,41 c 0,2.761421 -0.97632,5.118443 -2.92896,7.071064 C 356.11844,50.023685 353.76141,50.999996 351,51 c -2.76144,-4e-6 -5.11847,-0.976315 -7.07108,-2.928936 C 341.97629,46.118443 340.99997,43.761421 341,41 c -3e-5,-2.761425 0.97629,-5.118446 2.92892,-7.071068 C 345.88153,31.976311 348.23856,31 351,31 c 2.76141,0 5.11844,0.976311 7.07104,2.928932 C 360.02368,35.881554 361,38.238575 361,41 Z" /><path
             id="path116"
             style="fill:none;stroke:#000000;stroke-width:1;stroke-linecap:butt;stroke-linejoin:miter;stroke-miterlimit:10;stroke-dasharray:none;stroke-opacity:1"
             d="m 361,41 c 0,2.761421 -0.97632,5.118443 -2.92896,7.071064 C 356.11844,50.023685 353.76141,50.999996 351,51 c -2.76144,-4e-6 -5.11847,-0.976315 -7.07108,-2.928936 C 341.97629,46.118443 340.99997,43.761421 341,41 c -3e-5,-2.761425 0.97629,-5.118446 2.92892,-7.071068 C 345.88153,31.976311 348.23856,31 351,31 c 2.76141,0 5.11844,0.976311 7.07104,2.928932 C 360.02368,35.881554 361,38.238575 361,41 Z" /><path
             id="path118"
             style="fill:#ffffff;fill-opacity:1;fill-rule:nonzero;stroke:none"
             d="m 411,26 c 4.14212,0 7.67764,1.464464 10.60657,4.393394 C 424.53549,33.322327 425.99997,36.857861 426,41 v 100 c -3e-5,4.14214 -1.46451,7.67766 -4.39343,10.6066 -2.92893,2.92892 -6.46445,4.39338 -10.60657,4.3934 -4.14215,-2e-5 -7.6777,-1.46448 -10.60663,-4.3934 C 397.46445,148.67766 395.99997,145.14214 396,141 V 41 c -3e-5,-4.142139 1.46445,-7.677673 4.39337,-10.606606 C 403.3223,27.464464 406.85785,26 411,26 Z" /><path
             id="path120"
             style="fill:none;stroke:#000000;stroke-width:1;stroke-linecap:butt;stroke-linejoin:miter;stroke-miterlimit:10;stroke-dasharray:none;stroke-opacity:1"
             d="m 411,26 c 4.14212,0 7.67764,1.464464 10.60657,4.393394 C 424.53549,33.322327 425.99997,36.857861 426,41 v 100 c -3e-5,4.14214 -1.46451,7.67766 -4.39343,10.6066 -2.92893,2.92892 -6.46445,4.39338 -10.60657,4.3934 -4.14215,-2e-5 -7.6777,-1.46448 -10.60663,-4.3934 C 397.46445,148.67766 395.99997,145.14214 396,141 V 41 c -3e-5,-4.142139 1.46445,-7.677673 4.39337,-10.606606 C 403.3223,27.464464 406.85785,26 411,26 Z" /><path
             id="path122"
             style="fill:#ffffff;fill-opacity:1;fill-rule:nonzero;stroke:none"
             d="m 421,141 c -3e-5,2.76143 -0.97635,5.11844 -2.92896,7.07106 C 416.11844,150.02368 413.76141,151 411,151 c -2.76144,0 -5.1185,-0.97632 -7.07111,-2.92894 C 401.97629,146.11844 400.99997,143.76143 401,141 c -3e-5,-2.76143 0.97629,-5.11845 2.92889,-7.07107 C 405.8815,131.9763 408.23856,131 411,131 c 2.76141,0 5.11844,0.9763 7.07104,2.92893 1.95261,1.95262 2.92893,4.30964 2.92896,7.07107 z" /><path
             id="path124"
             style="fill:none;stroke:#000000;stroke-width:1;stroke-linecap:butt;stroke-linejoin:miter;stroke-miterlimit:10;stroke-dasharray:none;stroke-opacity:1"
             d="m 421,141 c -3e-5,2.76143 -0.97635,5.11844 -2.92896,7.07106 C 416.11844,150.02368 413.76141,151 411,151 c -2.76144,0 -5.1185,-0.97632 -7.07111,-2.92894 C 401.97629,146.11844 400.99997,143.76143 401,141 c -3e-5,-2.76143 0.97629,-5.11845 2.92889,-7.07107 C 405.8815,131.9763 408.23856,131 411,131 c 2.76141,0 5.11844,0.9763 7.07104,2.92893 1.95261,1.95262 2.92893,4.30964 2.92896,7.07107 z" /><path
             id="path126"
             style="fill:#ffffff;fill-opacity:1;fill-rule:nonzero;stroke:none"
             d="m 421,116 c -3e-5,2.76142 -0.97635,5.11844 -2.92896,7.07106 -1.9526,1.95262 -4.30963,2.92893 -7.07104,2.92894 -2.76144,-1e-5 -5.1185,-0.97632 -7.07111,-2.92894 C 401.97629,121.11844 400.99997,118.76142 401,116 c -3e-5,-2.76144 0.97629,-5.11846 2.92889,-7.07108 C 405.8815,106.9763 408.23856,106 411,106 c 2.76141,0 5.11844,0.9763 7.07104,2.92892 1.95261,1.95262 2.92893,4.30964 2.92896,7.07108 z" /><path
             id="path128"
             style="fill:none;stroke:#000000;stroke-width:1;stroke-linecap:butt;stroke-linejoin:miter;stroke-miterlimit:10;stroke-dasharray:none;stroke-opacity:1"
             d="m 421,116 c -3e-5,2.76142 -0.97635,5.11844 -2.92896,7.07106 -1.9526,1.95262 -4.30963,2.92893 -7.07104,2.92894 -2.76144,-1e-5 -5.1185,-0.97632 -7.07111,-2.92894 C 401.97629,121.11844 400.99997,118.76142 401,116 c -3e-5,-2.76144 0.97629,-5.11846 2.92889,-7.07108 C 405.8815,106.9763 408.23856,106 411,106 c 2.76141,0 5.11844,0.9763 7.07104,2.92892 1.95261,1.95262 2.92893,4.30964 2.92896,7.07108 z" /><path
             id="path130"
             style="fill:#ffffff;fill-opacity:1;fill-rule:nonzero;stroke:none"
             d="m 421,91 c -3e-5,2.761421 -0.97635,5.118439 -2.92896,7.07106 -1.9526,1.95262 -4.30963,2.92893 -7.07104,2.92894 -2.76144,-1e-5 -5.1185,-0.97632 -7.07111,-2.92894 C 401.97629,96.118439 400.99997,93.761421 401,91 c -3e-5,-2.761429 0.97629,-5.118454 2.92889,-7.071075 C 405.8815,81.976311 408.23856,81 411,81 c 2.76141,0 5.11844,0.976311 7.07104,2.928925 C 420.02365,85.881546 420.99997,88.238571 421,91 Z" /><path
             id="path132"
             style="fill:none;stroke:#000000;stroke-width:1;stroke-linecap:butt;stroke-linejoin:miter;stroke-miterlimit:10;stroke-dasharray:none;stroke-opacity:1"
             d="m 421,91 c -3e-5,2.761421 -0.97635,5.118439 -2.92896,7.07106 -1.9526,1.95262 -4.30963,2.92893 -7.07104,2.92894 -2.76144,-1e-5 -5.1185,-0.97632 -7.07111,-2.92894 C 401.97629,96.118439 400.99997,93.761421 401,91 c -3e-5,-2.761429 0.97629,-5.118454 2.92889,-7.071075 C 405.8815,81.976311 408.23856,81 411,81 c 2.76141,0 5.11844,0.976311 7.07104,2.928925 C 420.02365,85.881546 420.99997,88.238571 421,91 Z" /><path
             id="path134"
             style="fill:#ffffff;fill-opacity:1;fill-rule:nonzero;stroke:none"
             d="m 421,66 c -3e-5,2.761421 -0.97635,5.118439 -2.92896,7.07106 C 416.11844,75.023682 413.76141,75.999992 411,76 c -2.76144,-8e-6 -5.1185,-0.976318 -7.07111,-2.92894 C 401.97629,71.118439 400.99997,68.761421 401,66 c -3e-5,-2.761425 0.97629,-5.11845 2.92889,-7.071072 C 405.8815,56.976311 408.23856,56 411,56 c 2.76141,0 5.11844,0.976311 7.07104,2.928928 C 420.02365,60.88155 420.99997,63.238575 421,66 Z" /><path
             id="path136"
             style="fill:none;stroke:#000000;stroke-width:1;stroke-linecap:butt;stroke-linejoin:miter;stroke-miterlimit:10;stroke-dasharray:none;stroke-opacity:1"
             d="m 421,66 c -3e-5,2.761421 -0.97635,5.118439 -2.92896,7.07106 C 416.11844,75.023682 413.76141,75.999992 411,76 c -2.76144,-8e-6 -5.1185,-0.976318 -7.07111,-2.92894 C 401.97629,71.118439 400.99997,68.761421 401,66 c -3e-5,-2.761425 0.97629,-5.11845 2.92889,-7.071072 C 405.8815,56.976311 408.23856,56 411,56 c 2.76141,0 5.11844,0.976311 7.07104,2.928928 C 420.02365,60.88155 420.99997,63.238575 421,66 Z" /><path
             id="path138"
             style="fill:#ffffff;fill-opacity:1;fill-rule:nonzero;stroke:none"
             d="m 421,41 c -3e-5,2.761421 -0.97635,5.118443 -2.92896,7.071064 C 416.11844,50.023685 413.76141,50.999996 411,51 c -2.76144,-4e-6 -5.1185,-0.976315 -7.07111,-2.928936 C 401.97629,46.118443 400.99997,43.761421 401,41 c -3e-5,-2.761425 0.97629,-5.118446 2.92889,-7.071068 C 405.8815,31.976311 408.23856,31 411,31 c 2.76141,0 5.11844,0.976311 7.07104,2.928932 C 420.02365,35.881554 420.99997,38.238575 421,41 Z" /><path
             id="path140"
             style="fill:none;stroke:#000000;stroke-width:1;stroke-linecap:butt;stroke-linejoin:miter;stroke-miterlimit:10;stroke-dasharray:none;stroke-opacity:1"
             d="m 421,41 c -3e-5,2.761421 -0.97635,5.118443 -2.92896,7.071064 C 416.11844,50.023685 413.76141,50.999996 411,51 c -2.76144,-4e-6 -5.1185,-0.976315 -7.07111,-2.928936 C 401.97629,46.118443 400.99997,43.761421 401,41 c -3e-5,-2.761425 0.97629,-5.118446 2.92889,-7.071068 C 405.8815,31.976311 408.23856,31 411,31 c 2.76141,0 5.11844,0.976311 7.07104,2.928932 C 420.02365,35.881554 420.99997,38.238575 421,41 Z" /><path
             id="path142"
             style="fill:none;stroke:#cccccc;stroke-width:1;stroke-linecap:butt;stroke-linejoin:miter;stroke-miterlimit:10;stroke-dasharray:none;stroke-opacity:1"
             d="m 361,91 h 35.88" /><path
             id="path144"
             style="fill:#cccccc;fill-opacity:1;fill-rule:nonzero;stroke:none"
             d="m 399.88,91 -4,2 1,-2 -1,-2 z" /><path
             id="path146"
             style="fill:none;stroke:#cccccc;stroke-width:1;stroke-linecap:butt;stroke-linejoin:miter;stroke-miterlimit:10;stroke-dasharray:none;stroke-opacity:1"
             d="m 399.88,91 -4,2 1,-2 -1,-2 z" /><path
             id="path148"
             style="fill:none;stroke:#cccccc;stroke-width:1;stroke-linecap:butt;stroke-linejoin:miter;stroke-miterlimit:10;stroke-dasharray:none;stroke-opacity:1"
             d="m 360.22,112.13 37.75,-15.7" /><path
             id="path150"
             style="fill:#cccccc;fill-opacity:1;fill-rule:nonzero;stroke:none"
             d="M 400.73999,95.279999 397.81,98.660004 397.97,96.43 396.28,94.959999 Z" /><path
             id="path152"
             style="fill:none;stroke:#cccccc;stroke-width:1;stroke-linecap:butt;stroke-linejoin:miter;stroke-miterlimit:10;stroke-dasharray:none;stroke-opacity:1"
             d="M 400.73999,95.279999 397.81,98.660004 397.97,96.43 396.28,94.959999 Z" /><path
             id="path154"
             style="fill:none;stroke:#cccccc;stroke-width:1;stroke-linecap:butt;stroke-linejoin:miter;stroke-miterlimit:10;stroke-dasharray:none;stroke-opacity:1"
             d="M 358.70999,134.63 400.16,100.04" /><path
             id="path156"
             style="fill:#cccccc;fill-opacity:1;fill-rule:nonzero;stroke:none"
             d="M 402.45999,98.120003 400.67001,102.22 400.16,100.04 398.10999,99.150002 Z" /><path
             id="path158"
             style="fill:none;stroke:#cccccc;stroke-width:1;stroke-linecap:butt;stroke-linejoin:miter;stroke-miterlimit:10;stroke-dasharray:none;stroke-opacity:1"
             d="M 402.45999,98.120003 400.67001,102.22 400.16,100.04 398.10999,99.150002 Z" /><path
             id="path160"
             style="fill:none;stroke:#cccccc;stroke-width:1;stroke-linecap:butt;stroke-linejoin:miter;stroke-miterlimit:10;stroke-dasharray:none;stroke-opacity:1"
             d="M 360.22,69.870003 397.97,85.57" /><path
             id="path162"
             style="fill:#cccccc;fill-opacity:1;fill-rule:nonzero;stroke:none"
             d="m 400.73999,86.720001 -4.45999,0.32 1.69,-1.470001 -0.16,-2.230004 z" /><path
             id="path164"
             style="fill:none;stroke:#cccccc;stroke-width:1;stroke-linecap:butt;stroke-linejoin:miter;stroke-miterlimit:10;stroke-dasharray:none;stroke-opacity:1"
             d="m 400.73999,86.720001 -4.45999,0.32 1.69,-1.470001 -0.16,-2.230004 z" /><path
             id="path166"
             style="fill:none;stroke:#cccccc;stroke-width:1;stroke-linecap:butt;stroke-linejoin:miter;stroke-miterlimit:10;stroke-dasharray:none;stroke-opacity:1"
             d="m 358.70999,47.369999 41.45001,34.59" /><path
             id="path168"
             style="fill:#cccccc;fill-opacity:1;fill-rule:nonzero;stroke:none"
             d="m 402.45999,83.879997 -4.35,-1.029999 2.05001,-0.889999 0.51001,-2.18 z" /><path
             id="path170"
             style="fill:none;stroke:#cccccc;stroke-width:1;stroke-linecap:butt;stroke-linejoin:miter;stroke-miterlimit:10;stroke-dasharray:none;stroke-opacity:1"
             d="m 402.45999,83.879997 -4.35,-1.029999 2.05001,-0.889999 0.51001,-2.18 z" /><path
             id="path172"
             style="fill:none;stroke:#cccccc;stroke-width:1;stroke-linecap:butt;stroke-linejoin:miter;stroke-miterlimit:10;stroke-dasharray:none;stroke-opacity:1"
             d="m 360.22,137.13 37.75,-15.7" /><path
             id="path174"
             style="fill:#cccccc;fill-opacity:1;fill-rule:nonzero;stroke:none"
             d="m 400.73999,120.28 -2.92999,3.38 0.16,-2.23 -1.69,-1.47 z" /><path
             id="path176"
             style="fill:none;stroke:#cccccc;stroke-width:1;stroke-linecap:butt;stroke-linejoin:miter;stroke-miterlimit:10;stroke-dasharray:none;stroke-opacity:1"
             d="m 400.73999,120.28 -2.92999,3.38 0.16,-2.23 -1.69,-1.47 z" /><path
             id="path178"
             style="fill:none;stroke:#cccccc;stroke-width:1;stroke-linecap:butt;stroke-linejoin:miter;stroke-miterlimit:10;stroke-dasharray:none;stroke-opacity:1"
             d="m 361,116 h 35.88" /><path
             id="path180"
             style="fill:#cccccc;fill-opacity:1;fill-rule:nonzero;stroke:none"
             d="m 399.88,116 -4,2 1,-2 -1,-2 z" /><path
             id="path182"
             style="fill:none;stroke:#cccccc;stroke-width:1;stroke-linecap:butt;stroke-linejoin:miter;stroke-miterlimit:10;stroke-dasharray:none;stroke-opacity:1"
             d="m 399.88,116 -4,2 1,-2 -1,-2 z" /><path
             id="path184"
             style="fill:none;stroke:#cccccc;stroke-width:1;stroke-linecap:butt;stroke-linejoin:miter;stroke-miterlimit:10;stroke-dasharray:none;stroke-opacity:1"
             d="m 361,141 h 35.88" /><path
             id="path186"
             style="fill:#cccccc;fill-opacity:1;fill-rule:nonzero;stroke:none"
             d="m 399.88,141 -4,2 1,-2 -1,-2 z" /><path
             id="path188"
             style="fill:none;stroke:#cccccc;stroke-width:1;stroke-linecap:butt;stroke-linejoin:miter;stroke-miterlimit:10;stroke-dasharray:none;stroke-opacity:1"
             d="m 399.88,141 -4,2 1,-2 -1,-2 z" /><path
             id="path190"
             style="fill:none;stroke:#cccccc;stroke-width:1;stroke-linecap:butt;stroke-linejoin:miter;stroke-miterlimit:10;stroke-dasharray:none;stroke-opacity:1"
             d="m 361,41 h 35.88" /><path
             id="path192"
             style="fill:#cccccc;fill-opacity:1;fill-rule:nonzero;stroke:none"
             d="m 399.88,41 -4,2 1,-2 -1,-2 z" /><path
             id="path194"
             style="fill:none;stroke:#cccccc;stroke-width:1;stroke-linecap:butt;stroke-linejoin:miter;stroke-miterlimit:10;stroke-dasharray:none;stroke-opacity:1"
             d="m 399.88,41 -4,2 1,-2 -1,-2 z" /><path
             id="path196"
             style="fill:none;stroke:#cccccc;stroke-width:1;stroke-linecap:butt;stroke-linejoin:miter;stroke-miterlimit:10;stroke-dasharray:none;stroke-opacity:1"
             d="M 360.22,62.130001 397.97,46.43" /><path
             id="path198"
             style="fill:#cccccc;fill-opacity:1;fill-rule:nonzero;stroke:none"
             d="M 400.73999,45.279999 397.81,48.66 l 0.16,-2.23 -1.69,-1.470001 z" /><path
             id="path200"
             style="fill:none;stroke:#cccccc;stroke-width:1;stroke-linecap:butt;stroke-linejoin:miter;stroke-miterlimit:10;stroke-dasharray:none;stroke-opacity:1"
             d="M 400.73999,45.279999 397.81,48.66 l 0.16,-2.23 -1.69,-1.470001 z" /><path
             id="path202"
             style="fill:none;stroke:#cccccc;stroke-width:1;stroke-linecap:butt;stroke-linejoin:miter;stroke-miterlimit:10;stroke-dasharray:none;stroke-opacity:1"
             d="m 361,66 h 35.88" /><path
             id="path204"
             style="fill:#cccccc;fill-opacity:1;fill-rule:nonzero;stroke:none"
             d="m 399.88,66 -4,2 1,-2 -1,-2 z" /><path
             id="path206"
             style="fill:none;stroke:#cccccc;stroke-width:1;stroke-linecap:butt;stroke-linejoin:miter;stroke-miterlimit:10;stroke-dasharray:none;stroke-opacity:1"
             d="m 399.88,66 -4,2 1,-2 -1,-2 z" /><path
             id="path208"
             style="fill:none;stroke:#cccccc;stroke-width:1;stroke-linecap:butt;stroke-linejoin:miter;stroke-miterlimit:10;stroke-dasharray:none;stroke-opacity:1"
             d="M 360.22,44.869999 397.97,60.57" /><path
             id="path210"
             style="fill:#cccccc;fill-opacity:1;fill-rule:nonzero;stroke:none"
             d="m 400.73999,61.720001 -4.45999,0.32 1.69,-1.470001 -0.16,-2.23 z" /><path
             id="path212"
             style="fill:none;stroke:#cccccc;stroke-width:1;stroke-linecap:butt;stroke-linejoin:miter;stroke-miterlimit:10;stroke-dasharray:none;stroke-opacity:1"
             d="m 400.73999,61.720001 -4.45999,0.32 1.69,-1.470001 -0.16,-2.23 z" /><path
             id="path214"
             style="fill:none;stroke:#cccccc;stroke-width:1;stroke-linecap:butt;stroke-linejoin:miter;stroke-miterlimit:10;stroke-dasharray:none;stroke-opacity:1"
             d="M 358.70999,84.629997 400.16,50.040001" /><path
             id="path216"
             style="fill:#cccccc;fill-opacity:1;fill-rule:nonzero;stroke:none"
             d="m 402.45999,48.119999 -1.78998,4.100002 -0.51001,-2.18 -2.05001,-0.889999 z" /><path
             id="path218"
             style="fill:none;stroke:#cccccc;stroke-width:1;stroke-linecap:butt;stroke-linejoin:miter;stroke-miterlimit:10;stroke-dasharray:none;stroke-opacity:1"
             d="m 402.45999,48.119999 -1.78998,4.100002 -0.51001,-2.18 -2.05001,-0.889999 z" /><path
             id="path220"
             style="fill:none;stroke:#cccccc;stroke-width:1;stroke-linecap:butt;stroke-linejoin:miter;stroke-miterlimit:10;stroke-dasharray:none;stroke-opacity:1"
             d="M 358.70999,72.370003 400.16,106.96" /><path
             id="path222"
             style="fill:#cccccc;fill-opacity:1;fill-rule:nonzero;stroke:none"
             d="m 402.45999,108.88 -4.35,-1.03 2.05001,-0.89 0.51001,-2.18 z" /><path
             id="path224"
             style="fill:none;stroke:#cccccc;stroke-width:1;stroke-linecap:butt;stroke-linejoin:miter;stroke-miterlimit:10;stroke-dasharray:none;stroke-opacity:1"
             d="m 402.45999,108.88 -4.35,-1.03 2.05001,-0.89 0.51001,-2.18 z" /><path
             id="path226"
             style="fill:none;stroke:#cccccc;stroke-width:1;stroke-linecap:butt;stroke-linejoin:miter;stroke-miterlimit:10;stroke-dasharray:none;stroke-opacity:1"
             d="M 357.20001,73.839996 402.17999,129.98" /><path
             id="path228"
             style="fill:#cccccc;fill-opacity:1;fill-rule:nonzero;stroke:none"
             d="m 404.04999,132.32001 -4.06,-1.87001 2.19,-0.47 0.93,-2.03 z" /><path
             id="path230"
             style="fill:none;stroke:#cccccc;stroke-width:1;stroke-linecap:butt;stroke-linejoin:miter;stroke-miterlimit:10;stroke-dasharray:none;stroke-opacity:1"
             d="m 404.04999,132.32001 -4.06,-1.87001 2.19,-0.47 0.93,-2.03 z" /><path
             id="path232"
             style="fill:none;stroke:#cccccc;stroke-width:1;stroke-linecap:butt;stroke-linejoin:miter;stroke-miterlimit:10;stroke-dasharray:none;stroke-opacity:1"
             d="m 360.22,119.87 37.75,15.70001" /><path
             id="path234"
             style="fill:#cccccc;fill-opacity:1;fill-rule:nonzero;stroke:none"
             d="m 400.73999,136.72 -4.45999,0.31999 1.69,-1.46998 -0.16,-2.23001 z" /><path
             id="path236"
             style="fill:none;stroke:#cccccc;stroke-width:1;stroke-linecap:butt;stroke-linejoin:miter;stroke-miterlimit:10;stroke-dasharray:none;stroke-opacity:1"
             d="m 400.73999,136.72 -4.45999,0.31999 1.69,-1.46998 -0.16,-2.23001 z" /><path
             id="path238"
             style="fill:none;stroke:#cccccc;stroke-width:1;stroke-linecap:butt;stroke-linejoin:miter;stroke-miterlimit:10;stroke-dasharray:none;stroke-opacity:1"
             d="m 358.70999,109.63 40.87,-34.110003" /><path
             id="path240"
             style="fill:#cccccc;fill-opacity:1;fill-rule:nonzero;stroke:none"
             d="m 402.45999,73.120003 -2.23999,5.119995 -0.64001,-2.720001 -2.56,-1.119995 z" /><path
             id="path242"
             style="fill:none;stroke:#cccccc;stroke-width:1;stroke-linecap:butt;stroke-linejoin:miter;stroke-miterlimit:10;stroke-dasharray:none;stroke-opacity:1"
             d="m 402.45999,73.120003 -2.23999,5.119995 -0.64001,-2.720001 -2.56,-1.119995 z" /><path
             id="path244"
             style="fill:none;stroke:#cccccc;stroke-width:1;stroke-linecap:butt;stroke-linejoin:miter;stroke-miterlimit:10;stroke-dasharray:none;stroke-opacity:1"
             d="m 358.70999,97.370003 40.87,34.109997" /><path
             id="path246"
             style="fill:#cccccc;fill-opacity:1;fill-rule:nonzero;stroke:none"
             d="m 402.45999,133.88 -5.44,-1.27999 2.56,-1.12001 0.64001,-2.72001 z" /><path
             id="path248"
             style="fill:none;stroke:#cccccc;stroke-width:1;stroke-linecap:butt;stroke-linejoin:miter;stroke-miterlimit:10;stroke-dasharray:none;stroke-opacity:1"
             d="m 402.45999,133.88 -5.44,-1.27999 2.56,-1.12001 0.64001,-2.72001 z" /><path
             id="path250"
             style="fill:none;stroke:#cccccc;stroke-width:1;stroke-linecap:butt;stroke-linejoin:miter;stroke-miterlimit:10;stroke-dasharray:none;stroke-opacity:1"
             d="M 360.22,94.870003 397.26999,110.28" /><path
             id="path252"
             style="fill:#cccccc;fill-opacity:1;fill-rule:nonzero;stroke:none"
             d="m 400.73999,111.72 -5.57999,0.39 2.10999,-1.83 -0.19,-2.78 z" /><path
             id="path254"
             style="fill:none;stroke:#cccccc;stroke-width:1;stroke-linecap:butt;stroke-linejoin:miter;stroke-miterlimit:10;stroke-dasharray:none;stroke-opacity:1"
             d="m 400.73999,111.72 -5.57999,0.39 2.10999,-1.83 -0.19,-2.78 z" /><path
             id="path256"
             style="fill:none;stroke:#cccccc;stroke-width:1;stroke-linecap:butt;stroke-linejoin:miter;stroke-miterlimit:10;stroke-dasharray:none;stroke-opacity:1"
             d="M 356.10001,132.39999 403.35001,53.75" /><path
             id="path258"
             style="fill:#cccccc;fill-opacity:1;fill-rule:nonzero;stroke:none"
             d="m 405.28,50.529999 -0.42999,5.580002 -1.5,-2.360001 -2.79001,-0.220001 z" /><path
             id="path260"
             style="fill:none;stroke:#cccccc;stroke-width:1;stroke-linecap:butt;stroke-linejoin:miter;stroke-miterlimit:10;stroke-dasharray:none;stroke-opacity:1"
             d="m 405.28,50.529999 -0.42999,5.580002 -1.5,-2.360001 -2.79001,-0.220001 z" /><path
             id="path262"
             style="fill:none;stroke:#cccccc;stroke-width:1;stroke-linecap:butt;stroke-linejoin:miter;stroke-miterlimit:10;stroke-dasharray:none;stroke-opacity:1"
             d="m 356.10001,49.599998 47.25,78.650002" /><path
             id="path264"
             style="fill:#cccccc;fill-opacity:1;fill-rule:nonzero;stroke:none"
             d="m 405.28,131.47 -4.72,-3 2.79001,-0.22 1.5,-2.36 z" /><path
             id="path266"
             style="fill:none;stroke:#cccccc;stroke-width:1;stroke-linecap:butt;stroke-linejoin:miter;stroke-miterlimit:10;stroke-dasharray:none;stroke-opacity:1"
             d="m 405.28,131.47 -4.72,-3 2.79001,-0.22 1.5,-2.36 z" /><path
             id="path268"
             style="fill:none;stroke:#cccccc;stroke-width:1;stroke-linecap:butt;stroke-linejoin:miter;stroke-miterlimit:10;stroke-dasharray:none;stroke-opacity:1"
             d="M 357.20001,133.16 401.70999,77.610001" /><path
             id="path270"
             style="fill:#cccccc;fill-opacity:1;fill-rule:nonzero;stroke:none"
             d="m 404.04999,74.68 -1.16999,5.470002 -1.17001,-2.540001 -2.72998,-0.590004 z" /><path
             id="path272"
             style="fill:none;stroke:#cccccc;stroke-width:1;stroke-linecap:butt;stroke-linejoin:miter;stroke-miterlimit:10;stroke-dasharray:none;stroke-opacity:1"
             d="m 404.04999,74.68 -1.16999,5.470002 -1.17001,-2.540001 -2.72998,-0.590004 z" /><path
             id="path274"
             style="fill:none;stroke:#cccccc;stroke-width:1;stroke-linecap:butt;stroke-linejoin:miter;stroke-miterlimit:10;stroke-dasharray:none;stroke-opacity:1"
             d="m 357.20001,48.84 44.50998,55.55" /><path
             id="path276"
             style="fill:#cccccc;fill-opacity:1;fill-rule:nonzero;stroke:none"
             d="m 404.04999,107.32 -5.06998,-2.34 2.72998,-0.59 1.17001,-2.54 z" /><path
             id="path278"
             style="fill:none;stroke:#cccccc;stroke-width:1;stroke-linecap:butt;stroke-linejoin:miter;stroke-miterlimit:10;stroke-dasharray:none;stroke-opacity:1"
             d="m 404.04999,107.32 -5.06998,-2.34 2.72998,-0.59 1.17001,-2.54 z" /><path
             id="path280"
             style="fill:none;stroke:#cccccc;stroke-width:1;stroke-linecap:butt;stroke-linejoin:miter;stroke-miterlimit:10;stroke-dasharray:none;stroke-opacity:1"
             d="M 357.20001,108.16 401.70999,52.610001" /><path
             id="path282"
             style="fill:#cccccc;fill-opacity:1;fill-rule:nonzero;stroke:none"
             d="M 404.04999,49.68 402.88,55.150002 401.70999,52.610001 398.98001,52.02 Z" /><path
             id="path284"
             style="fill:none;stroke:#cccccc;stroke-width:1;stroke-linecap:butt;stroke-linejoin:miter;stroke-miterlimit:10;stroke-dasharray:none;stroke-opacity:1"
             d="M 404.04999,49.68 402.88,55.150002 401.70999,52.610001 398.98001,52.02 Z" /><path
             id="path286"
             style="fill:none;stroke:#cccccc;stroke-width:1;stroke-linecap:butt;stroke-linejoin:miter;stroke-miterlimit:10;stroke-dasharray:none;stroke-opacity:1"
             d="M 360.22,87.129997 397.26999,71.720001" /><path
             id="path288"
             style="fill:#cccccc;fill-opacity:1;fill-rule:nonzero;stroke:none"
             d="m 400.73999,70.279999 -3.66,4.220001 0.19,-2.779999 -2.10999,-1.830002 z" /><path
             id="path290"
             style="fill:none;stroke:#cccccc;stroke-width:1;stroke-linecap:butt;stroke-linejoin:miter;stroke-miterlimit:10;stroke-dasharray:none;stroke-opacity:1"
             d="m 400.73999,70.279999 -3.66,4.220001 0.19,-2.779999 -2.10999,-1.830002 z" /><path
             id="path292"
             style="fill:none;stroke:#000000;stroke-width:1;stroke-linecap:butt;stroke-linejoin:miter;stroke-miterlimit:10;stroke-dasharray:none;stroke-opacity:1"
             d="m 426,91 h 18.63" /><path
             id="path294"
             style="fill:#000000;fill-opacity:1;fill-rule:nonzero;stroke:none"
             d="m 449.88,91 -7,3.5 1.75,-3.5 -1.75,-3.5 z" /><path
             id="path296"
             style="fill:none;stroke:#000000;stroke-width:1;stroke-linecap:butt;stroke-linejoin:miter;stroke-miterlimit:10;stroke-dasharray:none;stroke-opacity:1"
             d="m 449.88,91 -7,3.5 1.75,-3.5 -1.75,-3.5 z" /></g><g
           transform="matrix(0,0.71784234,-0.71784234,0,143.92738,-12.562241)"
           id="g298"><path
             id="path300"
             style="fill:#ffffff;fill-opacity:1;fill-rule:nonzero;stroke:none"
             d="m 81,98.5 11.199997,-15 H 125.8 l 11.2,15 z" /><path
             id="path302"
             style="fill:none;stroke:#000000;stroke-width:1;stroke-linecap:butt;stroke-linejoin:miter;stroke-miterlimit:10;stroke-dasharray:none;stroke-opacity:1"
             d="m 81,98.5 11.199997,-15 H 125.8 l 11.2,15 z" /></g><g
           transform="matrix(0.71784234,0,0,0.71784234,0.35892117,0.35892117)"
           id="g304"><path
             id="path306"
             style="fill:none;stroke:#000000;stroke-width:1;stroke-linecap:butt;stroke-linejoin:miter;stroke-miterlimit:10;stroke-dasharray:none;stroke-opacity:1"
             d="m 116.5,91 h 17.13" /><path
             id="path308"
             style="fill:#000000;fill-opacity:1;fill-rule:nonzero;stroke:none"
             d="m 138.88,91 -7,3.5 1.75,-3.5 -1.75,-3.5 z" /><path
             id="path310"
             style="fill:none;stroke:#000000;stroke-width:1;stroke-linecap:butt;stroke-linejoin:miter;stroke-miterlimit:10;stroke-dasharray:none;stroke-opacity:1"
             d="m 138.88,91 -7,3.5 1.75,-3.5 -1.75,-3.5 z" /></g><g
           transform="matrix(0,0.71784234,-0.71784234,0,215.71162,-83.628632)"
           id="g312"><path
             id="path314"
             style="fill:#ffffff;fill-opacity:1;fill-rule:nonzero;stroke:none"
             d="m 191,99 7,-15 h 21 l 7,15 z" /><path
             id="path316"
             style="fill:none;stroke:#000000;stroke-width:1;stroke-linecap:butt;stroke-linejoin:miter;stroke-miterlimit:10;stroke-dasharray:none;stroke-opacity:1"
             d="m 191,99 7,-15 h 21 l 7,15 z" /></g><g
           transform="matrix(0.71784234,0,0,0.71784234,27.995852,4.307054)"
           id="g318"><text
             id="text322"
             style="font-variant:normal;font-weight:normal;font-size:10px;font-family:TimesNewRomanPSMT;-inkscape-font-specification:TimesNewRomanPSMT;writing-mode:lr-tb;fill:#000000;fill-opacity:1;fill-rule:nonzero;stroke:none"
             transform="translate(0.09375,9)"><tspan
               id="tspan320"
               y="0"
               x="0 4.4384766 9.4384766 14.438477 18.789062 21.289062 23.789062 31.567383 36.005859 41.005859 46.005859 51.005859 56.005859 58.78418 61.28418 63.78418 68.78418">conv, maxpool, bn</tspan></text>
</g><g
           transform="matrix(0.71784234,0,0,0.71784234,95.47303,4.307054)"
           id="g324"><text
             id="text328"
             style="font-variant:normal;font-weight:normal;font-size:10px;font-family:TimesNewRomanPSMT;-inkscape-font-specification:TimesNewRomanPSMT;writing-mode:lr-tb;fill:#000000;fill-opacity:1;fill-rule:nonzero;stroke:none"
             transform="translate(0.09375,9)"><tspan
               id="tspan326"
               y="0"
               x="0 4.4384766 9.4384766 14.438477 18.789062 21.289062 23.789062 31.567383 36.005859 41.005859 46.005859 51.005859 56.005859 58.78418 61.28418 63.78418 68.78418">conv, maxpool, bn</tspan></text>
</g><g
           transform="matrix(0.71784234,0,0,0.71784234,182.33195,4.307054)"
           id="g330"><text
             id="text334"
             style="font-variant:normal;font-weight:normal;font-size:10px;font-family:TimesNewRomanPSMT;-inkscape-font-specification:TimesNewRomanPSMT;writing-mode:lr-tb;fill:#000000;fill-opacity:1;fill-rule:nonzero;stroke:none"
             transform="translate(0.09375,9)"><tspan
               id="tspan332"
               y="0"
               x="0 4.4384766 9.4384766 14.438477 18.789062 21.289062 23.789062 28.789062">conv, bn</tspan></text>
</g><g
           transform="matrix(0.71784234,0,0,0.71784234,249.80913,4.307054)"
           id="g336"><text
             id="text340"
             style="font-variant:normal;font-weight:normal;font-size:10px;font-family:TimesNewRomanPSMT;-inkscape-font-specification:TimesNewRomanPSMT;writing-mode:lr-tb;fill:#000000;fill-opacity:1;fill-rule:nonzero;stroke:none"
             transform="translate(0.609375,9)"><tspan
               id="tspan338"
               y="0"
               x="0 3.3300781">fc</tspan></text>
</g><g
           transform="matrix(0.71784234,0,0,0.71784234,292.87967,4.307054)"
           id="g342"><text
             id="text346"
             style="font-variant:normal;font-weight:normal;font-size:10px;font-family:TimesNewRomanPSMT;-inkscape-font-specification:TimesNewRomanPSMT;writing-mode:lr-tb;fill:#000000;fill-opacity:1;fill-rule:nonzero;stroke:none"
             transform="translate(0.609375,9)"><tspan
               id="tspan344"
               y="0"
               x="0 3.3300781">fc</tspan></text>
</g></g></g></g></svg>